<svg width="24" height="24" viewBox="0 0 24 24" fill="none" xmlns="http://www.w3.org/2000/svg">
<rect x="3" y="3" width="18" height="18" rx="3" stroke="#1C1C1C" stroke-width="2"/>
<path fill-rule="evenodd" clip-rule="evenodd" d="M11.4245 5.03178C11.4343 5.0477 11.4253 5.06264 11.4044 5.06498C11.3211 5.07421 11.1304 5.08807 11.0619 5.08986C11.022 5.0909 10.9579 5.10763 10.9194 5.12698C10.8644 5.15469 10.8469 5.15458 10.8375 5.1267C10.8285 5.10019 10.8081 5.10263 10.7566 5.13638C10.7165 5.16268 10.6629 5.1736 10.6282 5.16262C10.5933 5.15154 10.5689 5.15675 10.5689 5.17528C10.5689 5.19441 10.5404 5.19962 10.4963 5.18859C10.4488 5.17664 10.4238 5.18251 10.4238 5.2056C10.4238 5.225 10.4058 5.23397 10.3838 5.22549C10.3619 5.21707 10.3325 5.22082 10.3186 5.2338C10.3047 5.24679 10.2275 5.27113 10.1472 5.28787C10.0668 5.3046 9.96243 5.33416 9.91517 5.35356C9.86791 5.37296 9.81293 5.38616 9.79297 5.3829C9.77301 5.37964 9.7567 5.39062 9.7567 5.40725C9.7567 5.42387 9.71754 5.43751 9.66968 5.43751C9.62183 5.43751 9.58267 5.45191 9.58267 5.46957C9.58267 5.48723 9.56309 5.49413 9.53916 5.48495C9.51524 5.47582 9.49566 5.48169 9.49566 5.4981C9.49566 5.51445 9.4825 5.51972 9.46645 5.50978C9.45036 5.49989 9.4162 5.51271 9.39059 5.53836C9.36492 5.56401 9.32924 5.58009 9.3113 5.57411C9.29335 5.56814 9.26056 5.58134 9.23842 5.60346C9.21629 5.62557 9.18023 5.63682 9.15837 5.62845C9.13651 5.62003 9.11862 5.62557 9.11862 5.64073C9.11862 5.65584 9.08599 5.67643 9.04612 5.68643C9.00621 5.69643 8.97358 5.71762 8.97358 5.73354C8.97358 5.74946 8.95547 5.75549 8.93328 5.74701C8.91109 5.73848 8.86818 5.75343 8.83789 5.78016C8.8076 5.80684 8.76387 5.83303 8.74071 5.8383C8.71754 5.84357 8.69193 5.85808 8.68382 5.87063C8.67572 5.88313 8.6103 5.92269 8.53851 5.95855C8.46672 5.99441 8.36481 6.05608 8.31195 6.09569C8.25914 6.13525 8.1997 6.17003 8.17985 6.17291C8.16 6.17584 8.11263 6.20719 8.07462 6.24257C8.03661 6.27794 7.99152 6.3069 7.97445 6.3069C7.95737 6.3069 7.92675 6.33347 7.90647 6.36597C7.88613 6.39846 7.85758 6.41764 7.84295 6.40862C7.82832 6.3996 7.80216 6.41867 7.78486 6.45095C7.76752 6.48328 7.74147 6.50974 7.72689 6.50974C7.71232 6.50974 7.66544 6.54213 7.62275 6.58163C7.58 6.62119 7.53367 6.64651 7.51975 6.63792C7.50577 6.62928 7.49435 6.64189 7.49435 6.66596C7.49435 6.68998 7.4454 6.74611 7.38558 6.79066C7.32576 6.83522 7.26752 6.88477 7.25615 6.9008C7.24473 6.91683 7.22515 6.93047 7.21264 6.93112C7.17882 6.93292 6.97227 7.12484 6.97227 7.15445C6.97227 7.16852 6.93637 7.21927 6.89254 7.26725C6.84865 7.31529 6.78465 7.38554 6.75028 7.42336C6.24016 7.98488 5.64771 9.02934 5.4069 9.79169C5.38797 9.85146 5.3617 9.90036 5.34849 9.90036C5.33527 9.90036 5.3313 9.92645 5.33962 9.95834C5.34843 9.99203 5.34049 10.0163 5.3207 10.0163C5.30194 10.0163 5.29307 10.0268 5.30101 10.0396C5.31559 10.0632 5.2748 10.2842 5.24114 10.364C5.23107 10.3879 5.22536 10.4187 5.22841 10.4323C5.23151 10.4459 5.21944 10.4747 5.20154 10.4962C5.18365 10.5177 5.17745 10.549 5.18773 10.5656C5.19801 10.5822 5.19622 10.6122 5.18365 10.6321C5.17114 10.652 5.157 10.727 5.15222 10.7987C5.14743 10.8704 5.13074 10.9748 5.11508 11.0306C5.09941 11.0864 5.07815 11.2657 5.06787 11.429C5.05759 11.5924 5.03812 11.7261 5.02458 11.7261C5.01104 11.7261 5 11.7399 5 11.7568C5 11.7736 5.01305 11.7794 5.02899 11.7696C5.04492 11.7597 5.05797 11.7655 5.05797 11.7823C5.05797 11.7992 5.04492 11.813 5.02899 11.813C5.0124 11.813 5 11.9 5 12.0159C5 12.1275 5.01033 12.2188 5.023 12.2188C5.03568 12.2188 5.04922 12.3045 5.05308 12.4094C5.06004 12.5966 5.09049 12.8447 5.14172 13.1316C5.15597 13.2113 5.16141 13.2869 5.1538 13.2995C5.14624 13.3122 5.15565 13.3413 5.17473 13.3643C5.19388 13.3873 5.20209 13.4255 5.19301 13.4491C5.18398 13.4727 5.18936 13.4999 5.20503 13.5096C5.22074 13.5193 5.23113 13.5425 5.22819 13.5613C5.22526 13.58 5.2308 13.6148 5.24054 13.6387C5.28067 13.7376 5.32054 13.9317 5.30563 13.9557C5.29688 13.9699 5.30455 13.9865 5.32271 13.9925C5.34088 13.9986 5.3573 14.0441 5.35915 14.0936C5.361 14.1432 5.37068 14.1786 5.38068 14.1725C5.39064 14.1664 5.41576 14.2231 5.43648 14.2986C5.4572 14.374 5.4901 14.4618 5.50963 14.4936C5.5291 14.5255 5.55471 14.5842 5.56651 14.624C5.68436 15.0219 6.11905 15.753 6.66005 16.4636C6.73809 16.566 7.45264 17.2732 7.58316 17.3771C7.63319 17.417 7.69535 17.4724 7.72124 17.5003C7.74712 17.5282 7.78356 17.551 7.80227 17.551C7.82092 17.551 7.84371 17.5706 7.8529 17.5945C7.86209 17.6184 7.88645 17.6379 7.90706 17.6379C7.92768 17.6379 7.98326 17.6738 8.03057 17.7177C8.07788 17.7614 8.12563 17.7973 8.13667 17.7973C8.14776 17.7973 8.19051 17.8266 8.23168 17.8624C8.27279 17.8981 8.30689 17.9177 8.30743 17.9058C8.30792 17.894 8.3275 17.9096 8.35094 17.9405C8.37433 17.9715 8.39352 17.9874 8.39352 17.976C8.39352 17.9392 8.55988 18.0399 8.57832 18.0879C8.58811 18.1134 8.60888 18.1264 8.62449 18.1168C8.65054 18.1007 8.82386 18.1732 8.85758 18.2143C8.87449 18.2349 9.1488 18.3752 9.18268 18.3806C9.1953 18.3825 9.22428 18.3858 9.24707 18.3878C9.26986 18.3898 9.30891 18.4118 9.33387 18.4367C9.35883 18.4616 9.39238 18.4739 9.40843 18.464C9.42452 18.4541 9.43768 18.462 9.43768 18.4815C9.43768 18.501 9.44628 18.5084 9.45677 18.4979C9.46727 18.4874 9.49011 18.4899 9.50751 18.5035C9.52492 18.5171 9.58403 18.5367 9.63879 18.547C9.69356 18.5575 9.7635 18.5886 9.79411 18.6163C9.82473 18.644 9.85171 18.6621 9.85404 18.6566C9.8628 18.6355 10.2208 18.7189 10.2208 18.742C10.2208 18.7554 10.24 18.759 10.2636 18.7499C10.287 18.7409 10.3281 18.7553 10.3548 18.7819C10.3939 18.821 10.4079 18.823 10.4276 18.792C10.4464 18.7623 10.452 18.762 10.4524 18.7904C10.4527 18.8147 10.4764 18.8213 10.5221 18.8098C10.5603 18.8003 10.5995 18.8053 10.6092 18.821C10.6189 18.8368 10.653 18.8428 10.685 18.8344C10.717 18.8261 10.7621 18.8349 10.7851 18.8541C10.8083 18.8732 10.8543 18.8802 10.8879 18.8696C10.9214 18.8589 10.9674 18.8658 10.9904 18.8849C11.0134 18.904 11.064 18.9115 11.1033 18.9017C11.1425 18.8918 11.1831 18.8978 11.1937 18.9151C11.2044 18.9324 11.2606 18.9436 11.3188 18.9402C11.4888 18.9301 11.5597 18.94 11.5405 18.971C11.5295 18.9887 11.5735 19 11.6531 19C11.7249 19 11.7917 18.987 11.8015 18.971C11.8114 18.9551 11.9166 18.942 12.0353 18.942C12.1598 18.942 12.2511 18.9543 12.2511 18.971C12.2511 19.0075 12.5039 19.0096 12.517 18.9732C12.531 18.9343 12.6862 18.9003 12.6862 18.9362C12.6862 18.9684 12.7968 18.9491 12.8502 18.9076C12.8686 18.8933 12.9161 18.8897 12.9557 18.8996C12.9971 18.91 13.0365 18.9038 13.048 18.8852C13.0591 18.8674 13.0937 18.8608 13.125 18.8708C13.1564 18.8807 13.2008 18.8733 13.2237 18.8543C13.2473 18.8348 13.2973 18.8276 13.3384 18.8379C13.3842 18.8494 13.4113 18.8439 13.4113 18.8233C13.4113 18.8038 13.4409 18.796 13.4838 18.8042C13.5237 18.8118 13.5563 18.806 13.5563 18.7911C13.5563 18.7764 13.5824 18.7725 13.6143 18.7827C13.6498 18.7939 13.6723 18.7879 13.6723 18.767C13.6723 18.7471 13.6925 18.7407 13.7208 18.7515C13.7474 18.7617 13.778 18.7559 13.7888 18.7384C13.7996 18.721 13.8561 18.7042 13.9143 18.7012C13.9725 18.6982 14.0202 18.6853 14.0202 18.6727C14.0203 18.66 14.0367 18.6524 14.0566 18.6556C14.0766 18.6589 14.1321 18.6443 14.1799 18.6232C14.2278 18.6021 14.2767 18.587 14.2887 18.5896C14.3006 18.5921 14.3104 18.5798 14.3104 18.5622C14.3104 18.5446 14.3296 18.5374 14.353 18.5465C14.3764 18.5554 14.4034 18.5501 14.413 18.5346C14.4226 18.5191 14.4426 18.5139 14.4574 18.523C14.4723 18.5322 14.4845 18.5252 14.4845 18.5073C14.4845 18.4895 14.4976 18.483 14.5137 18.493C14.5298 18.5029 14.5641 18.4899 14.5899 18.464C14.6158 18.4382 14.654 18.4236 14.6749 18.4316C14.6957 18.4396 14.7168 18.4367 14.7218 18.4251C14.7268 18.4136 14.8289 18.3608 14.9485 18.3078C15.0682 18.2548 15.1726 18.2015 15.1806 18.1894C15.1996 18.1606 15.4416 18.038 15.4416 18.0573C15.4416 18.0654 15.4681 18.0494 15.5006 18.0216C15.533 17.9939 15.5689 17.9712 15.5803 17.9711C15.5918 17.9711 15.6495 17.9341 15.7086 17.8889C15.7677 17.8438 15.8283 17.8143 15.8431 17.8235C15.8579 17.8326 15.876 17.8175 15.8833 17.7898C15.8905 17.762 15.9345 17.7202 15.9809 17.6968C16.0273 17.6734 16.0888 17.6307 16.1177 17.602C16.1465 17.5732 16.1824 17.5573 16.1974 17.5665C16.2124 17.5758 16.2247 17.5631 16.2247 17.5382C16.2247 17.5133 16.2359 17.493 16.2496 17.493C16.2633 17.493 16.3339 17.4409 16.4064 17.3771C16.4789 17.3134 16.5441 17.2612 16.5513 17.2612C16.571 17.2612 17.2109 16.6166 17.2109 16.5968C17.2109 16.5873 17.2761 16.5094 17.3559 16.4237C17.4356 16.3379 17.5009 16.2575 17.5009 16.2449C17.5009 16.2324 17.5174 16.2049 17.5375 16.1838C17.5577 16.1627 17.6321 16.0558 17.7029 15.9461C17.7738 15.8363 17.8454 15.7314 17.8621 15.7127C17.9369 15.6291 18.2598 14.9893 18.4 14.6471C18.4372 14.5561 18.4806 14.4897 18.4964 14.4994C18.5122 14.5092 18.516 14.5024 18.5047 14.4842C18.4798 14.444 18.5441 14.2184 18.5804 14.2184C18.5948 14.2184 18.5985 14.2053 18.5886 14.1893C18.5787 14.1734 18.5806 14.1443 18.5927 14.1247C18.6049 14.105 18.6165 14.0691 18.6185 14.045C18.6255 13.9594 18.698 13.6818 18.721 13.6525C18.7338 13.6362 18.7508 13.571 18.7587 13.5076C18.7889 13.2662 18.814 13.1476 18.8327 13.1591C18.8433 13.1656 18.8468 13.1263 18.8404 13.0716C18.8331 13.0091 18.8412 12.9722 18.8623 12.9722C18.8847 12.9722 18.8896 12.9394 18.8771 12.8726C18.8668 12.8179 18.8691 12.756 18.8822 12.735C18.9394 12.6437 18.938 11.3258 18.8805 11.1971C18.8681 11.1692 18.866 11.1138 18.876 11.074C18.8874 11.0288 18.8819 11.0016 18.8615 11.0016C18.8412 11.0016 18.8333 10.9631 18.8406 10.9002C18.8472 10.8444 18.8435 10.7987 18.8325 10.7987C18.8117 10.7987 18.7828 10.67 18.7586 10.4689C18.7507 10.4041 18.7337 10.3376 18.7205 10.3213C18.7075 10.305 18.6872 10.2459 18.6755 10.1901C18.6 9.83108 18.2886 9.03624 18.0772 8.66322C17.9381 8.41767 17.6768 7.99482 17.6314 7.94179C17.6155 7.9231 17.5828 7.87838 17.5589 7.8423C17.5018 7.75618 17.3902 7.61762 17.2909 7.50954C17.247 7.46172 17.2111 7.41489 17.211 7.40548C17.2108 7.38348 16.5401 6.7128 16.5174 6.71193C16.508 6.71155 16.4499 6.66591 16.3883 6.61048C16.3267 6.55506 16.2662 6.50974 16.2539 6.50974C16.2416 6.50974 16.2246 6.4836 16.2163 6.45165C16.2074 6.41786 16.1847 6.39987 16.1618 6.40862C16.1402 6.41693 16.0795 6.38433 16.0268 6.3363C15.9742 6.28826 15.9188 6.24892 15.9039 6.24892C15.8889 6.24892 15.8767 6.23588 15.8767 6.21996C15.8767 6.20399 15.8575 6.19095 15.8342 6.19095C15.8108 6.19095 15.7471 6.15182 15.6925 6.10401C15.638 6.05619 15.5789 6.01707 15.561 6.01707C15.5432 6.01707 15.5286 6.00327 15.5286 5.98642C15.5286 5.96952 15.5156 5.96376 15.4996 5.9736C15.4836 5.98349 15.4706 5.97697 15.4706 5.95915C15.4706 5.94132 15.4574 5.93486 15.4414 5.94475C15.4253 5.95469 15.4044 5.94246 15.3948 5.91769C15.3853 5.89285 15.3658 5.87976 15.3516 5.88856C15.3372 5.89736 15.3256 5.8922 15.3256 5.87704C15.3256 5.86188 15.2929 5.84129 15.2531 5.83129C15.2132 5.82129 15.1806 5.79956 15.1806 5.78298C15.1806 5.76641 15.1675 5.76092 15.1515 5.77076C15.1356 5.78059 15.1225 5.77429 15.1225 5.75669C15.1225 5.73914 15.1062 5.7281 15.0863 5.73223C15.0449 5.74082 14.8035 5.63812 14.8035 5.61199C14.8035 5.60248 14.7743 5.59253 14.7387 5.58987C14.703 5.58716 14.6693 5.57129 14.6637 5.5545C14.6581 5.53776 14.6407 5.532 14.625 5.54162C14.6094 5.55129 14.5798 5.53624 14.5592 5.50815C14.5367 5.47734 14.5029 5.4643 14.4741 5.47533C14.4479 5.48538 14.4264 5.48142 14.4264 5.46647C14.4264 5.45153 14.4069 5.4468 14.3829 5.45599C14.359 5.46517 14.3394 5.45745 14.3394 5.43887C14.3394 5.42029 14.3275 5.41246 14.3128 5.42148C14.2983 5.4305 14.2493 5.42262 14.2041 5.40393C14.1589 5.38518 14.1116 5.36883 14.0991 5.36747C14.0865 5.36611 14.067 5.35198 14.0556 5.33606C14.0442 5.32014 14.0218 5.30678 14.0059 5.3064C13.8983 5.30384 13.7013 5.25505 13.7013 5.23092C13.7013 5.21489 13.6752 5.21 13.6433 5.22016C13.6076 5.23147 13.5853 5.22538 13.5853 5.20424C13.5853 5.18419 13.5612 5.1762 13.5273 5.18506C13.4954 5.19343 13.4693 5.18892 13.4693 5.17512C13.4693 5.16132 13.4269 5.15012 13.375 5.15029C13.1733 5.15083 13.1405 5.1467 13.1039 5.11633C13.0831 5.0991 13.0386 5.09361 13.0052 5.10421C12.9717 5.11486 12.9257 5.10796 12.9026 5.08883C12.8766 5.06721 12.8224 5.06139 12.7586 5.07335C12.6807 5.08796 12.6523 5.08188 12.6392 5.04764C12.6214 5.00135 12.3671 4.97983 12.3671 5.0246C12.3671 5.03661 12.2105 5.0471 12.019 5.04786C11.8276 5.04868 11.671 5.03884 11.671 5.02607C11.671 5.01325 11.6115 5.00282 11.5388 5.00282C11.458 5.00282 11.4135 5.01406 11.4245 5.03178ZM18.0251 5.31417C17.9329 5.3309 17.8219 5.40371 17.7376 5.50272C17.7003 5.54651 17.6514 5.58237 17.6289 5.58237C17.6063 5.58237 17.5879 5.60769 17.5879 5.63867C17.5879 5.66958 17.5759 5.70235 17.5611 5.71142C17.5464 5.7205 17.5258 5.7669 17.5154 5.81455C17.5049 5.86221 17.4876 5.90122 17.4769 5.90122C17.4661 5.90128 17.4574 5.98604 17.4574 6.08961C17.4574 6.19317 17.4646 6.27794 17.4733 6.27794C17.4821 6.27789 17.5059 6.32391 17.5263 6.38015C17.559 6.47051 17.8489 6.81615 17.8489 6.7648C17.8489 6.75371 17.9228 6.77007 18.013 6.8011C18.2187 6.87179 18.2895 6.87173 18.4845 6.8005C18.5704 6.76909 18.6518 6.75029 18.6653 6.75871C18.6789 6.76714 18.6901 6.75975 18.6901 6.74241C18.6901 6.72502 18.7352 6.67123 18.7904 6.62276C18.8456 6.57435 18.907 6.49002 18.9268 6.4353C18.9466 6.38064 18.9715 6.33586 18.9823 6.33586C18.993 6.33586 19.0009 6.22502 18.9999 6.08955C18.9989 5.95404 18.9901 5.84319 18.9804 5.84319C18.9707 5.84319 18.9458 5.79624 18.925 5.73886C18.9043 5.68143 18.8658 5.61182 18.8394 5.58417C18.8131 5.55645 18.7765 5.50891 18.7581 5.47843C18.7396 5.44794 18.7089 5.4267 18.6898 5.43126C18.6707 5.43577 18.6336 5.41621 18.6073 5.38779C18.5402 5.31504 18.2335 5.27624 18.0251 5.31417ZM12.7079 6.54071C12.8555 6.55968 12.9762 6.58793 12.9762 6.60353C12.9762 6.61912 12.997 6.6239 13.0223 6.61418C13.0477 6.60445 13.0818 6.60472 13.0981 6.61477C13.1144 6.62483 13.1814 6.63705 13.2471 6.64194C13.3128 6.64683 13.3707 6.66335 13.3758 6.67867C13.3809 6.69394 13.4106 6.69981 13.4417 6.69166C13.4751 6.68291 13.4983 6.69144 13.4983 6.71231C13.4983 6.73192 13.5177 6.74035 13.5418 6.73111C13.5657 6.72193 13.5853 6.72627 13.5853 6.74073C13.5853 6.75518 13.6436 6.77572 13.7149 6.78642C13.7862 6.79707 13.8594 6.82386 13.8777 6.84582C13.896 6.86782 13.9225 6.87869 13.9367 6.86994C13.9508 6.86125 13.9624 6.87005 13.9624 6.88961C13.9624 6.90912 13.97 6.91749 13.9794 6.90814C14.0025 6.88505 14.1654 6.94384 14.1654 6.97535C14.1654 6.98921 14.1833 6.99372 14.2052 6.98535C14.227 6.97693 14.2662 6.99133 14.2922 7.0173C14.3182 7.04328 14.3394 7.05621 14.3394 7.0461C14.3394 7.03594 14.3916 7.05697 14.4554 7.09283C14.5193 7.12864 14.5715 7.1682 14.5715 7.18069C14.5715 7.19319 14.5886 7.19683 14.6096 7.18879C14.6306 7.18075 14.6861 7.2102 14.7329 7.25421C14.7797 7.29822 14.8294 7.33077 14.8432 7.32653C14.8755 7.3167 15.1806 7.52579 15.1806 7.55785C15.1806 7.5711 15.2005 7.58197 15.2249 7.58197C15.2494 7.58197 15.2769 7.60153 15.2861 7.62544C15.2953 7.64935 15.3201 7.66891 15.3412 7.66891C15.3624 7.66891 15.4658 7.75368 15.571 7.8573C15.6763 7.96092 15.7735 8.04568 15.7872 8.04568C15.8008 8.04568 15.8317 8.07502 15.8559 8.11089C15.8799 8.14675 15.9675 8.24782 16.0504 8.33546C16.2887 8.58748 16.2959 8.59622 16.4983 8.88378C16.8191 9.3395 17.2712 10.332 17.2751 10.5891C17.2757 10.6253 17.2878 10.6621 17.302 10.6709C17.3162 10.6796 17.32 10.6996 17.3103 10.7151C17.3008 10.7306 17.3055 10.7591 17.321 10.7783C17.3732 10.8429 17.4219 11.2155 17.4182 11.5215C17.417 11.6241 17.4286 11.7234 17.4441 11.742C17.4784 11.7834 17.4758 12.2211 17.441 12.2639C17.4272 12.2808 17.417 12.3786 17.4183 12.4813C17.4219 12.771 17.4174 12.8561 17.3968 12.8894C17.3864 12.9064 17.3731 12.9791 17.3674 13.0512C17.3618 13.1232 17.3462 13.1969 17.3327 13.2148C17.3194 13.2328 17.3063 13.2822 17.3037 13.3246C17.2767 13.765 16.6214 15.0562 16.1734 15.5517C15.8134 15.9498 15.6634 16.0991 15.6386 16.0838C15.6238 16.0747 15.605 16.0913 15.5968 16.1209C15.5809 16.1781 15.3233 16.3918 15.2702 16.3918C15.2528 16.3918 15.2385 16.4032 15.2385 16.4172C15.2385 16.47 14.6838 16.8169 14.6222 16.8026C14.6103 16.7998 14.6005 16.8085 14.6005 16.8219C14.6005 16.8485 14.4541 16.9266 14.4192 16.9185C14.4072 16.9157 14.3974 16.9273 14.3974 16.9441C14.3974 16.961 14.3844 16.9668 14.3684 16.9569C14.3525 16.947 14.3394 16.9536 14.3394 16.9714C14.3394 16.9892 14.3264 16.9957 14.3104 16.9859C14.2944 16.9761 14.2814 16.9832 14.2814 17.0018C14.2814 17.0203 14.2618 17.0281 14.2379 17.0189C14.214 17.0097 14.1944 17.0128 14.1944 17.0259C14.1944 17.0491 13.9929 17.1431 13.901 17.1627C13.8753 17.1682 13.8166 17.1882 13.7705 17.2073C13.7245 17.2263 13.6781 17.243 13.6675 17.2443C13.6569 17.2456 13.6392 17.2556 13.6284 17.2664C13.6175 17.2773 13.5903 17.2792 13.568 17.2706C13.5456 17.262 13.5273 17.2709 13.5273 17.2905C13.5273 17.3116 13.5039 17.3199 13.4693 17.3108C13.4374 17.3024 13.4113 17.3083 13.4113 17.3238C13.4113 17.3394 13.3852 17.3438 13.3533 17.3337C13.3196 17.3229 13.2953 17.3284 13.2953 17.3467C13.2953 17.3659 13.2668 17.3711 13.2228 17.3601C13.1752 17.3481 13.1502 17.354 13.1502 17.3771C13.1502 17.3965 13.1323 17.4054 13.1103 17.397C13.0883 17.3885 13.0589 17.3929 13.045 17.4067C12.9817 17.4693 11.9542 17.5176 11.4825 17.4801C11.2268 17.4598 11.0313 17.4269 11.0156 17.4015C11.0065 17.3868 10.974 17.3827 10.9435 17.3924C10.911 17.4027 10.8879 17.3964 10.8879 17.3771C10.8879 17.3579 10.8648 17.3516 10.8323 17.3619C10.8018 17.3715 10.7691 17.3671 10.7598 17.352C10.7504 17.337 10.7167 17.3314 10.6848 17.3397C10.651 17.3486 10.6268 17.3406 10.6268 17.3206C10.6268 17.3 10.6047 17.2933 10.5713 17.3039C10.5407 17.3136 10.5077 17.3085 10.4978 17.2926C10.488 17.2768 10.4608 17.2711 10.4374 17.2801C10.414 17.289 10.3948 17.2806 10.3948 17.2612C10.3948 17.2418 10.3753 17.2335 10.3513 17.2427C10.3274 17.2519 10.3078 17.2454 10.3078 17.2282C10.3078 17.2111 10.2886 17.2044 10.2652 17.2134C10.2418 17.2224 10.2149 17.2172 10.2055 17.202C10.1961 17.1867 10.1618 17.1743 10.1293 17.1743C10.0968 17.1743 10.0341 17.1486 9.98995 17.1172C9.94579 17.0858 9.90136 17.0684 9.89119 17.0785C9.88107 17.0887 9.87275 17.081 9.87275 17.0615C9.87275 17.0419 9.85997 17.0338 9.84431 17.0435C9.8126 17.0631 9.69541 17.0089 9.66365 16.9601C9.65239 16.9427 9.62629 16.927 9.60568 16.9254C9.58506 16.9237 9.54629 16.9203 9.51948 16.9179C9.49272 16.9154 9.44796 16.8906 9.42006 16.8627C9.39217 16.8348 9.35899 16.812 9.34643 16.812C9.33381 16.812 9.29933 16.7925 9.26975 16.7685C9.24022 16.7446 9.19736 16.7211 9.17458 16.7162C9.15179 16.7114 9.11606 16.6853 9.09523 16.6583C9.0744 16.6312 9.03851 16.613 9.01551 16.6177C8.99245 16.6224 8.97358 16.6065 8.97358 16.5823C8.97358 16.5566 8.95677 16.545 8.93273 16.5542C8.9081 16.5636 8.88417 16.5458 8.87259 16.5094C8.86204 16.4762 8.84104 16.4565 8.82598 16.4659C8.80096 16.4813 8.63999 16.3727 8.495 16.2426C8.46313 16.2139 8.38809 16.1497 8.32826 16.0998C8.26844 16.0499 8.2195 15.9909 8.2195 15.9686C8.2195 15.9463 8.20628 15.9281 8.19013 15.9281C8.13058 15.9281 7.63232 15.3955 7.57342 15.2688C7.55673 15.233 7.53209 15.2036 7.51871 15.2036C7.50533 15.2036 7.49435 15.1852 7.49435 15.1626C7.49435 15.14 7.48266 15.1172 7.46835 15.1119C7.39581 15.0849 6.9143 14.1978 6.9143 14.091C6.9143 14.0673 6.90222 14.0405 6.88754 14.0314C6.84762 14.0067 6.73309 13.6448 6.75435 13.6104C6.76441 13.5941 6.76077 13.5808 6.74625 13.5808C6.7121 13.5808 6.62307 13.2486 6.57929 12.9577C6.57212 12.9099 6.55928 12.8317 6.5508 12.7839C6.49962 12.4951 6.48478 11.9506 6.51757 11.5667C6.5298 11.4233 6.54041 11.2733 6.54112 11.2334C6.54177 11.1936 6.55362 11.1473 6.56744 11.1307C6.58125 11.114 6.59191 11.0749 6.59115 11.0437C6.59039 11.0126 6.59795 10.9545 6.60795 10.9147C6.61791 10.8748 6.63873 10.7784 6.65418 10.7004C6.75909 10.1714 7.24522 9.12068 7.54938 8.76559C7.56771 8.74418 7.62987 8.66474 7.68746 8.58905C7.74506 8.51331 7.80346 8.45136 7.81728 8.45136C7.83109 8.45136 7.84267 8.43506 7.84295 8.41517C7.84327 8.39523 7.97053 8.25749 8.12574 8.10899C8.281 7.96054 8.44111 7.80731 8.48162 7.76851C8.52209 7.72966 8.56962 7.69793 8.58729 7.69793C8.60491 7.69793 8.62737 7.67701 8.63716 7.65141C8.64739 7.6249 8.6736 7.61207 8.69829 7.62153C8.72423 7.63147 8.74158 7.62153 8.74158 7.59659C8.74158 7.55002 8.83985 7.48704 8.86829 7.51541C8.87835 7.52546 8.88656 7.51057 8.88656 7.48226C8.88656 7.44852 8.90152 7.43662 8.93007 7.4476C8.95552 7.45732 8.97358 7.44798 8.97358 7.42505C8.97358 7.39179 9.04085 7.35425 9.12694 7.33957C9.13945 7.3374 9.15902 7.32132 9.17044 7.30377C9.19187 7.27073 9.32038 7.19357 9.35698 7.19178C9.3684 7.19123 9.40321 7.16901 9.43426 7.14244C9.46537 7.11587 9.49838 7.10174 9.50773 7.11103C9.51703 7.12032 9.5247 7.11201 9.5247 7.09245C9.5247 7.07294 9.53775 7.06501 9.55368 7.07484C9.56962 7.08468 9.58267 7.07816 9.58267 7.06034C9.58267 7.04251 9.59572 7.03599 9.61171 7.04588C9.62765 7.05572 9.6407 7.0492 9.6407 7.03138C9.6407 7.01355 9.65283 7.00649 9.66767 7.01567C9.68257 7.0248 9.70302 7.01888 9.71319 7.00241C9.72341 6.98595 9.74386 6.97997 9.75871 6.98916C9.77356 6.99834 9.78574 6.99291 9.78574 6.97709C9.78574 6.95117 9.85421 6.9189 9.9416 6.90352C9.95955 6.90037 10.0178 6.87478 10.0711 6.84658C10.1244 6.81837 10.1851 6.80191 10.2061 6.80995C10.227 6.81794 10.253 6.81566 10.2639 6.80479C10.2748 6.79392 10.2923 6.78441 10.303 6.7836C10.3136 6.78278 10.3859 6.75241 10.4636 6.71606C10.5414 6.67971 10.6621 6.64776 10.732 6.64504C10.8018 6.64238 10.8589 6.6295 10.8589 6.61646C10.8589 6.60342 10.8866 6.60157 10.9205 6.61233C10.9561 6.62358 10.9908 6.61782 11.0027 6.59869C11.014 6.58043 11.0939 6.55892 11.1803 6.55093C11.2668 6.54294 11.3958 6.52713 11.4671 6.51583C11.656 6.48583 12.3966 6.50072 12.7079 6.54071ZM11.787 7.296C11.7471 7.31203 11.6602 7.31713 11.5938 7.3073C11.5177 7.296 11.4657 7.30138 11.4531 7.32181C11.4402 7.34262 11.3912 7.34718 11.3163 7.33452C11.2424 7.32208 11.2061 7.32528 11.2172 7.34332C11.2274 7.35979 11.1712 7.38027 11.0839 7.39185C11.0008 7.40282 10.9162 7.42564 10.8959 7.44249C10.8689 7.46482 10.8586 7.46232 10.858 7.43341C10.8573 7.40472 10.8464 7.40766 10.8189 7.4439C10.7978 7.4715 10.7725 7.48596 10.7625 7.47596C10.7525 7.46596 10.7249 7.47384 10.7013 7.4934C10.6777 7.51302 10.6459 7.52128 10.6306 7.51188C10.6153 7.50242 10.5982 7.5084 10.5926 7.52513C10.5871 7.54187 10.55 7.55779 10.5104 7.56051C10.4708 7.56317 10.4203 7.58295 10.3983 7.60436C10.3763 7.62577 10.3413 7.63674 10.3204 7.62876C10.2996 7.62077 10.2782 7.62713 10.273 7.64288C10.2677 7.65864 10.2342 7.67369 10.1986 7.67641C10.1629 7.67907 10.1338 7.69228 10.1338 7.70581C10.1338 7.71928 10.1207 7.72227 10.1048 7.71238C10.0888 7.70254 10.0758 7.70673 10.0758 7.72167C10.0758 7.73661 10.0333 7.76596 9.98152 7.78693C9.92964 7.8079 9.88069 7.83295 9.87275 7.84268C9.8374 7.88577 9.63591 7.9926 9.62003 7.97673C9.61035 7.967 9.58403 7.98531 9.56157 8.01737C9.53911 8.04938 9.50855 8.06812 9.4937 8.05894C9.47885 8.04976 9.46667 8.05606 9.46667 8.07296C9.46667 8.0898 9.45547 8.10361 9.44171 8.10361C9.428 8.10361 9.36835 8.14925 9.30912 8.20505C9.24995 8.26086 9.19019 8.3065 9.17637 8.3065C9.16256 8.3065 9.11193 8.34236 9.0638 8.38616C8.88945 8.54504 8.53851 8.89279 8.53851 8.90676C8.53851 8.91464 8.47162 9.00103 8.38988 9.09884C8.12188 9.41932 7.7562 10.1165 7.68442 10.4437C7.67305 10.4955 7.65037 10.5379 7.63401 10.5379C7.61758 10.5379 7.61154 10.5571 7.62052 10.5804C7.62949 10.6039 7.62416 10.6308 7.60866 10.6404C7.59311 10.65 7.58832 10.6705 7.59789 10.6861C7.60752 10.7016 7.60301 10.7301 7.58783 10.7493C7.57266 10.7685 7.56021 10.8038 7.5601 10.8277C7.55999 10.8516 7.53867 10.9717 7.51262 11.0946C7.48663 11.2174 7.46536 11.3554 7.46536 11.4013C7.46536 11.4471 7.45742 11.4925 7.44774 11.5022C7.43806 11.5119 7.43083 11.6999 7.43164 11.92C7.433 12.2821 7.46096 12.5395 7.56331 13.1316C7.5688 13.1635 7.58125 13.2091 7.59093 13.233C7.60061 13.2569 7.63498 13.3743 7.6674 13.4938C7.7326 13.7346 7.88025 14.1162 7.97167 14.2802C8.13237 14.5686 8.23472 14.735 8.31037 14.8311C8.35611 14.8891 8.39352 14.9446 8.39352 14.9542C8.39352 14.9976 9.15837 15.7833 9.20057 15.7833C9.21749 15.7833 9.25191 15.8126 9.27704 15.8485C9.30222 15.8843 9.32897 15.9105 9.33653 15.9067C9.36193 15.8938 9.66968 16.1034 9.66968 16.1336C9.66968 16.15 9.68284 16.1553 9.69889 16.1454C9.72309 16.1304 9.87797 16.2167 9.93072 16.2745C9.93872 16.2832 9.9583 16.2911 9.97423 16.292C10.0464 16.296 10.1628 16.3428 10.1628 16.3677C10.1628 16.3828 10.1758 16.3872 10.1918 16.3773C10.2078 16.3675 10.2208 16.3704 10.2208 16.384C10.2208 16.3974 10.2456 16.4103 10.276 16.4126C10.3063 16.4149 10.3879 16.4426 10.4573 16.4741C10.5266 16.5057 10.6324 16.5407 10.6924 16.5519C10.7524 16.5631 10.8076 16.5821 10.815 16.5941C10.8224 16.6061 10.8634 16.6092 10.906 16.6011C10.9591 16.5909 10.9771 16.5966 10.9632 16.619C10.9491 16.6419 10.9696 16.6465 11.0314 16.6341C11.0919 16.622 11.1199 16.6278 11.1199 16.6522C11.1199 16.6775 11.1499 16.6824 11.2215 16.6691C11.2824 16.6576 11.3229 16.6616 11.3229 16.6789C11.3229 16.6966 11.3793 16.7012 11.468 16.6907C11.5672 16.6789 11.613 16.6839 11.613 16.7066C11.613 16.7519 12.3266 16.7527 12.3546 16.7074C12.3675 16.6864 12.4243 16.6817 12.5158 16.6938C12.6093 16.7062 12.6572 16.702 12.6572 16.6813C12.6572 16.6612 12.6936 16.6568 12.7587 16.6691C12.8302 16.6824 12.8602 16.6775 12.8602 16.6522C12.8602 16.6278 12.8882 16.622 12.9487 16.6341C12.9973 16.6438 13.0302 16.6406 13.0217 16.6269C13.0077 16.6042 13.2559 16.5559 13.2994 16.5729C13.3098 16.5769 13.3449 16.556 13.3775 16.5265C13.4102 16.497 13.4703 16.4709 13.5111 16.4686C13.5519 16.4662 13.5853 16.4531 13.5853 16.4394C13.5853 16.4258 13.6049 16.4221 13.6288 16.4313C13.6527 16.4405 13.6723 16.4345 13.6723 16.4182C13.6723 16.4018 13.6854 16.3964 13.7013 16.4063C13.7173 16.4162 13.7303 16.4104 13.7303 16.3935C13.7303 16.3766 13.7401 16.3655 13.7521 16.3688C13.764 16.3721 13.8156 16.3525 13.8667 16.3253C13.9177 16.2982 13.9797 16.2759 14.0044 16.2759C14.0292 16.2759 14.0494 16.2621 14.0494 16.2452C14.0494 16.2283 14.0613 16.2219 14.0759 16.2309C14.0905 16.2399 14.1068 16.2374 14.1122 16.2253C14.1231 16.2008 14.4453 15.9861 14.4712 15.9861C14.4804 15.9861 14.4785 16.0011 14.4672 16.0196C14.4543 16.0403 14.4592 16.0452 14.4799 16.0323C14.4984 16.021 14.5134 15.9957 14.5134 15.9762C14.5134 15.9566 14.5559 15.9158 14.6077 15.8855C14.6596 15.8551 14.7163 15.8112 14.7338 15.7879C14.7514 15.7645 14.7807 15.7547 14.7991 15.766C14.8186 15.7781 14.8325 15.7687 14.8325 15.7434C14.8325 15.6964 14.9885 15.572 15.0147 15.5982C15.0236 15.6071 15.0465 15.5838 15.0657 15.5466C15.1156 15.4496 15.2721 15.2906 15.3177 15.2906C15.339 15.2906 15.3658 15.2664 15.3773 15.2368C15.4121 15.1468 15.5988 14.9157 15.6374 14.9147C15.6573 14.9142 15.6736 14.8947 15.6736 14.8713C15.6736 14.8478 15.7307 14.7403 15.8004 14.6322C15.9784 14.3565 16.0886 14.1289 16.1978 13.8113C16.2497 13.6606 16.3017 13.5243 16.3135 13.5083C16.3253 13.4924 16.358 13.3587 16.3863 13.2113C16.4145 13.0639 16.4481 12.9432 16.461 12.9432C16.4738 12.9432 16.4765 12.9041 16.4669 12.8563C16.456 12.8018 16.4614 12.7694 16.4814 12.7694C16.5013 12.7694 16.5068 12.737 16.4961 12.6833C16.4866 12.636 16.4875 12.5749 16.498 12.5475C16.5274 12.4709 16.5327 11.4073 16.5037 11.4073C16.4897 11.4073 16.4856 11.3619 16.4945 11.3064C16.5036 11.2507 16.4977 11.1974 16.4815 11.1873C16.4653 11.1773 16.4599 11.1379 16.4695 11.0999C16.4802 11.0573 16.4742 11.0306 16.4539 11.0306C16.4344 11.0306 16.4267 11.001 16.4349 10.9581C16.4425 10.9183 16.4394 10.8857 16.428 10.8857C16.4167 10.8857 16.3848 10.7976 16.3572 10.69C16.3296 10.5825 16.2959 10.4683 16.2824 10.4365C16.0772 9.95334 15.9935 9.78234 15.8403 9.5331C15.6786 9.26995 15.3192 8.79857 15.1678 8.65105C15.1369 8.62095 15.1238 8.59622 15.1388 8.59617C15.1538 8.59612 15.1268 8.57215 15.0789 8.54292C15.0309 8.51374 14.941 8.44207 14.879 8.38366C14.8171 8.3253 14.7584 8.27743 14.7487 8.27738C14.7389 8.27727 14.6828 8.23304 14.624 8.17903C14.5651 8.12501 14.51 8.08779 14.5014 8.09638C14.4928 8.10491 14.4776 8.09056 14.4676 8.06448C14.4575 8.03835 14.4376 8.02427 14.4232 8.03318C14.4088 8.04204 14.3892 8.02895 14.3796 8.00401C14.37 7.97912 14.3376 7.95874 14.3076 7.95874C14.2775 7.95874 14.2374 7.93397 14.2185 7.90365C14.1995 7.87338 14.1668 7.85518 14.1457 7.86327C14.1247 7.87137 14.1074 7.86355 14.1074 7.84589C14.1074 7.82828 14.0911 7.81709 14.0711 7.82105C14.0512 7.82507 14.0385 7.81106 14.0429 7.78992C14.0472 7.76884 14.0383 7.75927 14.023 7.76873C13.9938 7.78677 13.7229 7.67032 13.7061 7.6325C13.7007 7.6205 13.683 7.61887 13.6666 7.62897C13.6502 7.63908 13.6268 7.63115 13.6145 7.61126C13.6022 7.59143 13.5496 7.57023 13.4976 7.5642C13.4455 7.55812 13.3852 7.5385 13.3636 7.52057C13.342 7.50264 13.3242 7.49764 13.3242 7.50954C13.3242 7.52144 13.3067 7.5166 13.2854 7.49884C13.2639 7.48112 13.2379 7.47509 13.2275 7.48547C13.2171 7.49585 13.1811 7.47944 13.1474 7.44901C13.1137 7.41853 13.081 7.3969 13.0747 7.40087C13.0684 7.40483 13.0534 7.40679 13.0415 7.40521C13.0154 7.40179 12.872 7.39 12.7787 7.3837C12.7412 7.38114 12.7198 7.36609 12.7301 7.34946C12.7421 7.33001 12.7079 7.32626 12.6303 7.33871C12.5576 7.35033 12.5121 7.34631 12.5121 7.32827C12.5121 7.28714 12.3715 7.26464 12.3585 7.30366C12.3508 7.32664 12.3095 7.32545 12.212 7.29942C12.0519 7.25671 11.8881 7.25541 11.787 7.296ZM11.5115 9.47871C11.5115 10.3505 11.5364 10.2759 11.2451 10.2767C11.0631 10.2772 10.953 10.3153 10.8661 10.4079C10.805 10.4731 10.7746 10.6247 10.8226 10.6249C10.8346 10.625 10.8697 10.6628 10.9006 10.7089C10.9315 10.755 10.974 10.7862 10.9949 10.7781C11.0158 10.7701 11.0329 10.7789 11.0329 10.7976C11.0329 10.8213 11.0971 10.8293 11.2437 10.8238C11.3596 10.8195 11.4692 10.8251 11.4872 10.8362C11.5155 10.8536 11.5188 11.6038 11.4906 11.5924C11.4287 11.5673 11.1446 11.5232 11.0447 11.5232C10.6736 11.5232 10.6699 11.9928 11.0405 12.0598C11.2941 12.1056 11.352 12.1274 11.352 12.1772C11.352 12.2001 11.3684 12.2188 11.3885 12.2188C11.4923 12.2188 11.5052 12.3267 11.5016 13.1682C11.4979 14.0403 11.4823 14.1405 11.3649 14.0431C11.3097 13.9974 11.1489 13.7605 11.1489 13.725C11.1489 13.7103 11.1098 13.678 11.0619 13.6533C11.014 13.6285 10.9749 13.5955 10.9749 13.5801C10.9749 13.5645 10.9517 13.5518 10.9233 13.5518C10.895 13.5518 10.8428 13.5315 10.8073 13.5066C10.7718 13.4818 10.7306 13.469 10.7158 13.4781C10.701 13.4873 10.6807 13.4815 10.6707 13.4654C10.6464 13.4262 10.4035 13.4274 10.3791 13.4668C10.3686 13.4839 10.3395 13.49 10.3145 13.4804C10.2894 13.4707 10.2602 13.477 10.2495 13.4943C10.2388 13.5116 10.2019 13.5278 10.1674 13.5304C10.133 13.5331 10.1048 13.5454 10.1048 13.5579C10.1048 13.5705 10.0917 13.5808 10.0757 13.5808C10 13.5808 9.64766 14.0707 9.69171 14.1147C9.70008 14.1231 9.69247 14.1474 9.6748 14.1687C9.65614 14.1912 9.64989 14.2525 9.65995 14.3144C9.69612 14.5371 9.43758 14.3607 9.26529 14.0451C9.19035 13.9077 9.15647 13.4821 9.22015 13.4779C9.5377 13.4567 9.6482 13.3357 9.59453 13.0677C9.56282 12.9091 9.25991 12.8574 9.129 12.9882C9.04901 13.0681 8.93861 13.037 8.8945 12.922C8.88461 12.8963 8.85317 12.8519 8.82468 12.8234C8.63602 12.6349 8.65179 11.8678 8.84588 11.7935C8.86829 11.7849 8.88656 11.7597 8.88656 11.7375C8.88656 11.7153 8.89913 11.6971 8.91441 11.6971C8.92974 11.6971 8.97216 11.6652 9.00865 11.6263C9.07843 11.5519 9.23462 11.4784 9.23462 11.5199C9.23462 11.5332 9.26893 11.5376 9.31081 11.5296C9.38488 11.5155 9.3864 11.5181 9.36742 11.6278C9.33974 11.7875 9.33218 12.0515 9.35383 12.1028C9.48326 12.4103 9.66158 12.6667 9.74658 12.6675C9.76915 12.6677 9.79846 12.6853 9.81168 12.7066C9.82489 12.7279 9.8473 12.7446 9.86149 12.7437C9.93138 12.7391 10.1021 12.7792 10.0908 12.7974C10.0838 12.8089 10.2155 12.8191 10.3836 12.8201C10.5517 12.8211 10.6833 12.8161 10.676 12.8089C10.6688 12.8016 10.7005 12.7582 10.7464 12.7123C10.8399 12.6189 10.851 12.5308 10.7858 12.4003C10.734 12.2965 10.7096 12.2883 10.4238 12.2794C10.0845 12.2689 9.82163 12.1038 9.88423 11.9408C9.89287 11.9183 9.88727 11.9 9.87183 11.9C9.85638 11.9 9.84371 11.8739 9.84371 11.842C9.84371 11.8101 9.85752 11.7841 9.87444 11.7841C9.89135 11.7841 9.89728 11.7713 9.8876 11.7556C9.86846 11.7247 9.92545 11.5003 9.96624 11.4461C9.98125 11.4262 9.97913 11.4048 9.96118 11.3937C9.94443 11.3834 9.93072 11.3491 9.93072 11.3177C9.93072 11.2289 9.75692 11.0735 9.66147 11.077C9.6171 11.0786 9.57392 11.0688 9.56554 11.0552C9.5446 11.0214 9.35812 11.024 9.33686 11.0584C9.3262 11.0756 9.29324 11.0763 9.2511 11.0603C9.21341 11.046 9.17757 11.0393 9.17148 11.0454C9.1116 11.1052 9.17909 10.5243 9.24511 10.4118C9.34839 10.2357 9.4633 10.1032 9.51273 10.1032C9.53525 10.1032 9.55368 10.0895 9.55368 10.0728C9.55368 10.0455 9.62688 10.0079 9.8002 9.94622C9.83213 9.93487 9.86144 9.92639 9.86541 9.92737C9.89891 9.93563 10.0177 9.78935 10.0177 9.73985C10.0177 9.63748 10.1869 9.34352 10.3099 9.23202C10.3725 9.17524 10.4238 9.11378 10.4238 9.09542C10.4238 9.077 10.4499 9.04804 10.4818 9.03097C10.5137 9.01391 10.5398 9.00869 10.5398 9.0194C10.5398 9.0301 10.574 9.00467 10.6158 8.96294C10.6577 8.92116 10.7025 8.89356 10.7156 8.90165C10.7286 8.90969 10.7508 8.89578 10.7648 8.87079C10.7788 8.84579 10.8188 8.82319 10.8536 8.82053C10.8884 8.81792 10.9169 8.80401 10.9169 8.78961C10.9169 8.77521 10.943 8.77021 10.9749 8.77858C11.0068 8.78689 11.0329 8.78037 11.0329 8.76407C11.0329 8.74777 11.059 8.74125 11.0909 8.74956C11.1228 8.75788 11.1562 8.75288 11.1651 8.73848C11.174 8.72402 11.2556 8.71218 11.3464 8.71223H11.5115V9.47871ZM12.7442 8.74043C12.7442 8.75614 12.7813 8.7613 12.8277 8.75201C12.8737 8.74283 12.9197 8.74907 12.9301 8.76597C12.9405 8.78282 12.9682 8.78928 12.9916 8.78026C13.0151 8.7713 13.0342 8.77798 13.0342 8.79515C13.0342 8.81227 13.053 8.81911 13.0759 8.81031C13.0989 8.80151 13.1404 8.8208 13.1681 8.85318C13.1959 8.88557 13.2291 8.90562 13.242 8.89769C13.31 8.85563 13.7884 9.27408 13.7884 9.37563C13.7884 9.39329 13.8 9.40769 13.8142 9.40769C13.855 9.40769 13.9372 9.63976 13.9179 9.70057C13.9082 9.73105 13.9142 9.75545 13.9314 9.75545C13.9484 9.75545 13.9624 9.78153 13.9624 9.81342C13.9624 9.84532 13.9776 9.8714 13.9961 9.8714C14.0522 9.8714 14.2524 9.96763 14.2524 9.99458C14.2524 10.0084 14.2637 10.0127 14.2775 10.0042C14.3154 9.98084 14.5661 10.1567 14.5865 10.221C14.5963 10.2518 14.6149 10.2771 14.6279 10.2771C14.6695 10.2771 14.7726 10.5554 14.792 10.7203C14.8151 10.9163 14.784 11.1558 14.7391 11.1281C14.7194 11.1159 14.7159 11.1221 14.7298 11.1445C14.742 11.1643 14.728 11.2338 14.6986 11.2989C14.6583 11.3882 14.654 11.4203 14.6813 11.4294C14.7012 11.436 14.7392 11.4631 14.7657 11.4896C14.7922 11.5161 14.8246 11.5393 14.8377 11.5413C14.8508 11.5433 14.8746 11.5466 14.8905 11.5486C14.9065 11.5506 14.9195 11.5725 14.9195 11.5974C14.9195 11.6222 14.9307 11.6356 14.9444 11.6272C14.9781 11.6064 15.1078 11.7556 15.201 11.9224C15.3108 12.1188 15.322 12.4566 15.2259 12.6667C15.1519 12.8283 15.0381 12.9563 15.0768 12.8343C15.0894 12.7947 15.0853 12.7694 15.0665 12.7694C15.0495 12.7694 15.0355 12.7448 15.0355 12.7149C15.0355 12.4978 14.5784 11.9527 14.4406 12.0055C14.4169 12.0146 14.3746 12.0123 14.3467 12.0003C14.2731 11.9688 13.9823 11.9615 13.9456 11.9902C13.9284 12.0037 13.8892 12.0196 13.8586 12.0254C13.7677 12.0429 13.6949 12.0803 13.6348 12.1402C13.589 12.1861 13.5738 12.1892 13.5533 12.157C13.5335 12.1256 13.5281 12.1277 13.5278 12.1669C13.527 12.2486 13.3335 12.2789 12.8687 12.2702L12.4396 12.2622L12.44 11.9966C12.4403 11.7424 12.5343 11.5261 12.6112 11.6028C12.6198 11.6114 12.6461 11.6024 12.6697 11.5828C12.6999 11.5578 12.8125 11.5501 13.0475 11.5569C13.2317 11.5623 13.3823 11.5554 13.3823 11.5416C13.3823 11.5278 13.4077 11.5231 13.4389 11.5313C13.4701 11.5394 13.4994 11.5376 13.5041 11.5274C13.5089 11.5172 13.5647 11.4827 13.6281 11.4508C13.8362 11.3462 14.0671 11.0616 14.0983 10.8712C14.1503 10.5534 14.1251 10.3506 14.0046 10.1177C13.8767 9.87064 13.6833 9.63955 13.6043 9.63955C13.5779 9.63955 13.5563 9.62575 13.5563 9.60885C13.5563 9.592 13.5438 9.58592 13.5285 9.59537C13.5132 9.60483 13.4758 9.597 13.4453 9.57798C13.4149 9.55902 13.3685 9.55168 13.3423 9.56174C13.3161 9.57179 13.2871 9.57934 13.2779 9.57847C13.239 9.57494 13.0922 9.77077 13.0922 9.82603C13.0922 9.89238 13.2713 10.0956 13.3834 10.1565C13.6143 10.282 13.6842 10.6492 13.5186 10.8662C13.4739 10.9247 13.4195 10.9726 13.3977 10.9726C13.3759 10.9726 13.3538 10.984 13.3484 10.9978C13.3345 11.0342 13.2082 11.0686 13.2082 11.0361C13.2082 11.0197 13.1331 11.0227 13.0208 11.0438C12.9177 11.0632 12.8231 11.0689 12.8105 11.0564C12.7979 11.0439 12.7094 11.0298 12.6137 11.0249L12.4397 11.0161L12.4395 10.7455C12.4393 10.4192 12.4339 10.4293 12.6137 10.4186C12.7652 10.4096 12.8304 10.3612 12.8726 10.2265C12.901 10.1361 12.8324 9.95834 12.769 9.95834C12.7413 9.95834 12.7097 9.94383 12.6987 9.92617C12.6874 9.90786 12.6389 9.90042 12.5863 9.909C12.4393 9.9328 12.4251 9.8808 12.4251 9.31929C12.4251 8.73951 12.4337 8.71218 12.6147 8.71218C12.6859 8.71218 12.7442 8.72489 12.7442 8.74043ZM10.4577 9.48566C10.4096 9.50485 10.1897 9.73996 10.1416 9.82375C9.90913 10.2279 9.88939 10.5322 10.0846 10.7013C10.1509 10.7587 10.2788 10.7848 10.2788 10.7409C10.2788 10.727 10.3016 10.7085 10.3296 10.6996C10.3919 10.6798 10.4428 10.5653 10.4649 10.3947C10.4818 10.2652 10.5865 10.0834 10.6976 9.99122C10.7305 9.96388 10.7725 9.91596 10.7909 9.88471C10.8094 9.85347 10.8355 9.83011 10.8489 9.83277C10.8624 9.83538 10.8734 9.78104 10.8734 9.71198C10.8734 9.64292 10.8683 9.59151 10.8621 9.59771C10.8559 9.6039 10.8125 9.57673 10.7656 9.53728C10.6844 9.46898 10.5542 9.44714 10.4577 9.48566ZM14.2831 12.5348C14.4246 12.5585 14.561 12.8348 14.5279 13.0308C14.5054 13.1634 14.5661 13.2989 14.6976 13.4103C14.8221 13.5155 14.7869 14.1024 14.6562 14.1024C14.6415 14.1024 14.6295 14.12 14.6295 14.1414C14.6295 14.1908 14.3722 14.427 14.34 14.4071C14.3269 14.399 14.307 14.3108 14.2959 14.2111C14.2646 13.9322 13.9193 13.3437 13.8357 13.4272C13.8283 13.4345 13.7918 13.4238 13.7546 13.4034C13.6428 13.3421 13.438 13.3035 13.3676 13.3305C13.3434 13.3398 13.3161 13.3467 13.3068 13.3458C13.2797 13.3434 13.1212 13.5304 13.1217 13.5642C13.1232 13.6654 13.2574 13.8275 13.3468 13.8362C13.3982 13.8412 13.4403 13.8583 13.4403 13.8741C13.4403 13.89 13.4531 13.8951 13.4687 13.8854C13.5074 13.8615 13.6201 13.9247 13.5991 13.9586C13.5899 13.9736 13.601 13.9787 13.6238 13.9699C13.7319 13.9285 13.8293 14.3397 13.7731 14.6002C13.7334 14.7845 13.4621 15.1457 13.3634 15.1457C13.3445 15.1457 13.3245 15.1594 13.3189 15.1763C13.3133 15.1931 13.2894 15.2097 13.2657 15.2133C13.2421 15.2169 13.2065 15.2299 13.1865 15.2424C13.1665 15.2548 13.1372 15.257 13.1212 15.2471C13.1053 15.2373 13.0922 15.2427 13.0922 15.2592C13.0922 15.277 13.057 15.2821 13.0052 15.2717C12.9498 15.2606 12.9182 15.2662 12.9182 15.2869C12.9182 15.3086 12.835 15.3195 12.6716 15.3195H12.4251V15.1033C12.4251 14.8251 12.4647 14.7807 12.7178 14.7755C12.9327 14.7711 13.0342 14.6886 13.0342 14.5183C13.0342 14.4115 12.9568 14.2486 12.9047 14.2456C12.8882 14.2447 12.7768 14.2414 12.6572 14.2384L12.4396 14.2328L12.4311 13.6967C12.4214 13.0841 12.4289 13.0185 12.5221 12.9022L12.5899 12.8175L13.0876 12.8245C13.4536 12.8295 13.5853 12.8223 13.5853 12.7972C13.5853 12.7785 13.6049 12.7707 13.6288 12.7798C13.6527 12.789 13.6723 12.7831 13.6723 12.7667C13.6723 12.7503 13.684 12.7442 13.6983 12.753C13.7125 12.7618 13.7317 12.7495 13.7409 12.7257C13.75 12.7019 13.7775 12.6824 13.802 12.6824C13.8264 12.6824 13.8463 12.6659 13.8463 12.6457C13.8463 12.5585 14.0762 12.5001 14.2831 12.5348ZM10.6849 14.062C10.6849 14.0843 10.702 14.1024 10.723 14.1024C10.744 14.1024 10.7901 14.1721 10.8254 14.2573C10.9358 14.5233 11.0584 14.6214 11.2565 14.6024C11.5102 14.5781 11.526 14.6007 11.526 14.9873V15.3195H11.3102C11.1868 15.3195 11.086 15.3061 11.075 15.2882C11.0643 15.271 11.0244 15.2647 10.9863 15.2743C10.945 15.2847 10.9169 15.279 10.9169 15.2602C10.9169 15.2419 10.8926 15.2364 10.8589 15.2471C10.8243 15.2581 10.8009 15.2523 10.8009 15.2329C10.8009 15.2149 10.7888 15.2077 10.774 15.2168C10.7335 15.2418 10.5978 15.171 10.5978 15.1249C10.5978 15.1025 10.5846 15.0925 10.5685 15.1024C10.5362 15.1224 10.2788 14.8795 10.2788 14.8292C10.2788 14.812 10.2664 14.7979 10.2512 14.7979C10.1815 14.7979 10.1377 14.433 10.1906 14.2938C10.2735 14.076 10.6849 13.8831 10.6849 14.062ZM5.63085 17.0862C5.58696 17.1 5.55107 17.1049 5.55107 17.0972C5.55107 17.0895 5.5167 17.1102 5.47466 17.1432C5.43262 17.1762 5.38563 17.2032 5.37024 17.2032C5.32244 17.2032 5.18838 17.3648 5.11431 17.5119C5.07538 17.5892 5.03698 17.659 5.02899 17.6669C5.02099 17.6749 5.01447 17.7597 5.01447 17.8553C5.01447 17.9509 5.02099 18.0357 5.02899 18.0437C5.03698 18.0516 5.06695 18.1088 5.09566 18.1708C5.16581 18.3222 5.3505 18.5342 5.41331 18.5354C5.44121 18.5359 5.46416 18.5461 5.46427 18.558C5.46525 18.6534 5.94529 18.6726 6.08038 18.5827C6.12427 18.5535 6.16038 18.5409 6.1606 18.5547C6.16087 18.5685 6.17196 18.5626 6.18529 18.5416C6.19856 18.5206 6.23037 18.5004 6.25588 18.4967C6.34534 18.4835 6.4969 18.2313 6.56385 17.9841C6.61742 17.7862 6.39803 17.2032 6.27002 17.2032C6.2568 17.2032 6.19736 17.1736 6.13781 17.1373C6.02072 17.0659 5.77415 17.041 5.63085 17.0862Z" fill="#1C1C1C"/>
</svg>
