<svg width="192" height="192" viewBox="0 0 192 192" fill="none" xmlns="http://www.w3.org/2000/svg">
<path fill-rule="evenodd" clip-rule="evenodd" d="M88.1071 0.435804C88.2421 0.654146 88.1183 0.859073 87.8319 0.891117C86.6892 1.0178 84.0736 1.20782 83.1346 1.23241C82.5879 1.24657 81.7086 1.47609 81.1805 1.74138C80.4258 2.12143 80.1856 2.11994 80.0566 1.73766C79.9343 1.374 79.6546 1.40754 78.9483 1.8703C78.3971 2.23097 77.6625 2.38075 77.1874 2.23022C76.7078 2.0782 76.3729 2.14974 76.3729 2.40385C76.3729 2.66616 75.9821 2.7377 75.378 2.58643C74.7261 2.42249 74.3838 2.50296 74.3838 2.81967C74.3838 3.0857 74.1369 3.20866 73.8356 3.09241C73.5343 2.97691 73.1316 3.02833 72.9406 3.20643C72.7497 3.38453 71.6921 3.71837 70.5905 3.94789C69.4882 4.17741 68.0562 4.58279 67.4081 4.84883C66.7599 5.11486 66.0059 5.29594 65.7322 5.25123C65.4585 5.20652 65.2347 5.35705 65.2347 5.58508C65.2347 5.81311 64.6977 6.00015 64.0414 6.00015C63.385 6.00015 62.8481 6.19763 62.8481 6.43981C62.8481 6.682 62.5796 6.77664 62.2514 6.6507C61.9232 6.52551 61.6547 6.60599 61.6547 6.83104C61.6547 7.05534 61.4742 7.12762 61.2542 6.99125C61.0335 6.85563 60.5651 7.0315 60.2138 7.38323C59.8618 7.73496 59.3725 7.95554 59.1264 7.87357C58.8802 7.79159 58.4305 7.97268 58.127 8.27597C57.8234 8.57926 57.3289 8.73352 57.0291 8.61876C56.7293 8.50325 56.4839 8.57926 56.4839 8.78717C56.4839 8.99433 56.0364 9.27676 55.4897 9.41387C54.9423 9.55099 54.4948 9.84162 54.4948 10.06C54.4948 10.2783 54.2464 10.361 53.9421 10.2448C53.6378 10.1278 53.0493 10.3327 52.6339 10.6993C52.2185 11.0652 51.6189 11.4244 51.3011 11.4967C50.9834 11.569 50.6321 11.7679 50.521 11.9401C50.4099 12.1115 49.5126 12.654 48.5281 13.1458C47.5436 13.6376 46.146 14.4834 45.421 15.0267C44.6968 15.5692 43.8816 16.0461 43.6094 16.0856C43.3372 16.1258 42.6875 16.5558 42.1662 17.0409C41.6449 17.526 41.0266 17.9232 40.7924 17.9232C40.5582 17.9232 40.1383 18.2876 39.8601 18.7332C39.5812 19.1789 39.1896 19.4419 38.989 19.3182C38.7883 19.1945 38.4296 19.4561 38.1924 19.8987C37.9545 20.3421 37.5973 20.705 37.3974 20.705C37.1975 20.705 36.5546 21.1492 35.9691 21.6909C35.3829 22.2334 34.7474 22.5807 34.5565 22.4629C34.3648 22.3444 34.2082 22.5173 34.2082 22.8474C34.2082 23.1768 33.537 23.9466 32.7166 24.5577C31.8961 25.1687 31.0974 25.8483 30.9415 26.0682C30.7849 26.288 30.5164 26.475 30.3448 26.484C29.8809 26.5086 27.0482 29.1406 27.0482 29.5467C27.0482 29.7397 26.556 30.4357 25.9549 31.0937C25.353 31.7525 24.4751 32.716 24.0038 33.2347C17.0079 40.9355 8.88282 55.2596 5.58029 65.7146C5.32074 66.5343 4.96051 67.205 4.77927 67.205C4.59804 67.205 4.54359 67.5627 4.6577 68.0001C4.77853 68.4621 4.66963 68.7945 4.39815 68.7945C4.14084 68.7945 4.01927 68.9383 4.12816 69.1142C4.32805 69.4376 3.76867 72.469 3.30701 73.5637C3.16903 73.8916 3.09071 74.3134 3.13248 74.4997C3.17499 74.6867 3.00942 75.0817 2.76404 75.3768C2.51866 75.6719 2.43364 76.1003 2.5746 76.3284C2.71556 76.5564 2.69095 76.967 2.51867 77.2405C2.34712 77.5132 2.15321 78.5416 2.08757 79.5252C2.02194 80.5089 1.79297 81.9397 1.57817 82.705C1.36337 83.4703 1.07175 85.9294 0.93079 88.1695C0.789828 90.4103 0.522823 92.2434 0.337112 92.2434C0.1514 92.2434 0 92.4327 0 92.6645C0 92.8955 0.178997 92.9745 0.397525 92.8396C0.616053 92.7047 0.79505 92.7837 0.79505 93.0147C0.79505 93.2465 0.616053 93.4357 0.397525 93.4357C0.170047 93.4357 0 94.628 0 96.2175C0 97.7482 0.141705 99.0001 0.315483 99.0001C0.489261 99.0001 0.674974 100.176 0.727928 101.614C0.823394 104.181 1.24106 107.585 1.94363 111.519C2.13904 112.612 2.21362 113.648 2.1092 113.822C2.00553 113.996 2.13456 114.395 2.39635 114.711C2.65888 115.026 2.7715 115.549 2.64695 115.873C2.52314 116.197 2.59698 116.57 2.81177 116.703C3.02732 116.835 3.16977 117.154 3.1295 117.412C3.08922 117.668 3.1653 118.146 3.2988 118.474C3.84922 119.83 4.39591 122.492 4.19156 122.821C4.07148 123.016 4.17664 123.243 4.42575 123.326C4.67486 123.41 4.9001 124.033 4.92545 124.712C4.95081 125.392 5.08357 125.878 5.22081 125.795C5.35729 125.711 5.70186 126.489 5.98602 127.523C6.27018 128.557 6.72141 129.762 6.98916 130.198C7.25617 130.636 7.60746 131.441 7.7693 131.987C9.38552 137.443 15.3469 147.47 22.7664 157.215C23.8367 158.62 33.6362 168.319 35.4262 169.743C36.1123 170.29 36.9648 171.05 37.3198 171.433C37.6748 171.815 38.1745 172.128 38.4311 172.128C38.6869 172.128 38.9994 172.396 39.1255 172.724C39.2515 173.052 39.5856 173.32 39.8683 173.32C40.151 173.32 40.9132 173.812 41.5621 174.413C42.211 175.014 42.8658 175.506 43.0172 175.506C43.1693 175.506 43.7556 175.908 44.3202 176.398C44.884 176.888 45.3516 177.157 45.3591 176.994C45.3658 176.832 45.6343 177.046 45.9558 177.47C46.2765 177.894 46.5398 178.113 46.5398 177.957C46.5398 177.452 48.8212 178.833 49.0741 179.491C49.2083 179.841 49.4932 180.019 49.7073 179.887C50.0645 179.666 52.4415 180.661 52.9039 181.225C53.1359 181.508 56.8978 183.431 57.3625 183.505C57.5355 183.532 57.933 183.576 58.2455 183.604C58.558 183.632 59.0936 183.933 59.4359 184.275C59.7782 184.617 60.2384 184.785 60.4584 184.649C60.6792 184.513 60.8597 184.621 60.8597 184.889C60.8597 185.157 60.9775 185.258 61.1215 185.114C61.2654 184.971 61.5787 185.005 61.8173 185.191C62.056 185.377 62.8667 185.646 63.6178 185.788C64.3688 185.931 65.3279 186.358 65.7478 186.738C66.1677 187.118 66.5377 187.366 66.5698 187.29C66.6898 187.001 71.5996 188.144 71.5996 188.462C71.5996 188.645 71.8629 188.694 72.1858 188.571C72.508 188.447 73.0711 188.644 73.4366 189.01C73.9728 189.545 74.166 189.572 74.4353 189.147C74.6941 188.74 74.7709 188.735 74.7754 189.126C74.7798 189.459 75.105 189.549 75.7323 189.392C76.2558 189.261 76.7928 189.33 76.9263 189.545C77.0598 189.761 77.5275 189.844 77.966 189.729C78.4046 189.615 79.0229 189.736 79.3391 189.998C79.6568 190.261 80.2878 190.357 80.748 190.212C81.2074 190.065 81.8391 190.16 82.1546 190.422C82.4701 190.683 83.1637 190.787 83.7022 190.652C84.2399 190.516 84.7963 190.599 84.9425 190.836C85.0887 191.072 85.8599 191.226 86.6572 191.18C88.9894 191.042 89.9612 191.177 89.6979 191.602C89.548 191.845 90.1506 192 91.2425 192C92.227 192 93.1429 191.821 93.2779 191.602C93.4136 191.384 94.8561 191.205 96.4835 191.205C98.1922 191.205 99.4437 191.373 99.4437 191.602C99.4437 192.103 102.91 192.131 103.09 191.632C103.282 191.099 105.41 190.633 105.41 191.124C105.41 191.566 106.927 191.303 107.66 190.733C107.912 190.536 108.564 190.487 109.107 190.624C109.674 190.766 110.215 190.681 110.372 190.426C110.524 190.181 111 190.092 111.429 190.228C111.859 190.364 112.468 190.262 112.783 190.001C113.106 189.734 113.792 189.636 114.355 189.777C114.983 189.934 115.354 189.86 115.354 189.577C115.354 189.309 115.761 189.203 116.349 189.315C116.896 189.419 117.344 189.339 117.344 189.135C117.344 188.933 117.702 188.88 118.139 189.019C118.626 189.173 118.934 189.091 118.934 188.805C118.934 188.532 119.211 188.444 119.599 188.592C119.964 188.732 120.384 188.652 120.532 188.413C120.68 188.173 121.455 187.943 122.253 187.902C123.051 187.86 123.705 187.685 123.706 187.511C123.707 187.337 123.931 187.232 124.205 187.277C124.479 187.322 125.24 187.121 125.896 186.833C126.552 186.544 127.224 186.337 127.388 186.372C127.552 186.407 127.686 186.237 127.686 185.996C127.686 185.754 127.949 185.656 128.27 185.78C128.591 185.903 128.961 185.83 129.093 185.617C129.224 185.404 129.498 185.334 129.702 185.459C129.906 185.585 130.073 185.488 130.073 185.243C130.073 184.999 130.253 184.91 130.473 185.047C130.694 185.183 131.165 185.004 131.519 184.649C131.874 184.295 132.397 184.095 132.684 184.205C132.969 184.314 133.26 184.275 133.328 184.116C133.397 183.958 134.796 183.234 136.437 182.507C138.078 181.78 139.51 181.049 139.619 180.883C139.88 180.488 143.199 178.807 143.199 179.071C143.199 179.183 143.562 178.963 144.008 178.582C144.452 178.202 144.944 177.891 145.101 177.89C145.258 177.889 146.051 177.382 146.861 176.762C147.672 176.143 148.502 175.739 148.706 175.865C148.909 175.99 149.157 175.782 149.257 175.402C149.356 175.022 149.959 174.449 150.595 174.127C151.231 173.806 152.075 173.221 152.471 172.827C152.867 172.433 153.359 172.214 153.565 172.341C153.771 172.469 153.939 172.293 153.939 171.953C153.939 171.612 154.093 171.333 154.281 171.333C154.469 171.333 155.436 170.617 156.43 169.743C157.424 168.869 158.319 168.154 158.418 168.154C158.688 168.154 167.463 159.314 167.463 159.042C167.463 158.912 168.358 157.843 169.452 156.668C170.546 155.491 171.441 154.388 171.441 154.216C171.441 154.044 171.667 153.667 171.943 153.377C172.219 153.088 173.24 151.622 174.212 150.117C175.183 148.613 176.166 147.173 176.395 146.917C177.42 145.771 181.849 136.996 183.771 132.303C184.282 131.055 184.877 130.144 185.093 130.277C185.31 130.411 185.362 130.319 185.207 130.069C184.866 129.518 185.747 126.423 186.246 126.423C186.442 126.423 186.493 126.244 186.357 126.025C186.222 125.807 186.249 125.407 186.415 125.138C186.581 124.869 186.74 124.377 186.768 124.045C186.864 122.872 187.859 119.064 188.174 118.663C188.35 118.439 188.582 117.545 188.691 116.676C189.104 113.364 189.45 111.738 189.705 111.896C189.851 111.986 189.899 111.446 189.811 110.697C189.711 109.839 189.822 109.333 190.111 109.333C190.419 109.333 190.486 108.883 190.314 107.968C190.173 107.217 190.205 106.368 190.385 106.08C191.169 104.828 191.149 86.7536 190.362 84.989C190.191 84.606 190.163 83.8459 190.3 83.3004C190.456 82.6811 190.38 82.3078 190.101 82.3078C189.822 82.3078 189.714 81.7802 189.814 80.9165C189.904 80.1512 189.854 79.5252 189.703 79.5252C189.418 79.5252 189.022 77.7599 188.689 75.0027C188.581 74.1129 188.347 73.2015 188.168 72.9772C187.989 72.7537 187.71 71.9444 187.549 71.1791C186.514 66.2549 182.244 55.3542 179.345 50.2385C177.437 46.8709 173.854 41.0719 173.231 40.3446C173.012 40.0882 172.565 39.4749 172.237 38.9801C171.453 37.799 169.922 35.8987 168.561 34.4165C167.959 33.7608 167.466 33.1184 167.465 32.9895C167.463 32.6877 158.264 23.4898 157.952 23.4779C157.823 23.4727 157.027 22.8467 156.182 22.0866C155.338 21.3265 154.508 20.705 154.339 20.705C154.17 20.705 153.938 20.3466 153.824 19.9084C153.702 19.4449 153.39 19.1982 153.076 19.3182C152.78 19.4322 151.947 18.9851 151.225 18.3264C150.503 17.6676 149.744 17.1281 149.539 17.1281C149.334 17.1281 149.166 16.9493 149.166 16.7309C149.166 16.5118 148.903 16.333 148.583 16.333C148.262 16.333 147.389 15.7964 146.64 15.1407C145.893 14.4849 145.082 13.9484 144.837 13.9484C144.592 13.9484 144.393 13.7591 144.393 13.5281C144.393 13.2963 144.214 13.2173 143.994 13.3522C143.776 13.4878 143.597 13.3984 143.597 13.154C143.597 12.9096 143.416 12.8209 143.196 12.9565C142.975 13.0929 142.688 12.9252 142.558 12.5854C142.427 12.2449 142.16 12.0653 141.964 12.186C141.768 12.3067 141.608 12.2359 141.608 12.028C141.608 11.8201 141.16 11.5377 140.613 11.4006C140.067 11.2634 139.619 10.9654 139.619 10.7381C139.619 10.5108 139.44 10.4355 139.221 10.5704C139.002 10.7053 138.823 10.6189 138.823 10.3774C138.823 10.1367 138.6 9.98544 138.326 10.0421C137.758 10.1598 134.448 8.7514 134.448 8.39296C134.448 8.26255 134.048 8.12619 133.559 8.08967C133.07 8.05241 132.607 7.83482 132.53 7.60455C132.454 7.37503 132.215 7.29604 132.001 7.42794C131.786 7.56059 131.38 7.35416 131.098 6.9689C130.789 6.54638 130.325 6.36753 129.931 6.51881C129.571 6.65667 129.277 6.60227 129.277 6.39734C129.277 6.19241 129.008 6.12758 128.68 6.25352C128.352 6.37945 128.084 6.27363 128.084 6.01878C128.084 5.76392 127.919 5.65662 127.719 5.78032C127.519 5.90402 126.848 5.79597 126.227 5.53962C125.607 5.28253 124.959 5.05823 124.788 5.0396C124.615 5.02097 124.347 4.82722 124.191 4.60888C124.034 4.39054 123.728 4.20722 123.509 4.202C122.033 4.16698 119.333 3.4978 119.333 3.16693C119.333 2.9471 118.975 2.88004 118.537 3.01939C118.047 3.17439 117.741 3.09093 117.741 2.80105C117.741 2.52607 117.411 2.41652 116.946 2.53799C116.508 2.65275 116.15 2.5909 116.15 2.40162C116.15 2.21234 115.569 2.05883 114.858 2.06107C112.091 2.06852 111.641 2.01188 111.139 1.59532C110.853 1.3591 110.244 1.28383 109.786 1.42915C109.327 1.5752 108.695 1.48057 108.379 1.21826C108.021 0.921672 107.279 0.841933 106.404 1.00588C105.335 1.20633 104.946 1.12287 104.766 0.6534C104.522 0.0184968 101.035 -0.276602 101.035 0.337436C101.035 0.502124 98.8865 0.645947 96.2612 0.656379C93.6359 0.667557 91.4879 0.532677 91.4879 0.357557C91.4879 0.181691 90.672 0.0386193 89.6748 0.0386193C88.5672 0.0386193 87.9572 0.192872 88.1071 0.435804ZM178.63 4.30856C177.365 4.53808 175.843 5.53664 174.687 6.89438C174.176 7.49501 173.505 7.98683 173.196 7.98683C172.887 7.98683 172.634 8.33409 172.634 8.75885C172.634 9.18286 172.469 9.63222 172.267 9.75667C172.065 9.88111 171.782 10.5175 171.639 11.171C171.495 11.8246 171.258 12.3596 171.111 12.3596C170.964 12.3604 170.844 13.5229 170.844 14.9432C170.844 16.3635 170.943 17.526 171.063 17.526C171.183 17.5253 171.509 18.1565 171.789 18.9277C172.237 20.167 176.214 24.9072 176.214 24.2029C176.214 24.0509 177.227 24.2752 178.464 24.7007C181.285 25.6702 182.255 25.6695 184.931 24.6925C186.108 24.2618 187.224 24.004 187.411 24.1195C187.597 24.235 187.75 24.1337 187.75 23.8959C187.75 23.6575 188.369 22.9197 189.126 22.255C189.883 21.5911 190.725 20.4345 190.996 19.6841C191.267 18.9344 191.61 18.3204 191.757 18.3204C191.904 18.3204 192.012 16.8002 191.999 14.9425C191.985 13.0839 191.865 11.5638 191.732 11.5638C191.598 11.5638 191.257 10.9199 190.972 10.133C190.687 9.34532 190.159 8.39073 189.798 8.01142C189.437 7.63138 188.935 6.97933 188.682 6.56128C188.429 6.14323 188.008 5.85186 187.746 5.91445C187.484 5.9763 186.976 5.70804 186.615 5.3183C185.694 4.32049 181.489 3.78842 178.63 4.30856ZM105.709 21.1298C107.732 21.3898 109.388 21.7774 109.388 21.9912C109.388 22.2051 109.673 22.2707 110.02 22.1373C110.369 22.0039 110.836 22.0076 111.059 22.1455C111.283 22.2833 112.203 22.451 113.103 22.5181C114.004 22.5851 114.798 22.8117 114.868 23.0218C114.938 23.2312 115.345 23.3117 115.771 23.1999C116.229 23.0799 116.548 23.1969 116.548 23.4831C116.548 23.7521 116.815 23.8676 117.144 23.7409C117.473 23.615 117.741 23.6746 117.741 23.8728C117.741 24.071 118.541 24.3527 119.518 24.4995C120.496 24.6456 121.501 25.013 121.751 25.314C122.002 25.6158 122.366 25.7649 122.56 25.6449C122.754 25.5257 122.913 25.6464 122.913 25.9147C122.913 26.1822 123.017 26.2969 123.145 26.1688C123.462 25.8521 125.697 26.6584 125.697 27.0906C125.697 27.2806 125.942 27.3424 126.242 27.2277C126.542 27.1122 127.079 27.3097 127.435 27.6659C127.792 28.0221 128.084 28.1994 128.084 28.0608C128.084 27.9215 128.8 28.2098 129.674 28.7017C130.55 29.1928 131.266 29.7353 131.266 29.9066C131.266 30.078 131.501 30.128 131.789 30.0177C132.077 29.9074 132.837 30.3113 133.48 30.9149C134.122 31.5185 134.803 31.9649 134.993 31.9067C135.436 31.7719 139.619 34.6394 139.619 35.079C139.619 35.2609 139.893 35.4099 140.228 35.4099C140.563 35.4099 140.94 35.6782 141.066 36.006C141.192 36.3339 141.532 36.6022 141.822 36.6022C142.113 36.6022 143.531 37.7647 144.974 39.1858C146.417 40.6069 147.751 41.7694 147.938 41.7694C148.125 41.7694 148.549 42.1718 148.88 42.6636C149.211 43.1554 150.411 44.5415 151.549 45.7435C154.817 49.1997 154.915 49.3196 157.691 53.2632C162.09 59.5131 168.291 73.1248 168.345 76.651C168.352 77.1473 168.518 77.6511 168.713 77.7718C168.908 77.8918 168.959 78.1653 168.827 78.3784C168.696 78.5908 168.762 78.9813 168.974 79.2451C169.69 80.1311 170.357 85.2409 170.306 89.4378C170.29 90.8454 170.45 92.2062 170.662 92.4618C171.133 93.0289 171.097 99.0329 170.619 99.6193C170.43 99.8511 170.291 101.192 170.308 102.6C170.357 106.574 170.296 107.741 170.013 108.198C169.87 108.43 169.689 109.428 169.611 110.416C169.533 111.404 169.319 112.414 169.135 112.66C168.951 112.907 168.771 113.585 168.736 114.166C168.367 120.206 159.379 137.914 153.235 144.709C148.298 150.169 146.241 152.216 145.901 152.007C145.699 151.881 145.44 152.11 145.328 152.515C145.11 153.299 141.577 156.231 140.849 156.231C140.61 156.231 140.414 156.387 140.414 156.578C140.414 157.303 132.806 162.06 131.962 161.864C131.798 161.826 131.663 161.945 131.663 162.128C131.663 162.494 129.656 163.565 129.178 163.454C129.014 163.416 128.879 163.574 128.879 163.805C128.879 164.037 128.7 164.116 128.481 163.981C128.263 163.845 128.084 163.935 128.084 164.179C128.084 164.423 127.905 164.513 127.686 164.378C127.467 164.243 127.288 164.341 127.288 164.596C127.288 164.85 127.019 164.956 126.691 164.83C126.363 164.704 126.094 164.748 126.094 164.926C126.094 165.245 123.331 166.535 122.071 166.803C121.719 166.878 120.913 167.153 120.281 167.414C119.65 167.675 119.014 167.903 118.868 167.921C118.723 167.94 118.481 168.076 118.333 168.225C118.183 168.374 117.81 168.4 117.504 168.283C117.197 168.165 116.946 168.287 116.946 168.555C116.946 168.845 116.625 168.958 116.15 168.833C115.712 168.719 115.354 168.8 115.354 169.012C115.354 169.225 114.996 169.286 114.559 169.147C114.097 169 113.764 169.076 113.764 169.327C113.764 169.589 113.373 169.661 112.769 169.509C112.117 169.345 111.774 169.426 111.774 169.743C111.774 170.009 111.528 170.132 111.226 170.015C110.925 169.9 110.522 169.96 110.331 170.149C109.463 171.008 95.3722 171.67 88.9029 171.156C85.3967 170.878 82.7147 170.426 82.4992 170.078C82.3746 169.876 81.9294 169.82 81.5102 169.953C81.0649 170.094 80.748 170.007 80.748 169.743C80.748 169.48 80.4317 169.393 79.9865 169.534C79.5673 169.667 79.1191 169.606 78.9915 169.399C78.8633 169.193 78.4008 169.117 77.963 169.231C77.4991 169.352 77.168 169.243 77.168 168.968C77.168 168.685 76.8644 168.594 76.4065 168.739C75.9873 168.872 75.5339 168.802 75.3989 168.585C75.2639 168.367 74.891 168.289 74.5703 168.412C74.2488 168.535 73.9863 168.419 73.9863 168.154C73.9863 167.888 73.7178 167.774 73.3896 167.9C73.0614 168.026 72.7929 167.936 72.7929 167.702C72.7929 167.466 72.5297 167.374 72.209 167.497C71.8875 167.621 71.5191 167.55 71.39 167.342C71.2603 167.132 70.7904 166.962 70.3444 166.962C69.8991 166.962 69.0392 166.609 68.4336 166.178C67.828 165.748 67.2186 165.509 67.0792 165.649C66.9404 165.788 66.8263 165.682 66.8263 165.415C66.8263 165.146 66.651 165.035 66.4362 165.168C66.0014 165.436 64.3942 164.694 63.9586 164.024C63.8042 163.786 63.4462 163.571 63.1635 163.548C62.8809 163.525 62.3491 163.479 61.9814 163.445C61.6145 163.411 61.0006 163.072 60.618 162.689C60.2354 162.306 59.7805 161.993 59.6082 161.993C59.4351 161.993 58.9623 161.725 58.5566 161.397C58.1516 161.069 57.5639 160.747 57.2514 160.68C56.9389 160.613 56.4488 160.256 56.1632 159.885C55.8775 159.514 55.3853 159.264 55.0698 159.328C54.7536 159.393 54.4948 159.174 54.4948 158.843C54.4948 158.49 54.2643 158.331 53.9346 158.457C53.5968 158.587 53.2686 158.343 53.1098 157.843C52.9651 157.387 52.6772 157.118 52.4706 157.247C52.1275 157.458 49.9199 155.969 47.9315 154.184C47.4944 153.791 46.4652 152.91 45.6448 152.225C44.8244 151.541 44.1531 150.732 44.1531 150.427C44.1531 150.121 43.9719 149.871 43.7503 149.871C42.9337 149.871 36.1004 142.567 35.2926 140.83C35.0637 140.338 34.7258 139.936 34.5423 139.936C34.3589 139.936 34.2082 139.682 34.2082 139.372C34.2082 139.063 34.0479 138.75 33.8517 138.677C32.8568 138.307 26.2532 126.141 26.2532 124.676C26.2532 124.352 26.0876 123.983 25.8862 123.859C25.3388 123.521 23.7681 118.557 24.0597 118.086C24.1977 117.862 24.1477 117.679 23.9486 117.679C23.4802 117.679 22.2593 113.124 21.6589 109.135C21.5604 108.479 21.3844 107.406 21.2681 106.75C20.5662 102.789 20.3626 95.3226 20.8124 90.0578C20.9802 88.0905 21.1256 86.0337 21.1353 85.4868C21.1443 84.9405 21.3069 84.3064 21.4963 84.0776C21.6857 83.8488 21.8319 83.3123 21.8215 82.8853C21.811 82.4583 21.9147 81.6617 22.0519 81.1155C22.1884 80.5685 22.4741 79.2465 22.6859 78.1772C24.1246 70.922 30.7916 56.5122 34.963 51.6424C35.2143 51.3488 36.0668 50.2593 36.8567 49.2213C37.6465 48.1825 38.4475 47.333 38.6369 47.333C38.8264 47.333 38.9852 47.1094 38.989 46.8367C38.9934 46.5632 40.7387 44.6741 42.8673 42.6375C44.9966 40.6016 47.1924 38.5002 47.748 37.9681C48.3029 37.4353 48.9547 37.0001 49.1971 37.0001C49.4388 37.0001 49.7468 36.7132 49.8811 36.3622C50.0213 35.9986 50.3808 35.8227 50.7194 35.9524C51.0751 36.0888 51.3131 35.9524 51.3131 35.6103C51.3131 34.9717 52.6608 34.108 53.0508 34.497C53.1888 34.6349 53.3014 34.4307 53.3014 34.0425C53.3014 33.5797 53.5065 33.4165 53.8981 33.567C54.2472 33.7004 54.4948 33.5722 54.4948 33.2578C54.4948 32.8017 55.4174 32.2868 56.598 32.0856C56.7695 32.0558 57.038 31.8352 57.1947 31.5945C57.4885 31.1414 59.2509 30.0833 59.7529 30.0587C59.9095 30.0512 60.3868 29.7464 60.8127 29.382C61.2393 29.0176 61.692 28.8239 61.8203 28.9513C61.9478 29.0787 62.053 28.9647 62.053 28.6965C62.053 28.4289 62.232 28.3201 62.4505 28.455C62.6691 28.5899 62.8481 28.5005 62.8481 28.256C62.8481 28.0116 63.0271 27.9222 63.2463 28.0578C63.4649 28.1927 63.6439 28.1033 63.6439 27.8589C63.6439 27.6144 63.8102 27.5176 64.0138 27.6435C64.2182 27.7687 64.4986 27.6875 64.638 27.4617C64.7783 27.2359 65.0587 27.1539 65.2623 27.2799C65.4659 27.4058 65.633 27.3313 65.633 27.1144C65.633 26.759 66.572 26.3163 67.7705 26.1054C68.0167 26.0622 68.8162 25.7112 69.5471 25.3245C70.278 24.9377 71.1104 24.7119 71.3975 24.8222C71.6846 24.9317 72.0412 24.9004 72.1903 24.7514C72.3395 24.6024 72.5804 24.472 72.7266 24.4608C72.872 24.4496 73.864 24.033 74.9298 23.5345C75.9963 23.036 77.652 22.5978 78.6097 22.5605C79.5673 22.524 80.3504 22.3474 80.3504 22.1686C80.3504 21.9897 80.7308 21.9644 81.1955 22.1119C81.6832 22.2662 82.1598 22.1872 82.3224 21.9249C82.4775 21.6745 83.5739 21.3794 84.759 21.2699C85.9442 21.1603 87.714 20.9435 88.6918 20.7885C91.2821 20.3771 101.44 20.5813 105.709 21.1298ZM93.0795 31.4879C92.5321 31.7078 91.3402 31.7778 90.4296 31.6429C89.3854 31.4879 88.6724 31.5617 88.4994 31.8419C88.3226 32.1273 87.6514 32.1899 86.6236 32.0163C85.61 31.8456 85.1118 31.8896 85.2647 32.137C85.4042 32.3628 84.633 32.6437 83.4359 32.8025C82.2963 32.953 81.1365 33.266 80.8576 33.497C80.4884 33.8033 80.3467 33.769 80.3378 33.3725C80.3288 32.9791 80.1789 33.0193 79.8015 33.5164C79.5129 33.8949 79.1653 34.0931 79.0281 33.956C78.8909 33.8189 78.5135 33.927 78.1898 34.1952C77.8661 34.4642 77.429 34.5775 77.2194 34.4486C77.0099 34.3189 76.7757 34.4009 76.6989 34.6304C76.6228 34.8599 76.1149 35.0783 75.5712 35.1155C75.0275 35.1521 74.3361 35.4233 74.034 35.7169C73.7327 36.0105 73.2516 36.161 72.966 36.0515C72.6803 35.942 72.3872 36.0291 72.3156 36.2453C72.2433 36.4614 71.7838 36.6678 71.2953 36.705C70.8061 36.7415 70.4063 36.9226 70.4063 37.1082C70.4063 37.293 70.2273 37.334 70.008 37.1984C69.7895 37.0635 69.6105 37.1208 69.6105 37.3258C69.6105 37.5307 69.0287 37.9331 68.318 38.2208C67.6065 38.5084 66.9352 38.8519 66.8263 38.9853C66.3415 39.5763 63.5782 41.0413 63.3604 40.8237C63.2277 40.6903 62.8667 40.9414 62.5587 41.3811C62.2506 41.82 61.8315 42.0771 61.6279 41.9512C61.4243 41.8252 61.2572 41.9117 61.2572 42.1434C61.2572 42.3745 61.1036 42.5637 60.9149 42.5637C60.7269 42.5637 59.9087 43.1897 59.0965 43.955C58.2851 44.7203 57.4654 45.3463 57.276 45.3463C57.0865 45.3463 56.3922 45.8381 55.7321 46.4387C53.341 48.6177 48.5281 53.3869 48.5281 53.5784C48.5281 53.6865 47.6108 54.8713 46.4898 56.2127C42.8143 60.6078 37.7994 70.1686 36.8149 74.6569C36.659 75.3671 36.348 75.9483 36.1235 75.9483C35.8983 75.9483 35.8155 76.2114 35.9385 76.5318C36.0616 76.853 35.9885 77.2226 35.7759 77.3545C35.5626 77.4857 35.497 77.7673 35.6283 77.9805C35.7603 78.1936 35.6984 78.5841 35.4903 78.8471C35.2822 79.1109 35.1114 79.5953 35.1099 79.9232C35.1084 80.2511 34.8161 81.8979 34.4588 83.5828C34.1023 85.2669 33.8107 87.1597 33.8107 87.7887C33.8107 88.4169 33.7018 89.0399 33.569 89.1732C33.4363 89.3059 33.3371 91.8843 33.3483 94.9023C33.3669 99.869 33.7503 103.398 35.1539 111.519C35.2292 111.956 35.4 112.582 35.5328 112.91C35.6656 113.238 36.1369 114.847 36.5814 116.487C37.4757 119.789 39.5006 125.022 40.7544 127.271C42.9583 131.226 44.3619 133.508 45.3994 134.826C46.0266 135.623 46.5398 136.383 46.5398 136.515C46.5398 137.11 57.0291 147.885 57.6079 147.885C57.8398 147.885 58.3119 148.287 58.6565 148.779C59.0018 149.271 59.3688 149.63 59.4724 149.577C59.8207 149.4 64.0414 152.275 64.0414 152.69C64.0414 152.914 64.2219 152.987 64.4419 152.851C64.7738 152.646 66.8979 153.829 67.6214 154.622C67.731 154.741 67.9995 154.849 68.218 154.862C69.2077 154.917 70.8038 155.558 70.8038 155.9C70.8038 156.107 70.9828 156.167 71.2013 156.032C71.4206 155.897 71.5996 155.937 71.5996 156.123C71.5996 156.308 71.9397 156.484 72.3559 156.515C72.7721 156.547 73.8908 156.927 74.8425 157.359C75.7934 157.792 77.2448 158.272 78.0675 158.425C78.8901 158.58 79.6471 158.84 79.7486 159.004C79.8507 159.169 80.4123 159.212 80.9971 159.101C81.7243 158.961 81.9719 159.039 81.7817 159.346C81.5878 159.661 81.8689 159.723 82.717 159.553C83.5463 159.387 83.9304 159.466 83.9304 159.802C83.9304 160.148 84.3414 160.216 85.3229 160.033C86.1582 159.876 86.7146 159.93 86.7146 160.168C86.7146 160.411 87.488 160.473 88.7037 160.329C90.0641 160.168 90.6929 160.237 90.6929 160.547C90.6929 161.169 100.479 161.18 100.864 160.558C101.04 160.271 101.819 160.206 103.074 160.373C104.356 160.542 105.013 160.484 105.013 160.2C105.013 159.925 105.512 159.865 106.404 160.033C107.386 160.216 107.797 160.148 107.797 159.802C107.797 159.466 108.181 159.387 109.01 159.553C109.677 159.686 110.128 159.642 110.012 159.455C109.82 159.143 113.224 158.481 113.821 158.714C113.963 158.769 114.445 158.483 114.892 158.078C115.34 157.673 116.164 157.315 116.723 157.283C117.283 157.25 117.741 157.071 117.741 156.884C117.741 156.697 118.01 156.646 118.338 156.772C118.666 156.898 118.934 156.817 118.934 156.592C118.934 156.367 119.113 156.294 119.333 156.429C119.551 156.565 119.73 156.486 119.73 156.254C119.73 156.022 119.864 155.87 120.029 155.915C120.193 155.96 120.9 155.691 121.6 155.319C122.3 154.946 123.151 154.641 123.489 154.641C123.829 154.641 124.106 154.451 124.106 154.22C124.106 153.989 124.269 153.9 124.469 154.024C124.67 154.147 124.894 154.113 124.967 153.948C125.117 153.611 129.535 150.666 129.891 150.666C130.017 150.666 129.991 150.873 129.835 151.126C129.659 151.409 129.727 151.476 130.011 151.301C130.264 151.145 130.47 150.798 130.47 150.53C130.47 150.262 131.052 149.703 131.763 149.287C132.474 148.871 133.252 148.268 133.492 147.948C133.733 147.628 134.136 147.493 134.387 147.648C134.655 147.814 134.846 147.685 134.846 147.338C134.846 146.693 136.985 144.988 137.344 145.347C137.466 145.469 137.781 145.15 138.043 144.639C138.729 143.308 140.874 141.128 141.499 141.128C141.792 141.128 142.16 140.796 142.317 140.391C142.795 139.156 145.355 135.987 145.884 135.974C146.157 135.967 146.381 135.699 146.381 135.377C146.381 135.056 147.164 133.581 148.12 132.099C150.561 128.317 152.072 125.196 153.57 120.841C154.282 118.774 154.995 116.904 155.156 116.686C155.318 116.467 155.767 114.634 156.154 112.612C156.541 110.59 157.003 108.936 157.179 108.936C157.355 108.936 157.392 108.399 157.26 107.743C157.111 106.997 157.185 106.551 157.46 106.551C157.732 106.551 157.808 106.108 157.661 105.371C157.53 104.722 157.542 103.884 157.687 103.508C158.09 102.459 158.163 87.8714 157.765 87.8714C157.573 87.8714 157.516 87.2492 157.639 86.4876C157.764 85.7245 157.683 84.9927 157.46 84.8549C157.239 84.7177 157.164 84.1775 157.295 83.6551C157.442 83.0709 157.36 82.705 157.082 82.705C156.815 82.705 156.708 82.2996 156.821 81.7116C156.925 81.1647 156.883 80.7176 156.727 80.7176C156.571 80.7176 156.134 79.5103 155.755 78.0349C155.377 76.5594 154.915 74.9945 154.73 74.5578C151.916 67.9315 150.768 65.5864 148.667 62.1682C146.45 58.5593 141.52 52.0947 139.445 50.0715C139.02 49.6587 138.841 49.3196 139.046 49.3189C139.252 49.3182 138.882 48.9895 138.225 48.5886C137.567 48.1884 136.334 47.2055 135.484 46.4044C134.634 45.6041 133.829 44.9476 133.696 44.9469C133.562 44.9454 132.793 44.3388 131.986 43.5981C131.179 42.8573 130.422 42.3469 130.305 42.4646C130.188 42.5816 129.979 42.3849 129.841 42.0272C129.703 41.6688 129.43 41.4758 129.232 41.598C129.035 41.7194 128.766 41.5398 128.635 41.1978C128.503 40.8565 128.059 40.577 127.646 40.577C127.234 40.577 126.684 40.2372 126.425 39.8214C126.165 39.4064 125.716 39.1567 125.427 39.2677C125.138 39.3788 124.901 39.2715 124.901 39.0293C124.901 38.7878 124.677 38.6343 124.404 38.6887C124.131 38.7439 123.956 38.5516 124.017 38.2617C124.076 37.9726 123.954 37.8415 123.744 37.9711C123.343 38.2185 119.628 36.6216 119.398 36.1029C119.325 35.9382 119.081 35.9159 118.856 36.0545C118.632 36.1931 118.31 36.0843 118.142 35.8115C117.973 35.5396 117.252 35.2489 116.538 35.1662C115.824 35.0828 114.997 34.8137 114.7 34.5678C114.404 34.3219 114.161 34.2534 114.161 34.4165C114.161 34.5797 113.921 34.5134 113.628 34.2697C113.334 34.0268 112.977 33.9441 112.834 34.0864C112.692 34.2288 112.197 34.0037 111.736 33.5864C111.273 33.1684 110.825 32.8718 110.739 32.9262C110.652 32.9806 110.447 33.0074 110.283 32.9858C109.926 32.9388 107.959 32.7771 106.68 32.6907C106.165 32.6557 105.872 32.4492 106.013 32.2212C106.178 31.9544 105.709 31.903 104.644 32.0737C103.646 32.2331 103.024 32.178 103.024 31.9306C103.024 31.3665 101.095 31.058 100.916 31.593C100.811 31.9082 100.245 31.8918 98.9074 31.5349C96.7124 30.9492 94.4653 30.9313 93.0795 31.4879ZM89.3004 61.4223C89.3004 73.3782 89.642 72.3558 85.6466 72.3662C83.151 72.3729 81.6415 72.8953 80.4496 74.1651C79.6113 75.0593 79.1944 77.1391 79.853 77.1421C80.0171 77.1429 80.4989 77.6608 80.9225 78.2934C81.3469 78.9254 81.9286 79.3531 82.2158 79.2428C82.5022 79.1333 82.7371 79.2532 82.7371 79.5096C82.7371 79.8345 83.6179 79.944 85.6279 79.8695C87.2173 79.8099 88.7201 79.8867 88.967 80.0387C89.3548 80.2779 89.4011 90.5667 89.014 90.4095C88.1652 90.0652 84.269 89.4616 82.8982 89.4616C77.8094 89.4616 77.7587 95.9016 82.8408 96.8197C86.3193 97.4479 87.1129 97.7467 87.1129 98.4308C87.1129 98.7437 87.3381 99.0001 87.6133 99.0001C89.0379 99.0001 89.2146 100.48 89.1654 112.021C89.1147 123.982 88.8999 125.355 87.2896 124.02C86.5334 123.393 84.3279 120.144 84.3279 119.657C84.3279 119.455 83.7909 119.012 83.1346 118.673C82.4783 118.334 81.9413 117.882 81.9413 117.669C81.9413 117.456 81.6236 117.282 81.2342 117.282C80.8457 117.282 80.1297 117.003 79.6427 116.663C79.1564 116.322 78.5918 116.146 78.3882 116.271C78.1853 116.397 77.9064 116.318 77.7691 116.096C77.4365 115.559 74.1049 115.576 73.7707 116.116C73.626 116.35 73.227 116.434 72.8839 116.302C72.5401 116.17 72.1396 116.256 71.9934 116.493C71.8465 116.73 71.3401 116.953 70.8672 116.989C70.3951 117.025 70.008 117.195 70.008 117.366C70.008 117.538 69.829 117.679 69.6097 117.679C68.5716 117.679 63.7393 124.398 64.3435 125.002C64.4583 125.117 64.3539 125.451 64.1115 125.743C63.8557 126.051 63.7699 126.891 63.9079 127.74C64.4039 130.794 60.8582 128.375 58.4954 124.047C57.4676 122.163 57.003 116.326 57.8764 116.268C62.2313 115.978 63.7468 114.317 63.0107 110.642C62.5758 108.467 58.4216 107.758 56.6264 109.552C55.5292 110.648 54.0152 110.221 53.4103 108.645C53.2746 108.292 52.8435 107.683 52.4527 107.293C49.8654 104.708 50.0817 94.1876 52.7436 93.1675C53.0508 93.0497 53.3014 92.704 53.3014 92.3999C53.3014 92.0951 53.4737 91.8462 53.6833 91.8462C53.8936 91.8462 54.4754 91.4088 54.9758 90.8745C55.9327 89.8551 58.0747 88.8469 58.0747 89.4162C58.0747 89.5987 58.5454 89.6591 59.1197 89.5488C60.1355 89.3551 60.1564 89.3916 59.8961 90.8961C59.5164 93.0855 59.4128 96.7056 59.7096 97.4098C61.4847 101.627 63.9303 105.143 65.096 105.155C65.4055 105.158 65.8075 105.399 65.9887 105.691C66.17 105.983 66.4773 106.211 66.6719 106.199C67.6303 106.137 69.9722 106.686 69.8171 106.936C69.7201 107.093 71.5265 107.233 73.8319 107.247C76.1373 107.261 77.9422 107.192 77.843 107.093C77.7438 106.994 78.1778 106.398 78.8081 105.769C80.0894 104.488 80.2423 103.28 79.3488 101.49C78.638 100.066 78.3031 99.9539 74.3838 99.8317C69.7306 99.6871 66.1252 97.424 66.9837 95.1884C67.1023 94.8799 67.0255 94.628 66.8136 94.628C66.6018 94.628 66.428 94.2703 66.428 93.8329C66.428 93.3962 66.6175 93.0385 66.8494 93.0385C67.0814 93.0385 67.1627 92.8634 67.0299 92.6488C66.7674 92.2241 67.549 89.1464 68.1084 88.4035C68.3142 88.1307 68.2851 87.8371 68.039 87.6851C67.8093 87.5435 67.6214 87.074 67.6214 86.6426C67.6214 85.4249 65.2377 83.2937 63.9288 83.3414C63.3202 83.3637 62.728 83.2296 62.6131 83.0433C62.326 82.579 59.7685 82.6148 59.4769 83.0873C59.3307 83.3227 58.8788 83.3324 58.3007 83.1126C57.7839 82.9166 57.2924 82.8242 57.2088 82.9077C56.3877 83.7289 57.3133 75.762 58.2187 74.2187C59.635 71.8036 61.211 69.9868 61.8889 69.9868C62.1977 69.9868 62.4505 69.799 62.4505 69.5695C62.4505 69.1954 63.4544 68.6797 65.8314 67.8339C66.2692 67.6782 66.6712 67.5619 66.7256 67.5753C67.1851 67.6886 68.8147 65.6826 68.8147 65.0037C68.8147 63.5997 71.1342 59.5683 72.8213 58.0391C73.6805 57.2604 74.3838 56.4176 74.3838 56.1657C74.3838 55.9131 74.7418 55.5159 75.1796 55.2819C75.6167 55.0479 75.9747 54.9764 75.9747 55.1232C75.9747 55.27 76.4438 54.9213 77.0173 54.3489C77.5909 53.7759 78.2062 53.3973 78.3852 53.5084C78.5642 53.6187 78.8677 53.4279 79.0602 53.0851C79.2518 52.7423 79.8 52.4323 80.2773 52.3958C80.7554 52.36 81.1462 52.1693 81.1462 51.9718C81.1462 51.7743 81.5042 51.7057 81.9413 51.8205C82.3791 51.9345 82.7371 51.8451 82.7371 51.6215C82.7371 51.398 83.0951 51.3086 83.5321 51.4226C83.9699 51.5366 84.4279 51.468 84.5502 51.2705C84.6725 51.0723 85.7913 50.9099 87.0368 50.9106H89.3004V61.4223ZM106.206 51.2974C106.206 51.5127 106.716 51.5835 107.351 51.4561C107.982 51.3302 108.613 51.4159 108.756 51.6476C108.899 51.8786 109.278 51.9673 109.6 51.8436C109.921 51.7206 110.184 51.8123 110.184 52.0478C110.184 52.2825 110.441 52.3764 110.756 52.2557C111.07 52.135 111.639 52.3995 112.02 52.8437C112.401 53.2878 112.856 53.5628 113.033 53.454C113.966 52.8772 120.526 58.6159 120.526 60.0087C120.526 60.2509 120.686 60.4483 120.88 60.4483C121.44 60.4483 122.567 63.6311 122.303 64.4649C122.17 64.883 122.252 65.2176 122.488 65.2176C122.721 65.2176 122.913 65.5753 122.913 66.0127C122.913 66.4501 123.121 66.8078 123.375 66.8078C124.144 66.8078 126.89 68.1275 126.89 68.4971C126.89 68.6864 127.045 68.746 127.234 68.629C127.754 68.3086 131.193 70.7208 131.473 71.6016C131.607 72.0249 131.862 72.3714 132.039 72.3714C132.611 72.3714 134.025 76.189 134.29 78.4499C134.607 81.1378 134.181 84.4226 133.565 84.0426C133.295 83.8749 133.247 83.9599 133.437 84.2676C133.605 84.5389 133.412 85.492 133.009 86.3855C132.456 87.6098 132.398 88.0502 132.773 88.1747C133.046 88.2656 133.566 88.6367 133.929 89.0004C134.293 89.3633 134.737 89.6822 134.917 89.7098C135.097 89.7374 135.422 89.7821 135.641 89.8089C135.86 89.8365 136.039 90.1375 136.039 90.4781C136.039 90.8194 136.193 91.0027 136.381 90.8872C136.843 90.6018 138.621 92.6488 139.9 94.9358C141.405 97.6297 141.559 102.262 140.241 105.143C139.225 107.36 137.665 109.115 138.196 107.442C138.369 106.899 138.313 106.551 138.055 106.551C137.821 106.551 137.63 106.215 137.63 105.804C137.63 102.827 131.361 95.3509 129.472 96.0752C129.146 96.2004 128.566 96.1684 128.183 96.0044C127.174 95.5722 123.186 95.4716 122.682 95.8658C122.447 96.0506 121.91 96.2682 121.489 96.3487C120.243 96.5886 119.244 97.1013 118.421 97.9233C117.792 98.5522 117.583 98.5947 117.303 98.1528C117.03 97.7228 116.956 97.7511 116.952 98.2892C116.942 99.4092 114.288 99.825 107.913 99.7058L102.029 99.5962L102.034 95.9537C102.038 92.467 103.328 89.5004 104.382 90.5533C104.5 90.6711 104.861 90.5474 105.185 90.2784C105.598 89.9356 107.143 89.8298 110.366 89.9237C112.892 89.9974 114.958 89.9028 114.958 89.7128C114.957 89.5235 115.306 89.4601 115.733 89.5719C116.161 89.683 116.563 89.6591 116.628 89.5183C116.693 89.3782 117.458 88.905 118.328 88.4675C121.182 87.033 124.348 83.1305 124.777 80.5193C125.49 76.1607 125.144 73.3797 123.491 70.1858C121.738 66.7974 119.085 63.6281 118.001 63.6281C117.64 63.6281 117.344 63.4388 117.344 63.207C117.344 62.976 117.172 62.8926 116.962 63.0222C116.752 63.1519 116.239 63.0446 115.821 62.7838C115.404 62.5237 114.768 62.4231 114.409 62.5609C114.049 62.6988 113.652 62.8024 113.525 62.7905C112.992 62.742 110.979 65.4277 110.979 66.1856C110.979 67.0954 113.435 69.8825 114.972 70.7178C118.139 72.4385 119.098 77.4745 116.826 80.4508C116.214 81.2533 115.468 81.9099 115.169 81.9099C114.87 81.9099 114.566 82.0656 114.493 82.2549C114.301 82.7542 112.57 83.2266 112.57 82.7802C112.57 82.5552 111.54 82.5977 109.999 82.8868C108.585 83.1528 107.288 83.2303 107.115 83.0589C106.943 82.8883 105.729 82.6938 104.417 82.6275L102.03 82.506L102.027 78.7957C102.024 74.3208 101.95 74.4594 104.417 74.3126C106.494 74.1889 107.388 73.5257 107.968 71.6776C108.356 70.4376 107.415 68.0001 106.547 68.0001C106.167 68.0001 105.732 67.8011 105.582 67.559C105.427 67.3078 104.762 67.2057 104.04 67.3235C102.025 67.6499 101.83 66.9367 101.83 59.2359C101.83 51.2847 101.947 50.9099 104.43 50.9099C105.407 50.9099 106.206 51.0843 106.206 51.2974ZM74.8485 61.5177C74.1891 61.7807 71.173 65.0052 70.5129 66.1543C67.3253 71.697 67.0545 75.8701 69.7321 78.1899C70.6405 78.9768 72.3947 79.3345 72.3947 78.7324C72.3947 78.5423 72.7079 78.2875 73.0913 78.166C73.9467 77.8948 74.6441 76.3239 74.9476 73.984C75.1789 72.2082 76.6153 69.7155 78.1383 68.4509C78.5895 68.0761 79.1653 67.4189 79.4181 66.9904C79.6717 66.5619 80.0297 66.2415 80.2139 66.278C80.3982 66.3137 80.5496 65.5685 80.5496 64.6214C80.5496 63.6743 80.4795 62.9693 80.3944 63.0543C80.3094 63.1392 79.7142 62.7666 79.0713 62.2256C77.9571 61.2889 76.1716 60.9893 74.8485 61.5177ZM127.311 103.334C129.252 103.66 131.122 107.449 130.668 110.137C130.36 111.955 131.192 113.814 132.996 115.341C134.703 116.784 134.22 124.833 132.427 124.833C132.226 124.833 132.061 125.074 132.061 125.368C132.061 126.045 128.533 129.284 128.092 129.011C127.912 128.9 127.639 127.691 127.486 126.324C127.058 122.499 122.321 114.429 121.176 115.572C121.074 115.674 120.574 115.527 120.063 115.247C118.53 114.405 115.721 113.876 114.756 114.247C114.424 114.374 114.049 114.469 113.922 114.457C113.55 114.423 111.376 116.988 111.384 117.453C111.405 118.84 113.245 121.063 114.47 121.182C115.175 121.251 115.753 121.485 115.753 121.702C115.753 121.92 115.928 121.99 116.142 121.857C116.673 121.529 118.218 122.396 117.931 122.861C117.804 123.067 117.957 123.136 118.27 123.015C119.752 122.448 121.088 128.087 120.317 131.66C119.772 134.187 116.051 139.141 114.697 139.141C114.439 139.141 114.165 139.329 114.088 139.56C114.011 139.79 113.683 140.019 113.359 140.068C113.034 140.117 112.546 140.296 112.272 140.467C111.998 140.638 111.595 140.667 111.377 140.532C111.158 140.397 110.979 140.471 110.979 140.697C110.979 140.942 110.496 141.012 109.786 140.869C109.025 140.717 108.593 140.793 108.593 141.078C108.593 141.375 107.451 141.525 105.211 141.525H101.83V138.56C101.83 134.744 102.373 134.135 105.844 134.064C108.791 134.003 110.184 132.872 110.184 130.537C110.184 129.072 109.122 126.837 108.407 126.797C108.181 126.785 106.654 126.74 105.013 126.698L102.029 126.621L101.912 119.269C101.779 110.868 101.882 109.968 103.161 108.372L104.089 107.212L110.915 107.307C115.935 107.376 117.741 107.277 117.741 106.933C117.741 106.676 118.01 106.569 118.338 106.695C118.666 106.821 118.934 106.74 118.934 106.515C118.934 106.29 119.095 106.206 119.291 106.327C119.486 106.448 119.75 106.279 119.875 105.953C120 105.626 120.377 105.359 120.712 105.359C121.047 105.359 121.321 105.132 121.321 104.855C121.321 103.659 124.474 102.859 127.311 103.334ZM77.9638 124.278C77.9638 124.584 78.1995 124.833 78.4874 124.833C78.7752 124.833 79.407 125.789 79.8918 126.957C81.405 130.605 83.0869 131.951 85.8039 131.69C89.2825 131.356 89.4995 131.666 89.4995 136.969V141.525H86.5393C84.847 141.525 83.4658 141.341 83.3136 141.096C83.1674 140.86 82.62 140.773 82.0972 140.904C81.5311 141.047 81.1462 140.969 81.1462 140.711C81.1462 140.46 80.8128 140.385 80.3504 140.532C79.8761 140.682 79.5546 140.603 79.5546 140.337C79.5546 140.09 79.3891 139.991 79.1869 140.116C78.6306 140.46 76.7705 139.489 76.7705 138.855C76.7705 138.549 76.5892 138.411 76.3677 138.547C75.9254 138.821 72.3947 135.491 72.3947 134.801C72.3947 134.564 72.2246 134.371 72.0158 134.371C71.0604 134.371 70.4592 129.367 71.1857 127.458C72.3223 124.471 77.9638 121.825 77.9638 124.278ZM8.65162 165.754C8.04974 165.943 7.55749 166.011 7.55749 165.904C7.55749 165.798 7.08612 166.082 6.5096 166.535C5.93307 166.988 5.28868 167.359 5.07761 167.359C4.42202 167.359 2.58355 169.575 1.56773 171.591C1.03372 172.652 0.507162 173.609 0.397525 173.717C0.287888 173.827 0.19839 174.99 0.19839 176.301C0.19839 177.613 0.287888 178.775 0.397525 178.885C0.507162 178.993 0.918112 179.778 1.31191 180.628C2.27403 182.704 4.80687 185.611 5.6683 185.628C6.05091 185.635 6.36565 185.775 6.36714 185.939C6.38057 187.246 12.964 187.51 14.8166 186.278C15.4185 185.877 15.9138 185.704 15.9167 185.893C15.9205 186.082 16.0726 186.001 16.2554 185.714C16.4373 185.426 16.8736 185.149 17.2234 185.097C18.4503 184.917 20.529 181.458 21.4471 178.067C22.1817 175.354 19.173 167.359 17.4174 167.359C17.2361 167.359 16.4209 166.952 15.6042 166.454C13.9985 165.476 10.6169 165.134 8.65162 165.754Z" fill="#7F3E98" fill-opacity="0.933333"/>
</svg>
