<svg width="800" height="800" viewBox="0 0 800 800" fill="none" xmlns="http://www.w3.org/2000/svg">
<path d="M457.233 296.059C419.603 285.651 380.397 285.651 342.767 296.059C340.63 296.65 338.5 297.274 336.373 297.932L336.313 297.951C335.213 298.296 334.017 298.078 333.108 297.368C331.839 296.38 330.589 295.423 329.357 294.497C289.77 264.731 269.093 266.06 263.976 267.054C263.153 267.213 262.528 267.827 262.244 268.615C262.172 268.814 262.101 269.013 262.03 269.212C253.88 292.168 252.635 317.604 258.426 341.417C258.763 342.803 259.124 344.183 259.508 345.557C259.534 345.647 259.559 345.737 259.584 345.827C259.918 347.007 259.673 348.277 258.927 349.253C258.358 349.993 257.798 350.743 257.247 351.5C241.493 373.13 232.969 400.71 233.345 429.157C233.345 544.663 293.465 571.193 351.167 579.037L352.36 579.193C384.49 583.997 415.29 583.7 447.317 578.263L448.127 578.167C506.107 571.13 566.653 545.29 566.653 429.157C567.03 400.71 558.507 373.13 542.753 351.5C542.247 350.807 541.733 350.117 541.213 349.433L541.173 349.383C540.367 348.327 540.1 346.95 540.46 345.67C540.857 344.257 541.227 342.84 541.57 341.417C547.367 317.537 546.05 292.025 537.763 269.059C537.71 268.918 537.66 268.777 537.61 268.636C537.317 267.834 536.68 267.209 535.84 267.047C530.7 266.055 510.137 264.794 470.643 294.497C469.493 295.361 468.33 296.252 467.147 297.169C466.08 298.004 464.673 298.254 463.377 297.855L463.293 297.829C461.28 297.209 459.26 296.619 457.233 296.059Z" stroke="#1C1C1C" stroke-width="66.6667" stroke-linecap="round" stroke-linejoin="round"/>
<path d="M100 400C100 152.95 152.95 100 400 100C647.05 100 700 152.95 700 400C700 647.05 647.05 700 400 700C152.95 700 100 647.05 100 400Z" stroke="#1C1C1C" stroke-width="66.6667"/>
</svg>
