<svg width="372" height="128" viewBox="0 0 372 128" fill="none" xmlns="http://www.w3.org/2000/svg">
<path fill-rule="evenodd" clip-rule="evenodd" d="M58.738 0.290536C58.828 0.436097 58.7455 0.572716 58.5546 0.594078C57.7928 0.678533 56.0491 0.805216 55.4231 0.82161C55.0586 0.831049 54.4724 0.984061 54.1204 1.16092C53.6172 1.41428 53.4571 1.41329 53.3711 1.15844C53.2895 0.916001 53.1031 0.938358 52.6322 1.24687C52.2647 1.48732 51.775 1.58717 51.4583 1.48682C51.1385 1.38547 50.9153 1.43316 50.9153 1.60257C50.9153 1.77744 50.6547 1.82514 50.252 1.72429C49.8174 1.61499 49.5892 1.66864 49.5892 1.87978C49.5892 2.05714 49.4246 2.13911 49.2237 2.06161C49.0229 1.98461 48.7544 2.01889 48.6271 2.13762C48.4998 2.25635 47.7947 2.47891 47.0603 2.63193C46.3255 2.78494 45.3708 3.0552 44.9387 3.23255C44.5066 3.40991 44.0039 3.53063 43.8215 3.50082C43.639 3.47101 43.4898 3.57137 43.4898 3.72339C43.4898 3.87541 43.1318 4.0001 42.6943 4.0001C42.2567 4.0001 41.8987 4.13175 41.8987 4.29321C41.8987 4.45467 41.7197 4.51776 41.5009 4.4338C41.2822 4.35034 41.1032 4.404 41.1032 4.55403C41.1032 4.70356 40.9828 4.75175 40.8361 4.66084C40.689 4.57042 40.3767 4.68766 40.1425 4.92215C39.9078 5.15664 39.5817 5.30369 39.4176 5.24904C39.2535 5.1944 38.9537 5.31512 38.7513 5.51731C38.5489 5.71951 38.2193 5.82234 38.0194 5.74584C37.8195 5.66884 37.6559 5.71951 37.6559 5.85811C37.6559 5.99622 37.3576 6.1845 36.9931 6.27591C36.6282 6.36733 36.3298 6.56108 36.3298 6.70664C36.3298 6.8522 36.1643 6.90734 35.9614 6.82984C35.7585 6.75185 35.3662 6.88847 35.0893 7.13289C34.8123 7.37681 34.4126 7.61627 34.2008 7.66446C33.9889 7.71265 33.7547 7.84529 33.6807 7.96005C33.6066 8.07431 33.0084 8.43598 32.3521 8.76386C31.6958 9.09175 30.764 9.65561 30.2807 10.0178C29.7979 10.3794 29.2544 10.6974 29.0729 10.7237C28.8914 10.7505 28.4584 11.0372 28.1108 11.3606C27.7633 11.684 27.3511 11.9488 27.1949 11.9488C27.0388 11.9488 26.7589 12.1917 26.5734 12.4888C26.3874 12.7859 26.1264 12.9613 25.9926 12.8788C25.8589 12.7963 25.6197 12.9707 25.4616 13.2658C25.303 13.5614 25.0648 13.8033 24.9316 13.8033C24.7983 13.8033 24.3697 14.0994 23.9794 14.4606C23.5886 14.8223 23.165 15.0538 23.0377 14.9753C22.9099 14.8963 22.8055 15.0115 22.8055 15.2316C22.8055 15.4512 22.358 15.9644 21.811 16.3718C21.2641 16.7791 20.7316 17.2322 20.6277 17.3788C20.5232 17.5253 20.3442 17.65 20.2299 17.656C19.9206 17.6724 18.0322 19.4271 18.0322 19.6978C18.0322 19.8265 17.704 20.2905 17.3032 20.7292C16.902 21.1683 16.3168 21.8107 16.0025 22.1565C11.3386 27.2903 5.92188 36.8397 3.72019 43.8097C3.54716 44.3562 3.30701 44.8033 3.18618 44.8033C3.06536 44.8033 3.02906 45.0418 3.10513 45.3334C3.18568 45.6414 3.11309 45.863 2.9321 45.863C2.76056 45.863 2.67951 45.9589 2.75211 46.0761C2.88536 46.2917 2.51245 48.3127 2.20467 49.0425C2.11269 49.2611 2.06048 49.5423 2.08832 49.6665C2.11666 49.7911 2.00628 50.0544 1.84269 50.2512C1.67911 50.4479 1.62243 50.7336 1.7164 50.8856C1.81037 51.0376 1.79397 51.3113 1.67911 51.4937C1.56475 51.6755 1.43547 52.3611 1.39172 53.0168C1.34796 53.6726 1.19531 54.6264 1.05212 55.1366C0.908916 55.6469 0.714501 57.2863 0.620527 58.7796C0.526552 60.2735 0.348549 61.4956 0.224741 61.4956C0.100934 61.4956 0 61.6218 0 61.7763C0 61.9303 0.119331 61.983 0.265017 61.8931C0.410702 61.8031 0.530033 61.8558 0.530033 62.0098C0.530033 62.1643 0.410702 62.2905 0.265017 62.2905C0.113365 62.2905 0 63.0854 0 64.145C0 65.1654 0.09447 66.0001 0.210322 66.0001C0.326174 66.0001 0.449983 66.784 0.485285 67.7428C0.548929 69.4543 0.827371 71.7231 1.29575 74.3462C1.42602 75.0745 1.47575 75.7655 1.40613 75.8813C1.33702 75.9971 1.42304 76.2633 1.59757 76.474C1.77259 76.6841 1.84767 77.0329 1.76463 77.2485C1.68209 77.4646 1.73132 77.7135 1.87452 77.8019C2.01821 77.8903 2.11318 78.103 2.08633 78.2744C2.05948 78.4453 2.1102 78.7642 2.1992 78.9828C2.56615 79.887 2.93061 81.661 2.79437 81.8806C2.71432 82.0108 2.78443 82.1623 2.9505 82.2174C3.11657 82.2731 3.26673 82.6889 3.28364 83.1415C3.30054 83.5945 3.38905 83.9189 3.48054 83.8633C3.57153 83.8072 3.80124 84.3258 3.99068 85.0154C4.18012 85.7049 4.48094 86.5077 4.65944 86.7989C4.83745 87.0905 5.07164 87.627 5.17954 87.9912C6.25701 91.6287 10.2313 98.3131 15.1776 104.81C15.8911 105.747 22.4241 112.212 23.6174 113.162C24.0749 113.526 24.6432 114.033 24.8799 114.288C25.1165 114.543 25.4497 114.752 25.6207 114.752C25.7913 114.752 25.9996 114.931 26.0836 115.149C26.1677 115.368 26.3904 115.547 26.5789 115.547C26.7673 115.547 27.2755 115.875 27.7081 116.276C28.1406 116.676 28.5772 117.004 28.6781 117.004C28.7796 117.004 29.1704 117.272 29.5468 117.599C29.9227 117.926 30.2344 118.104 30.2394 117.996C30.2439 117.888 30.4229 118.03 30.6372 118.314C30.851 118.596 31.0265 118.742 31.0265 118.638C31.0265 118.301 32.5475 119.222 32.7161 119.661C32.8056 119.894 32.9955 120.013 33.1382 119.925C33.3764 119.778 34.961 120.441 35.2693 120.817C35.4239 121.005 37.9319 122.287 38.2417 122.337C38.357 122.354 38.622 122.384 38.8304 122.403C39.0387 122.421 39.3957 122.622 39.6239 122.85C39.8522 123.078 40.1589 123.19 40.3056 123.1C40.4528 123.009 40.5731 123.081 40.5731 123.259C40.5731 123.438 40.6517 123.506 40.7476 123.41C40.8436 123.314 41.0524 123.337 41.2115 123.461C41.3707 123.585 41.9111 123.764 42.4118 123.859C42.9125 123.954 43.552 124.239 43.8319 124.492C44.1118 124.746 44.3585 124.911 44.3798 124.86C44.4599 124.667 47.7331 125.43 47.7331 125.641C47.7331 125.763 47.9086 125.796 48.1239 125.714C48.3387 125.631 48.7141 125.763 48.9577 126.006C49.3152 126.364 49.444 126.381 49.6235 126.098C49.796 125.827 49.8473 125.824 49.8502 126.084C49.8532 126.306 50.07 126.366 50.4882 126.261C50.8372 126.174 51.1952 126.22 51.2842 126.364C51.3732 126.508 51.685 126.563 51.9774 126.486C52.2697 126.41 52.6819 126.491 52.8927 126.666C53.1045 126.841 53.5252 126.905 53.832 126.808C54.1383 126.71 54.5594 126.773 54.7697 126.948C54.9801 127.122 55.4425 127.191 55.8015 127.101C56.16 127.011 56.5309 127.066 56.6283 127.224C56.7258 127.382 57.2399 127.484 57.7715 127.453C59.3263 127.361 59.9741 127.451 59.7986 127.735C59.6987 127.897 60.1004 128 60.8284 128C61.4847 128 62.0953 127.881 62.1853 127.735C62.2758 127.589 63.2374 127.47 64.3223 127.47C65.4614 127.47 66.2958 127.582 66.2958 127.735C66.2958 128.069 68.6069 128.087 68.7267 127.755C68.8545 127.399 70.2735 127.089 70.2735 127.416C70.2735 127.711 71.2849 127.535 71.7732 127.155C71.9412 127.024 72.3758 126.992 72.7383 127.082C73.1161 127.177 73.4766 127.121 73.5815 126.951C73.683 126.787 73.9997 126.728 74.2861 126.819C74.573 126.91 74.9787 126.841 75.1886 126.668C75.4038 126.489 75.8613 126.424 76.2367 126.518C76.6553 126.623 76.903 126.573 76.903 126.384C76.903 126.206 77.174 126.135 77.5663 126.21C77.9307 126.28 78.2291 126.226 78.2291 126.09C78.2291 125.955 78.4677 125.92 78.7596 126.013C79.0843 126.116 79.2896 126.061 79.2896 125.87C79.2896 125.688 79.4741 125.629 79.7326 125.728C79.9763 125.822 80.2562 125.768 80.3547 125.608C80.4536 125.449 80.9697 125.295 81.5018 125.268C82.0343 125.24 82.4703 125.123 82.4708 125.007C82.4713 124.892 82.621 124.822 82.8035 124.851C82.9859 124.881 83.4931 124.747 83.9307 124.555C84.3682 124.362 84.8157 124.224 84.9251 124.248C85.0345 124.271 85.124 124.158 85.124 123.997C85.124 123.836 85.299 123.771 85.5133 123.853C85.7271 123.935 85.9742 123.887 86.0618 123.744C86.1493 123.603 86.3322 123.556 86.468 123.639C86.6037 123.723 86.7151 123.659 86.7151 123.496C86.7151 123.333 86.8354 123.274 86.9821 123.364C87.1293 123.455 87.443 123.336 87.6792 123.1C87.9159 122.864 88.2649 122.73 88.4559 122.803C88.6463 122.876 88.8397 122.85 88.8855 122.744C88.9312 122.639 89.864 122.156 90.9579 121.671C92.0518 121.187 93.0064 120.7 93.0795 120.589C93.253 120.325 95.4662 119.205 95.4662 119.381C95.4662 119.455 95.7083 119.309 96.0051 119.055C96.3015 118.801 96.6297 118.594 96.7341 118.593C96.839 118.593 97.367 118.254 97.9075 117.842C98.448 117.429 99.0014 117.159 99.1371 117.243C99.2724 117.327 99.4379 117.188 99.5046 116.935C99.5707 116.682 99.9725 116.299 100.397 116.085C100.821 115.871 101.384 115.481 101.647 115.218C101.911 114.955 102.239 114.81 102.377 114.894C102.514 114.979 102.626 114.862 102.626 114.635C102.626 114.408 102.729 114.222 102.854 114.222C102.979 114.222 103.624 113.745 104.287 113.162C104.95 112.58 105.546 112.103 105.612 112.103C105.792 112.103 111.642 106.209 111.642 106.028C111.642 105.941 112.239 105.229 112.968 104.445C113.697 103.661 114.294 102.925 114.294 102.811C114.294 102.696 114.445 102.444 114.629 102.252C114.813 102.059 115.493 101.081 116.141 100.078C116.789 99.0752 117.444 98.1153 117.596 97.9444C118.28 97.1804 121.233 91.3306 122.514 88.2018C122.855 87.3702 123.251 86.7626 123.395 86.8515C123.54 86.9409 123.574 86.8793 123.472 86.7129C123.244 86.3453 123.832 84.2821 124.164 84.2821C124.295 84.2821 124.329 84.1629 124.238 84.0168C124.148 83.8712 124.166 83.605 124.277 83.4256C124.387 83.2458 124.493 82.9179 124.512 82.6968C124.576 81.9144 125.239 79.3763 125.45 79.109C125.566 78.9594 125.721 78.3633 125.794 77.784C126.07 75.5763 126.3 74.4923 126.47 74.5971C126.567 74.6572 126.599 74.2975 126.541 73.7977C126.474 73.2259 126.548 72.8886 126.741 72.8886C126.946 72.8886 126.99 72.5885 126.876 71.9785C126.782 71.4782 126.803 70.9119 126.923 70.7201C127.446 69.8855 127.433 57.8357 126.908 56.6593C126.794 56.404 126.775 55.8972 126.867 55.5336C126.97 55.1208 126.92 54.8719 126.734 54.8719C126.548 54.8719 126.476 54.5201 126.543 53.9443C126.603 53.4341 126.569 53.0168 126.469 53.0168C126.278 53.0168 126.014 51.8399 125.793 50.0018C125.721 49.4086 125.565 48.801 125.445 48.6515C125.326 48.5025 125.14 47.9629 125.033 47.4527C124.343 44.1699 121.496 36.9028 119.563 33.4923C118.292 31.2473 115.902 27.3812 115.487 26.8964C115.342 26.7255 115.043 26.3166 114.824 25.9867C114.302 25.1993 113.282 23.9325 112.374 22.9444C111.973 22.5072 111.644 22.079 111.643 21.993C111.642 21.7918 105.509 15.6599 105.302 15.6519C105.216 15.6484 104.685 15.2311 104.121 14.7244C103.558 14.2177 103.006 13.8033 102.893 13.8033C102.78 13.8033 102.625 13.5644 102.549 13.2723C102.468 12.9633 102.26 12.7988 102.051 12.8788C101.853 12.9548 101.298 12.6567 100.817 12.2176C100.335 11.7784 99.8293 11.4187 99.6925 11.4187C99.5558 11.4187 99.4439 11.2995 99.4439 11.1539C99.4439 11.0079 99.2689 10.8887 99.0551 10.8887C98.8413 10.8887 98.259 10.531 97.7603 10.0938C97.2621 9.6566 96.7211 9.29891 96.5581 9.29891C96.395 9.29891 96.2617 9.17273 96.2617 9.01872C96.2617 8.86422 96.1424 8.81156 95.9962 8.90148C95.8505 8.99189 95.7312 8.93228 95.7312 8.76933C95.7312 8.60638 95.6109 8.54726 95.4642 8.63768C95.317 8.72859 95.1256 8.61681 95.0386 8.39027C94.9515 8.16324 94.773 8.04351 94.6428 8.12399C94.512 8.20447 94.4051 8.15728 94.4051 8.01867C94.4051 7.88007 94.1068 7.69178 93.7423 7.60037C93.3778 7.50896 93.0795 7.31024 93.0795 7.15872C93.0795 7.0072 92.9602 6.95702 92.814 7.04694C92.6683 7.13686 92.549 7.07924 92.549 6.91827C92.549 6.75781 92.3998 6.65696 92.2173 6.69471C91.839 6.77321 89.6318 5.83427 89.6318 5.59531C89.6318 5.50837 89.3653 5.41746 89.0391 5.39311C88.7134 5.36827 88.4047 5.22321 88.3534 5.0697C88.3027 4.91669 88.1436 4.86403 88.0004 4.95196C87.8572 5.04039 87.5867 4.90278 87.3988 4.64593C87.1924 4.36425 86.8837 4.24502 86.6206 4.34587C86.381 4.43778 86.1846 4.40151 86.1846 4.26489C86.1846 4.12827 86.0056 4.08505 85.7868 4.16901C85.568 4.25297 85.389 4.18242 85.389 4.01252C85.389 3.84262 85.2796 3.77108 85.1459 3.85355C85.0126 3.93601 84.5651 3.86398 84.1514 3.69308C83.7382 3.52169 83.3062 3.37215 83.1918 3.35973C83.0769 3.34731 82.898 3.21815 82.794 3.07258C82.6896 2.92702 82.4853 2.80481 82.3396 2.80134C81.3556 2.77799 79.5551 2.33187 79.5551 2.11129C79.5551 1.96473 79.3165 1.92002 79.0246 2.01292C78.6979 2.11626 78.4941 2.06062 78.4941 1.86736C78.4941 1.68405 78.2738 1.61102 77.964 1.69199C77.6722 1.7685 77.4335 1.72727 77.4335 1.60108C77.4335 1.47489 77.0457 1.37255 76.5718 1.37404C74.7276 1.37901 74.4273 1.34126 74.0927 1.06355C73.9023 0.906065 73.496 0.855889 73.1907 0.952763C72.8844 1.05014 72.4633 0.987044 72.2525 0.812172C72.0143 0.614448 71.5191 0.561289 70.9358 0.670584C70.2233 0.804222 69.9643 0.748581 69.8439 0.4356C69.6813 0.0123312 67.3564 -0.184401 67.3564 0.224957C67.3564 0.334749 65.9244 0.430631 64.1742 0.437586C62.4239 0.445038 60.9919 0.355118 60.9919 0.238371C60.9919 0.121128 60.448 0.0257462 59.7832 0.0257462C59.0448 0.0257462 58.6381 0.128581 58.738 0.290536ZM119.087 2.87238C118.243 3.02539 117.228 3.69109 116.458 4.59625C116.117 4.99667 115.67 5.32456 115.464 5.32456C115.258 5.32456 115.089 5.55606 115.089 5.83923C115.089 6.12191 114.98 6.42148 114.845 6.50444C114.71 6.58741 114.522 7.01167 114.426 7.44736C114.33 7.88305 114.172 8.23975 114.074 8.23975C113.976 8.24024 113.896 9.01524 113.896 9.96213C113.896 10.909 113.962 11.684 114.042 11.684C114.122 11.6835 114.34 12.1043 114.526 12.6185C114.825 13.4447 117.476 16.6048 117.476 16.1353C117.476 16.034 118.151 16.1835 118.976 16.4672C120.857 17.1135 121.504 17.113 123.287 16.4617C124.072 16.1745 124.816 16.0027 124.94 16.0797C125.065 16.1567 125.167 16.0891 125.167 15.9306C125.167 15.7716 125.579 15.2798 126.084 14.8367C126.589 14.394 127.15 13.623 127.33 13.1227C127.511 12.623 127.74 12.2136 127.838 12.2136C127.936 12.2136 128.008 11.2001 127.999 9.96164C127.99 8.72263 127.91 7.70917 127.821 7.70917C127.732 7.70917 127.505 7.27994 127.315 6.75532C127.125 6.23021 126.773 5.59382 126.532 5.34095C126.291 5.08758 125.957 4.65289 125.788 4.37419C125.619 4.09549 125.339 3.90124 125.164 3.94297C124.99 3.9842 124.65 3.80536 124.41 3.54553C123.796 2.88033 120.992 2.52561 119.087 2.87238ZM70.4724 14.0865C71.8214 14.2599 72.9252 14.5182 72.9252 14.6608C72.9252 14.8034 73.1152 14.8471 73.3469 14.7582C73.5791 14.6693 73.8908 14.6717 74.0395 14.7637C74.1886 14.8556 74.8017 14.9673 75.4019 15.012C76.0025 15.0568 76.532 15.2078 76.5788 15.3479C76.625 15.4875 76.8965 15.5411 77.1809 15.4666C77.4862 15.3866 77.6985 15.4646 77.6985 15.6554C77.6985 15.8347 77.8765 15.9117 78.0963 15.8273C78.3151 15.7433 78.4941 15.7831 78.4941 15.9152C78.4941 16.0474 79.0276 16.2352 79.6789 16.333C80.3308 16.4304 81.0006 16.6753 81.1676 16.876C81.3347 17.0772 81.5773 17.1766 81.7066 17.0966C81.8359 17.0171 81.9418 17.0976 81.9418 17.2764C81.9418 17.4548 82.0114 17.5313 82.0969 17.4458C82.3082 17.2347 83.7979 17.7722 83.7979 18.0604C83.7979 18.1871 83.9615 18.2283 84.1614 18.1518C84.3613 18.0748 84.7193 18.2064 84.9569 18.4439C85.1946 18.6814 85.389 18.7996 85.389 18.7072C85.389 18.6143 85.8663 18.8066 86.4496 19.1345C87.0333 19.4618 87.5107 19.8235 87.5107 19.9378C87.5107 20.052 87.6673 20.0853 87.8592 20.0118C88.0511 19.9383 88.5583 20.2075 88.9864 20.6099C89.4145 21.0123 89.8685 21.3099 89.9953 21.2712C90.2906 21.1812 93.0795 23.0929 93.0795 23.386C93.0795 23.5072 93.262 23.6066 93.4852 23.6066C93.709 23.6066 93.9601 23.7854 94.0441 24.004C94.1281 24.2226 94.3549 24.4015 94.5483 24.4015C94.7417 24.4015 95.6874 25.1765 96.6495 26.1239C97.6117 27.0712 98.5007 27.8462 98.6255 27.8462C98.7503 27.8462 99.0327 28.1145 99.2535 28.4424C99.4738 28.7703 100.274 29.6943 101.033 30.4956C103.211 32.7998 103.276 32.8798 105.127 35.5088C108.06 39.6754 112.194 48.7499 112.23 51.1007C112.235 51.4316 112.345 51.7674 112.475 51.8479C112.605 51.9279 112.64 52.1102 112.552 52.2523C112.464 52.3938 112.508 52.6542 112.65 52.83C113.126 53.4207 113.571 56.8272 113.538 59.6252C113.527 60.5636 113.633 61.4708 113.775 61.6412C114.089 62.0192 114.065 66.0219 113.746 66.4129C113.62 66.5674 113.527 67.4616 113.539 68.4001C113.571 71.0495 113.531 71.8275 113.342 72.132C113.247 72.287 113.126 72.9522 113.074 73.611C113.022 74.2692 112.879 74.9429 112.756 75.1068C112.634 75.2712 112.514 75.7233 112.491 76.1108C112.244 80.1373 106.252 91.9427 102.157 96.4724C98.8652 100.112 97.4938 101.478 97.2676 101.338C97.1323 101.254 96.9603 101.407 96.8852 101.676C96.74 102.199 94.3847 104.154 93.8994 104.154C93.7403 104.154 93.6095 104.258 93.6095 104.385C93.6095 104.869 88.5374 108.04 87.9746 107.909C87.8652 107.884 87.7757 107.963 87.7757 108.086C87.7757 108.329 86.4372 109.043 86.1184 108.969C86.0091 108.944 85.9195 109.049 85.9195 109.203C85.9195 109.358 85.8002 109.41 85.654 109.321C85.5083 109.23 85.389 109.29 85.389 109.453C85.389 109.616 85.2697 109.675 85.124 109.585C84.9778 109.495 84.8585 109.56 84.8585 109.73C84.8585 109.9 84.6795 109.971 84.4607 109.887C84.2419 109.803 84.0629 109.832 84.0629 109.951C84.0629 110.164 82.2207 111.023 81.3809 111.202C81.1457 111.252 80.6087 111.435 80.1876 111.609C79.767 111.783 79.3428 111.936 79.2454 111.948C79.1484 111.96 78.9873 112.051 78.8884 112.15C78.7889 112.25 78.5403 112.267 78.336 112.189C78.1311 112.11 77.964 112.192 77.964 112.37C77.964 112.564 77.7502 112.639 77.4335 112.556C77.1416 112.479 76.903 112.533 76.903 112.675C76.903 112.817 76.6643 112.857 76.3729 112.765C76.0647 112.667 75.8424 112.717 75.8424 112.885C75.8424 113.059 75.5819 113.107 75.1796 113.006C74.7445 112.897 74.5163 112.951 74.5163 113.162C74.5163 113.339 74.3522 113.421 74.1509 113.344C73.95 113.267 73.6815 113.307 73.5542 113.433C72.9754 114.005 63.5815 114.447 59.2686 114.104C56.9312 113.918 55.1431 113.617 54.9994 113.385C54.9164 113.251 54.6196 113.213 54.3401 113.302C54.0433 113.396 53.832 113.338 53.832 113.162C53.832 112.986 53.6212 112.929 53.3243 113.023C53.0449 113.111 52.7461 113.071 52.661 112.933C52.5755 112.795 52.2672 112.744 51.9754 112.82C51.6661 112.901 51.4453 112.828 51.4453 112.646C51.4453 112.457 51.243 112.396 50.9377 112.493C50.6582 112.581 50.3559 112.535 50.2659 112.39C50.1759 112.245 49.9273 112.193 49.7135 112.275C49.4992 112.357 49.3242 112.279 49.3242 112.103C49.3242 111.925 49.1452 111.849 48.9264 111.933C48.7076 112.017 48.5286 111.958 48.5286 111.801C48.5286 111.644 48.3531 111.583 48.1393 111.665C47.925 111.747 47.6794 111.7 47.5934 111.561C47.5068 111.421 47.1936 111.308 46.8963 111.308C46.5994 111.308 46.0261 111.073 45.6224 110.786C45.2186 110.498 44.8124 110.339 44.7194 110.432C44.627 110.525 44.5509 110.455 44.5509 110.276C44.5509 110.098 44.434 110.024 44.2908 110.112C44.001 110.291 42.9294 109.796 42.6391 109.349C42.5361 109.19 42.2975 109.047 42.109 109.032C41.9206 109.016 41.5661 108.986 41.3209 108.963C41.0763 108.941 40.6671 108.714 40.412 108.459C40.1569 108.204 39.8536 107.996 39.7388 107.996C39.6234 107.996 39.3082 107.817 39.0377 107.598C38.7677 107.38 38.3759 107.164 38.1676 107.12C37.9592 107.076 37.6326 106.837 37.4421 106.59C37.2517 106.343 36.9235 106.176 36.7132 106.219C36.5024 106.262 36.3298 106.116 36.3298 105.896C36.3298 105.66 36.1762 105.554 35.9564 105.638C35.7312 105.725 35.5124 105.562 35.4065 105.229C35.31 104.925 35.1181 104.746 34.9804 104.831C34.7517 104.972 33.2799 103.979 31.9543 102.789C31.6629 102.527 30.9768 101.94 30.4298 101.484C29.8829 101.028 29.4354 100.488 29.4354 100.284C29.4354 100.081 29.3146 99.9142 29.1669 99.9142C28.6224 99.9142 24.0669 95.0447 23.5284 93.8866C23.3758 93.5587 23.1505 93.2905 23.0282 93.2905C22.9059 93.2905 22.8055 93.1216 22.8055 92.9149C22.8055 92.7087 22.6986 92.5001 22.5678 92.4514C21.9045 92.205 17.5021 84.0938 17.5021 83.1176C17.5021 82.901 17.3917 82.6556 17.2575 82.5726C16.8925 82.3471 15.8454 79.0379 16.0398 78.724C16.1318 78.5749 16.0985 78.4527 15.9657 78.4527C15.6535 78.4527 14.8395 75.4158 14.4393 72.7565C14.3736 72.3193 14.2563 71.6039 14.1787 71.1667C13.7108 68.5263 13.5751 63.5484 13.8749 60.0385C13.9868 58.727 14.0837 57.3558 14.0902 56.9912C14.0962 56.627 14.2046 56.2043 14.3309 56.0518C14.4572 55.8992 14.5546 55.5415 14.5476 55.2569C14.5407 54.9722 14.6098 54.4411 14.7013 54.077C14.7923 53.7123 14.9827 52.831 15.1239 52.1181C16.0831 47.2813 20.5277 37.6748 23.3087 34.4283C23.4762 34.2325 24.0445 33.5062 24.5711 32.8142C25.0977 32.1217 25.6317 31.5553 25.758 31.5553C25.8843 31.5553 25.9902 31.4063 25.9926 31.2244C25.9956 31.0421 27.1591 29.7827 28.5782 28.425C29.9978 27.0678 31.4616 25.6668 31.832 25.3121C32.2019 24.9569 32.6365 24.6668 32.7981 24.6668C32.9592 24.6668 33.1645 24.4755 33.254 24.2415C33.3475 23.9991 33.5872 23.8818 33.8129 23.9683C34.0501 24.0592 34.2087 23.9683 34.2087 23.7402C34.2087 23.3145 35.1072 22.7387 35.3672 22.998C35.4592 23.0899 35.5343 22.9538 35.5343 22.695C35.5343 22.3865 35.671 22.2777 35.9321 22.378C36.1648 22.4669 36.3298 22.3815 36.3298 22.1719C36.3298 21.8678 36.9449 21.5245 37.732 21.3904C37.8464 21.3705 38.0254 21.2235 38.1298 21.063C38.3257 20.761 39.5006 20.0555 39.8352 20.0391C39.9397 20.0341 40.2579 19.831 40.5418 19.588C40.8262 19.3451 41.128 19.2159 41.2135 19.3009C41.2986 19.3858 41.3687 19.3098 41.3687 19.131C41.3687 18.9526 41.488 18.8801 41.6337 18.97C41.7794 19.0599 41.8987 19.0003 41.8987 18.8374C41.8987 18.6744 42.018 18.6148 42.1642 18.7052C42.3099 18.7951 42.4292 18.7355 42.4292 18.5726C42.4292 18.4096 42.5401 18.345 42.6759 18.429C42.8121 18.5125 42.9991 18.4583 43.092 18.3078C43.1855 18.1573 43.3725 18.1026 43.5082 18.1866C43.6439 18.2705 43.7553 18.2208 43.7553 18.0763C43.7553 17.8393 44.3813 17.5442 45.1804 17.4036C45.3444 17.3748 45.8775 17.1408 46.3647 16.883C46.852 16.6251 47.4069 16.4746 47.5983 16.5481C47.7898 16.6212 48.0274 16.6003 48.1269 16.5009C48.2263 16.4016 48.3869 16.3146 48.4844 16.3072C48.5813 16.2997 49.2426 16.022 49.9532 15.6897C50.6642 15.3573 51.768 15.0652 52.4064 15.0404C53.0449 15.016 53.567 14.8983 53.567 14.7791C53.567 14.6598 53.8205 14.6429 54.1303 14.7413C54.4555 14.8441 54.7732 14.7915 54.8816 14.6166C54.985 14.4497 55.7159 14.2529 56.506 14.1799C57.2961 14.1069 58.476 13.9623 59.1279 13.859C60.8547 13.5848 67.6263 13.7209 70.4724 14.0865ZM62.053 20.992C61.688 21.1385 60.8935 21.1852 60.2864 21.0953C59.5903 20.992 59.1149 21.0411 58.9996 21.2279C58.8817 21.4182 58.4342 21.4599 57.7491 21.3442C57.0733 21.2304 56.7412 21.2597 56.8431 21.4247C56.9361 21.5752 56.422 21.7625 55.624 21.8683C54.8642 21.9687 54.091 22.1773 53.9051 22.3313C53.6589 22.5355 53.5645 22.5127 53.5585 22.2484C53.5525 21.986 53.4526 22.0129 53.201 22.3442C53.0086 22.5966 52.7769 22.7288 52.6854 22.6373C52.5939 22.5459 52.3423 22.618 52.1265 22.7968C51.9107 22.9762 51.6194 23.0517 51.4796 22.9657C51.3399 22.8793 51.1838 22.9339 51.1326 23.0869C51.0819 23.24 50.7433 23.3855 50.3808 23.4104C50.0183 23.4347 49.5574 23.6155 49.356 23.8113C49.1551 24.007 48.8344 24.1074 48.644 24.0343C48.4536 23.9613 48.2581 24.0194 48.2104 24.1635C48.1622 24.3076 47.8559 24.4452 47.5302 24.47C47.204 24.4944 46.9375 24.6151 46.9375 24.7388C46.9375 24.862 46.8182 24.8893 46.672 24.7989C46.5263 24.709 46.407 24.7472 46.407 24.8839C46.407 25.0205 46.0192 25.2887 45.5453 25.4805C45.071 25.6723 44.6235 25.9013 44.5509 25.9902C44.2277 26.3842 42.3855 27.3609 42.2403 27.2158C42.1518 27.1269 41.9111 27.2943 41.7058 27.5874C41.5004 27.88 41.221 28.0514 41.0853 27.9675C40.9495 27.8835 40.8381 27.9411 40.8381 28.0956C40.8381 28.2496 40.7357 28.3758 40.6099 28.3758C40.4846 28.3758 39.9392 28.7931 39.3977 29.3033C38.8567 29.8135 38.3103 30.2309 38.184 30.2309C38.0577 30.2309 37.5948 30.5587 37.1547 30.9592C35.5606 32.4118 32.3521 35.5913 32.3521 35.7189C32.3521 35.791 31.7405 36.5809 30.9932 37.4751C28.5429 40.4052 25.1996 46.7791 24.5433 49.7713C24.4393 50.2447 24.232 50.6322 24.0823 50.6322C23.9322 50.6322 23.877 50.8076 23.959 51.0212C24.0411 51.2353 23.9923 51.4817 23.8506 51.5697C23.7084 51.6571 23.6647 51.8449 23.7522 51.987C23.8402 52.1291 23.7989 52.3894 23.6602 52.5648C23.5215 52.7406 23.4076 53.0635 23.4066 53.2821C23.4056 53.5007 23.2107 54.5986 22.9725 55.7219C22.7349 56.8446 22.5405 58.1065 22.5405 58.5258C22.5405 58.9446 22.4679 59.3599 22.3794 59.4488C22.2909 59.5373 22.2247 61.2562 22.2322 63.2682C22.2446 66.5793 22.5002 68.9321 23.4359 74.3462C23.4862 74.6373 23.6 75.0546 23.6885 75.2732C23.777 75.4918 24.0913 76.5649 24.3876 77.6578C24.9838 79.8591 26.3337 83.3481 27.1696 84.8474C28.6389 87.4839 29.5746 89.0056 30.2663 89.884C30.6844 90.415 31.0265 90.9218 31.0265 91.0102C31.0265 91.4066 38.0194 98.5898 38.4052 98.5898C38.5599 98.5898 38.8746 98.858 39.1043 99.1859C39.3345 99.5138 39.5792 99.7533 39.6483 99.718C39.8805 99.6003 42.6943 101.517 42.6943 101.793C42.6943 101.943 42.8146 101.991 42.9613 101.9C43.1825 101.764 44.5986 102.553 45.0809 103.081C45.154 103.161 45.333 103.233 45.4787 103.241C46.1385 103.278 47.2025 103.705 47.2025 103.933C47.2025 104.071 47.3219 104.111 47.4676 104.021C47.6137 103.931 47.7331 103.958 47.7331 104.082C47.7331 104.205 47.9598 104.323 48.2373 104.344C48.5147 104.365 49.2605 104.618 49.895 104.906C50.5289 105.195 51.4965 105.515 52.045 105.617C52.5934 105.72 53.0981 105.893 53.1657 106.003C53.2338 106.113 53.6082 106.142 53.9981 106.067C54.4828 105.974 54.6479 106.026 54.5211 106.231C54.3918 106.441 54.5793 106.482 55.1446 106.369C55.6975 106.258 55.9536 106.311 55.9536 106.535C55.9536 106.766 56.2276 106.811 56.8819 106.689C57.4388 106.584 57.8097 106.62 57.8097 106.779C57.8097 106.94 58.3253 106.982 59.1358 106.886C60.0427 106.779 60.4619 106.825 60.4619 107.031C60.4619 107.446 66.9859 107.453 67.2425 107.039C67.3603 106.847 67.8794 106.804 68.7162 106.915C69.5705 107.028 70.0085 106.99 70.0085 106.8C70.0085 106.617 70.3412 106.577 70.9363 106.689C71.5907 106.811 71.8646 106.766 71.8646 106.535C71.8646 106.311 72.1207 106.258 72.6736 106.369C73.1181 106.458 73.4189 106.428 73.3414 106.303C73.2131 106.095 75.4824 105.654 75.8807 105.809C75.9752 105.846 76.2964 105.655 76.5947 105.385C76.893 105.115 77.4425 104.877 77.8154 104.855C78.1888 104.833 78.4941 104.714 78.4941 104.589C78.4941 104.464 78.6731 104.431 78.8918 104.515C79.1106 104.599 79.2896 104.544 79.2896 104.395C79.2896 104.245 79.409 104.196 79.5551 104.286C79.7008 104.376 79.8202 104.324 79.8202 104.169C79.8202 104.015 79.9096 103.913 80.019 103.943C80.1284 103.973 80.5998 103.794 81.0667 103.546C81.5336 103.297 82.1004 103.094 82.3261 103.094C82.5524 103.094 82.7373 102.968 82.7373 102.814C82.7373 102.659 82.8462 102.6 82.9795 102.682C83.1132 102.765 83.2624 102.742 83.3111 102.632C83.4111 102.407 86.3566 100.444 86.5938 100.444C86.6778 100.444 86.6609 100.582 86.557 100.75C86.4396 100.94 86.4844 100.984 86.6738 100.867C86.8424 100.763 86.9801 100.532 86.9801 100.353C86.9801 100.175 87.3679 99.802 87.8418 99.5247C88.3161 99.247 88.8347 98.8456 88.9948 98.632C89.1554 98.4184 89.424 98.3285 89.5915 98.4323C89.77 98.5426 89.8973 98.4566 89.8973 98.2256C89.8973 97.7954 91.3233 96.6587 91.563 96.8977C91.644 96.9792 91.8539 96.7665 92.0289 96.4262C92.4858 95.539 93.9163 94.0853 94.333 94.0853C94.5279 94.0853 94.773 93.8643 94.8779 93.594C95.1967 92.7708 96.9031 90.658 97.2561 90.649C97.4381 90.6445 97.5873 90.4657 97.5873 90.2516C97.5873 90.0375 98.1094 89.0538 98.7468 88.0657C100.374 85.5449 101.381 83.4639 102.38 80.5606C102.854 79.1825 103.33 77.936 103.438 77.7905C103.545 77.6449 103.845 76.4228 104.103 75.0745C104.361 73.7267 104.669 72.6238 104.786 72.6238C104.903 72.6238 104.928 72.2661 104.84 71.8289C104.741 71.3312 104.79 71.0341 104.973 71.0341C105.155 71.0341 105.205 70.7385 105.107 70.2472C105.02 69.8149 105.028 69.2561 105.125 69.0057C105.393 68.3057 105.442 58.5809 105.177 58.5809C105.049 58.5809 105.011 58.1661 105.093 57.6584C105.176 57.1497 105.122 56.6618 104.974 56.5699C104.826 56.4785 104.776 56.1183 104.864 55.7701C104.962 55.3806 104.907 55.1366 104.721 55.1366C104.543 55.1366 104.472 54.8664 104.547 54.4744C104.617 54.1098 104.589 53.8117 104.485 53.8117C104.381 53.8117 104.089 53.0069 103.837 52.0232C103.585 51.0396 103.277 49.9963 103.153 49.7052C101.277 45.2877 100.512 43.7243 99.1113 41.4455C97.633 39.0395 94.3469 34.7298 92.9632 33.381C92.6802 33.1058 92.5609 32.8798 92.6976 32.8793C92.8349 32.8788 92.5883 32.6597 92.1497 32.3924C91.7112 32.1256 90.8893 31.4704 90.3224 30.9363C89.7561 30.4027 89.2196 29.9651 89.1306 29.9646C89.0416 29.9636 88.5285 29.5592 87.9905 29.0654C87.4525 28.5716 86.9483 28.2313 86.8697 28.3097C86.7917 28.3877 86.6525 28.2566 86.561 28.0181C86.469 27.7792 86.2865 27.6505 86.1547 27.732C86.0235 27.813 85.844 27.6932 85.7565 27.4652C85.6689 27.2377 85.3726 27.0514 85.0976 27.0514C84.8227 27.0514 84.4562 26.8248 84.2832 26.5476C84.1102 26.2709 83.8108 26.1045 83.6179 26.1785C83.4255 26.2525 83.2674 26.181 83.2674 26.0195C83.2674 25.8586 83.1182 25.7562 82.9362 25.7925C82.7537 25.8293 82.6374 25.7011 82.6777 25.5078C82.7175 25.3151 82.6359 25.2276 82.4957 25.3141C82.2287 25.479 79.752 24.4144 79.5984 24.0686C79.5497 23.9588 79.3871 23.9439 79.2374 24.0363C79.0877 24.1287 78.8734 24.0562 78.7611 23.8744C78.6487 23.693 78.1679 23.4993 77.6921 23.4441C77.2162 23.3885 76.6648 23.2092 76.4669 23.0452C76.2695 22.8813 76.1074 22.8356 76.1074 22.9444C76.1074 23.0532 75.9473 23.009 75.7519 22.8465C75.556 22.6845 75.3178 22.6294 75.2229 22.7243C75.1279 22.8192 74.7982 22.6691 74.4905 22.3909C74.1822 22.1122 73.8834 21.9145 73.8257 21.9508C73.768 21.987 73.6313 22.0049 73.5219 21.9905C73.2837 21.9592 71.9725 21.8514 71.1198 21.7938C70.7767 21.7704 70.5813 21.6328 70.6753 21.4808C70.7852 21.303 70.4724 21.2687 69.7629 21.3824C69.0976 21.4888 68.6824 21.452 68.6824 21.2871C68.6824 20.911 67.3966 20.7053 67.2773 21.062C67.2072 21.2722 66.8298 21.2612 65.9383 21.0233C64.475 20.6328 62.9768 20.6209 62.053 20.992ZM59.5336 40.9482C59.5336 48.9188 59.7613 48.2372 57.0977 48.2441C55.434 48.2486 54.4276 48.5969 53.6331 49.4434C53.0742 50.0395 52.7963 51.4261 53.2353 51.4281C53.3447 51.4286 53.6659 51.7738 53.9483 52.1956C54.2312 52.6169 54.6191 52.9021 54.8105 52.8285C55.0014 52.7555 55.1581 52.8355 55.1581 53.0064C55.1581 53.223 55.7453 53.296 57.0853 53.2463C58.1449 53.2066 59.1468 53.2578 59.3113 53.3591C59.5699 53.5186 59.6007 60.3778 59.3427 60.273C58.7768 60.0435 56.1794 59.6411 55.2655 59.6411C51.8729 59.6411 51.8391 63.9344 55.2272 64.5464C57.5462 64.9652 58.0752 65.1645 58.0752 65.6205C58.0752 65.8292 58.2254 66.0001 58.4089 66.0001C59.3586 66.0001 59.4764 66.9867 59.4436 74.6806C59.4098 82.6546 59.2666 83.5702 58.1931 82.6799C57.6889 82.2621 56.2186 80.0961 56.2186 79.7712C56.2186 79.6366 55.8606 79.3415 55.4231 79.1154C54.9855 78.8894 54.6275 78.5878 54.6275 78.4463C54.6275 78.3042 54.4157 78.1879 54.1562 78.1879C53.8971 78.1879 53.4198 78.0021 53.0951 77.7751C52.7709 77.548 52.3945 77.4308 52.2588 77.5143C52.1235 77.5982 51.9376 77.5456 51.8461 77.3975C51.6243 77.0393 49.4032 77.0508 49.1805 77.4109C49.084 77.5669 48.818 77.6226 48.5893 77.5346C48.3601 77.4467 48.0931 77.5043 47.9956 77.6623C47.8977 77.8203 47.5601 77.9688 47.2448 77.9927C46.9301 78.0165 46.672 78.1298 46.672 78.2441C46.672 78.3588 46.5527 78.4527 46.4065 78.4527C45.7144 78.4527 42.4929 82.9323 42.8956 83.3347C42.9722 83.4112 42.9026 83.6338 42.741 83.8285C42.5705 84.0337 42.5133 84.5941 42.6053 85.1599C42.9359 87.1963 40.5721 85.5832 38.9969 82.6978C38.3118 81.4419 38.002 77.5505 38.5842 77.5118C41.4875 77.3185 42.4979 76.2117 42.0071 73.7615C41.7172 72.3113 38.9477 71.8389 37.7509 73.0347C37.0195 73.7655 36.0101 73.4808 35.6069 72.4301C35.5164 72.1946 35.229 71.7887 34.9685 71.5284C33.2436 69.805 33.3878 62.7918 35.1624 62.1116C35.3672 62.0332 35.5343 61.8026 35.5343 61.6C35.5343 61.3968 35.6492 61.2308 35.7889 61.2308C35.9291 61.2308 36.3169 60.9392 36.6506 60.583C37.2885 59.9034 38.7165 59.2312 38.7165 59.6108C38.7165 59.7325 39.0302 59.7727 39.4131 59.6992C40.0903 59.57 40.1042 59.5944 39.9307 60.5974C39.6776 62.057 39.6085 64.4704 39.8064 64.9399C40.9898 67.7513 42.6202 70.0951 43.3973 70.1031C43.6037 70.1051 43.8717 70.266 43.9925 70.4608C44.1133 70.655 44.3182 70.8075 44.448 70.7991C45.0869 70.7579 46.6481 71.124 46.5447 71.2904C46.4801 71.3952 47.6844 71.4886 49.2213 71.4981C50.7582 71.5075 51.9614 71.4613 51.8953 71.3952C51.8292 71.3292 52.1186 70.9322 52.5387 70.5124C53.3929 69.659 53.4949 68.8531 52.8992 67.6598C52.4253 66.7105 52.2021 66.636 49.5892 66.5545C46.487 66.4581 44.0835 64.9493 44.6558 63.459C44.7348 63.2533 44.6836 63.0854 44.5424 63.0854C44.4012 63.0854 44.2854 62.8469 44.2854 62.5553C44.2854 62.2642 44.4117 62.0257 44.5663 62.0257C44.7209 62.0257 44.7751 61.909 44.6866 61.7659C44.5116 61.4827 45.0327 59.4309 45.4056 58.9356C45.5428 58.7538 45.5234 58.5581 45.3594 58.4567C45.2062 58.3623 45.0809 58.0494 45.0809 57.7617C45.0809 56.95 43.4918 55.5291 42.6192 55.5609C42.2135 55.5758 41.8187 55.4864 41.7421 55.3622C41.5507 55.0527 39.8457 55.0765 39.6513 55.3915C39.5538 55.5485 39.2525 55.555 38.8672 55.4084C38.5226 55.2777 38.1949 55.2161 38.1392 55.2718C37.5918 55.8192 38.2088 50.508 38.8125 49.4792C39.7567 47.869 40.8073 46.6579 41.2593 46.6579C41.4651 46.6579 41.6337 46.5327 41.6337 46.3797C41.6337 46.1303 42.3029 45.7865 43.8876 45.2226C44.1795 45.1188 44.4475 45.0413 44.4838 45.0502C44.79 45.1257 45.8765 43.7884 45.8765 43.3358C45.8765 42.3998 47.4228 39.7122 48.5475 38.6928C49.1203 38.1736 49.5892 37.6117 49.5892 37.4438C49.5892 37.2754 49.8279 37.0106 50.1197 36.8546C50.4111 36.6986 50.6498 36.6509 50.6498 36.7488C50.6498 36.8467 50.9625 36.6142 51.3449 36.2326C51.7272 35.8506 52.1375 35.5982 52.2568 35.6722C52.3761 35.7458 52.5785 35.6186 52.7068 35.3901C52.8346 35.1615 53.2 34.9549 53.5182 34.9305C53.837 34.9067 54.0975 34.7795 54.0975 34.6479C54.0975 34.5162 54.3362 34.4705 54.6275 34.547C54.9194 34.623 55.1581 34.5634 55.1581 34.4144C55.1581 34.2653 55.3967 34.2057 55.6881 34.2817C55.98 34.3577 56.2853 34.312 56.3668 34.1804C56.4483 34.0482 57.1942 33.9399 58.0245 33.9404H59.5336V40.9482ZM70.8041 34.1983C70.8041 34.3418 71.1437 34.389 71.5673 34.3041C71.988 34.2201 72.4086 34.2772 72.5041 34.4318C72.599 34.5858 72.8521 34.6449 73.0664 34.5624C73.2807 34.4804 73.4557 34.5415 73.4557 34.6985C73.4557 34.855 73.6273 34.9176 73.8371 34.8371C74.0469 34.7567 74.4263 34.933 74.6799 35.2291C74.934 35.5252 75.2373 35.7085 75.3551 35.636C75.9772 35.2515 80.3507 39.0773 80.3507 40.0058C80.3507 40.1672 80.4571 40.2989 80.5869 40.2989C80.9603 40.2989 81.7116 42.4207 81.5351 42.9766C81.4466 43.2553 81.5013 43.4784 81.6584 43.4784C81.814 43.4784 81.9418 43.7168 81.9418 44.0085C81.9418 44.3001 82.0805 44.5385 82.2501 44.5385C82.7627 44.5385 84.5935 45.4184 84.5935 45.6648C84.5935 45.791 84.6969 45.8307 84.8227 45.7527C85.1692 45.5391 87.4619 47.1472 87.6484 47.7344C87.7379 48.0166 87.9079 48.2476 88.0263 48.2476C88.4071 48.2476 89.3499 50.7927 89.5269 52.3C89.7377 54.0919 89.4538 56.2818 89.0436 56.0284C88.8631 55.9166 88.8313 55.9733 88.9581 56.1784C89.0699 56.3593 88.9417 56.9947 88.6727 57.5903C88.3042 58.4066 88.2654 58.7002 88.515 58.7831C88.697 58.8437 89.0441 59.0911 89.2862 59.3336C89.5284 59.5755 89.8247 59.7881 89.9445 59.8065C90.0644 59.8249 90.2817 59.8547 90.4273 59.8726C90.5735 59.891 90.6929 60.0917 90.6929 60.3187C90.6929 60.5462 90.7953 60.6685 90.9206 60.5915C91.2284 60.4012 92.4142 61.7659 93.2665 63.2905C94.2699 65.0865 94.3728 68.1745 93.4937 70.0956C92.817 71.5731 91.7768 72.7435 92.1308 71.6282C92.2457 71.2661 92.2089 71.0341 92.0363 71.0341C91.8807 71.0341 91.7534 70.81 91.7534 70.5363C91.7534 68.5516 87.5743 63.5673 86.3143 64.0501C86.0971 64.1336 85.7107 64.1122 85.4551 64.0029C84.7824 63.7148 82.1238 63.6477 81.7882 63.9105C81.631 64.0337 81.273 64.1788 80.9926 64.2325C80.1622 64.3924 79.496 64.7342 78.947 65.2822C78.5279 65.7015 78.3887 65.7298 78.2017 65.4352C78.0202 65.1486 77.971 65.1674 77.968 65.5261C77.961 66.2728 76.1919 66.55 71.9422 66.4705L68.0196 66.3975L68.0226 63.9692C68.0256 61.6447 68.8853 59.6669 69.5879 60.3689C69.6664 60.4474 69.9071 60.3649 70.1234 60.1856C70.3988 59.9571 71.4286 59.8865 73.5776 59.9491C75.2611 59.9983 76.6385 59.9352 76.6385 59.8085C76.638 59.6823 76.8707 59.6401 77.1556 59.7146C77.4405 59.7886 77.709 59.7727 77.7522 59.6788C77.7955 59.5854 78.3056 59.27 78.8854 58.9784C80.7882 58.022 82.8989 55.4203 83.1844 53.6796C83.6602 50.7738 83.4295 48.9198 82.3276 46.7905C81.1587 44.5316 79.3901 42.4187 78.6676 42.4187C78.4264 42.4187 78.2291 42.2925 78.2291 42.138C78.2291 41.984 78.1147 41.9284 77.9745 42.0148C77.8348 42.1013 77.4927 42.0297 77.2142 41.8558C76.9358 41.6825 76.5122 41.6154 76.2725 41.7073C76.0328 41.7992 75.7678 41.8683 75.6833 41.8603C75.3283 41.828 73.9863 43.6185 73.9863 44.1237C73.9863 44.7303 75.6231 46.5883 76.6479 47.1452C78.7591 48.2923 79.3985 51.6497 77.884 53.6338C77.4758 54.1689 76.9785 54.6066 76.7792 54.6066C76.5798 54.6066 76.3774 54.7104 76.3287 54.8366C76.2009 55.1694 75.0468 55.4844 75.0468 55.1868C75.0468 55.0368 74.3597 55.0651 73.3329 55.2579C72.3902 55.4352 71.525 55.4869 71.4102 55.3726C71.2953 55.2589 70.4859 55.1292 69.6112 55.085L68.0201 55.004L68.0182 52.5305C68.0162 49.5472 67.9669 49.6396 69.6112 49.5418C70.996 49.4593 71.5922 49.0171 71.9785 47.7851C72.2376 46.9584 71.6101 45.3334 71.0313 45.3334C70.7777 45.3334 70.4883 45.2008 70.3879 45.0393C70.2845 44.8719 69.8415 44.8038 69.3601 44.8823C68.0167 45.0999 67.8869 44.6245 67.8869 39.4906C67.8869 34.1898 67.965 33.9399 69.6197 33.9399C70.2711 33.9399 70.8041 34.0562 70.8041 34.1983ZM49.899 41.0118C49.4594 41.1872 47.4487 43.3368 47.0086 44.1028C44.8835 47.798 44.703 50.5801 46.488 52.1266C47.0937 52.6512 48.2631 52.8897 48.2631 52.4882C48.2631 52.3616 48.4719 52.1917 48.7275 52.1107C49.2978 51.9298 49.7627 50.8826 49.9651 49.3227C50.1192 48.1388 51.0769 46.477 52.0922 45.634C52.393 45.3841 52.7769 44.9459 52.9454 44.6602C53.1145 44.3746 53.3532 44.161 53.476 44.1853C53.5988 44.2092 53.6997 43.7124 53.6997 43.0809C53.6997 42.4495 53.653 41.9795 53.5963 42.0362C53.5396 42.0928 53.1428 41.8444 52.7142 41.4837C51.9714 40.8593 50.781 40.6596 49.899 41.0118ZM84.8739 68.8894C86.1682 69.1065 87.4147 71.6327 87.1119 73.4247C86.9065 74.6368 87.4614 75.8758 88.6642 76.8938C89.8018 77.8561 89.4801 83.2219 88.2848 83.2219C88.1506 83.2219 88.0407 83.3824 88.0407 83.5786C88.0407 84.0302 85.6888 86.1893 85.3945 86.0075C85.2747 85.9334 85.0927 85.1271 84.9907 84.216C84.7053 81.666 81.5475 76.2857 80.7838 77.0483C80.7162 77.1158 80.3825 77.018 80.0419 76.8312C79.0201 76.2703 77.1476 75.9176 76.5037 76.1645C76.2829 76.2494 76.0328 76.3125 75.9483 76.3046C75.7002 76.2822 74.2508 77.9922 74.2558 78.3017C74.2697 79.2267 75.4963 80.7087 76.3133 80.7881C76.7836 80.8338 77.1685 80.9898 77.1685 81.1349C77.1685 81.28 77.2853 81.3267 77.428 81.2382C77.782 81.0196 78.8123 81.5974 78.6204 81.9074C78.5358 82.0445 78.6378 82.0907 78.8466 82.0103C79.8346 81.6317 80.7251 85.3914 80.2115 87.7736C79.848 89.4582 77.3674 92.7604 76.4649 92.7604C76.2929 92.7604 76.1099 92.8861 76.0587 93.0401C76.0075 93.1936 75.7887 93.3461 75.5724 93.3784C75.3561 93.4112 75.0304 93.5309 74.848 93.6447C74.6655 93.7584 74.397 93.7778 74.2513 93.6879C74.1056 93.598 73.9863 93.6477 73.9863 93.7982C73.9863 93.9611 73.6641 94.0078 73.1907 93.913C72.6836 93.8116 72.3952 93.8623 72.3952 94.0521C72.3952 94.2498 71.6339 94.3501 70.1408 94.3501H67.8869V92.3734C67.8869 89.8293 68.2489 89.4234 70.5624 89.3762C72.5274 89.3355 73.4557 88.5814 73.4557 87.0249C73.4557 86.0482 72.7482 84.5583 72.2714 84.5315C72.1207 84.523 71.1024 84.4932 70.0085 84.4654L68.0196 84.4142L67.9416 79.5129C67.8526 73.912 67.9212 73.3119 68.7739 72.2482L69.393 71.4747L73.9435 71.5378C77.2898 71.584 78.4941 71.518 78.4941 71.2889C78.4941 71.1175 78.6731 71.046 78.8918 71.13C79.1106 71.2139 79.2896 71.1598 79.2896 71.0102C79.2896 70.8602 79.3965 70.8041 79.5273 70.8845C79.6576 70.965 79.8331 70.8527 79.9166 70.6352C80.0001 70.4176 80.2513 70.2392 80.475 70.2392C80.6983 70.2392 80.8807 70.0882 80.8807 69.9034C80.8807 69.106 82.9825 68.5725 84.8739 68.8894ZM51.9759 82.8523C51.9759 83.056 52.133 83.2219 52.3249 83.2219C52.5168 83.2219 52.938 83.8593 53.2612 84.6383C54.27 87.0701 55.3913 87.9673 57.2026 87.7934C59.5217 87.5709 59.6664 87.7775 59.6664 91.3127V94.3501H57.6929C56.5647 94.3501 55.6438 94.2274 55.5424 94.064C55.445 93.9065 55.08 93.8489 54.7315 93.9363C54.3541 94.0312 54.0975 93.979 54.0975 93.8076C54.0975 93.6402 53.8752 93.59 53.567 93.6879C53.2507 93.7883 53.0364 93.7356 53.0364 93.5578C53.0364 93.3933 52.926 93.3272 52.7913 93.4107C52.4204 93.6397 51.1803 92.9924 51.1803 92.5701C51.1803 92.3659 51.0595 92.274 50.9118 92.3649C50.617 92.5473 48.2631 90.3271 48.2631 89.8671C48.2631 89.7096 48.1497 89.5809 48.0105 89.5809C47.3736 89.5809 46.9728 86.2449 47.4571 84.9721C48.2149 82.981 51.9759 81.2169 51.9759 82.8523ZM5.76775 110.502C5.36649 110.629 5.03832 110.674 5.03832 110.603C5.03832 110.532 4.72408 110.721 4.33973 111.024C3.95538 111.326 3.52578 111.573 3.38507 111.573C2.94801 111.573 1.72237 113.05 1.04515 114.394C0.689145 115.101 0.338108 115.739 0.265017 115.812C0.191925 115.885 0.13226 116.66 0.13226 117.534C0.13226 118.408 0.191925 119.183 0.265017 119.256C0.338108 119.329 0.612075 119.852 0.874607 120.418C1.51602 121.803 3.20458 123.741 3.77887 123.752C4.03394 123.756 4.24377 123.85 4.24476 123.959C4.25371 124.831 8.64267 125.007 9.87776 124.185C10.279 123.918 10.6092 123.803 10.6112 123.929C10.6136 124.055 10.7151 124.001 10.8369 123.809C10.9582 123.617 11.2491 123.432 11.4823 123.398C12.3002 123.278 13.686 120.972 14.298 118.711C14.7878 116.903 12.782 111.573 11.6116 111.573C11.4907 111.573 10.9473 111.301 10.4028 110.969C9.33231 110.317 7.07792 110.09 5.76775 110.502Z" fill="#7F3E98"/>
<path d="M155.196 26.296C159.974 26.296 164.796 26.3387 169.66 26.424C174.524 26.424 179.302 26.5093 183.996 26.68C188.689 26.8507 193.084 27.1493 197.18 27.576L196.284 41.784H162.364C160.23 41.784 158.609 42.3387 157.5 43.448C156.476 44.5573 155.964 46.1787 155.964 48.312V93.368C155.964 95.5013 156.476 97.1227 157.5 98.232C158.609 99.3413 160.23 99.896 162.364 99.896H196.284L197.18 114.104C193.084 114.445 188.689 114.744 183.996 115C179.302 115.171 174.524 115.256 169.66 115.256C164.796 115.341 159.974 115.384 155.196 115.384C149.564 115.384 144.998 113.763 141.5 110.52C138.086 107.192 136.38 102.883 136.38 97.592V44.088C136.38 38.712 138.086 34.4027 141.5 31.16C144.998 27.9173 149.564 26.296 155.196 26.296ZM138.684 62.136H191.548V75.96H138.684V62.136ZM230.732 26.68V115H211.148V26.68H230.732ZM263.5 60.6V75.32H229.708V60.6H263.5ZM281.676 26.68V115H262.092V26.68H281.676ZM369.664 26.68L346.624 62.264C345.685 63.8 344.661 65.1227 343.552 66.232C342.442 67.3413 341.333 68.28 340.224 69.048V69.432C341.418 70.1147 342.698 71.1387 344.064 72.504C345.429 73.8693 346.538 75.32 347.392 76.856L371.2 115H349.312L322.048 68.792L348.544 26.68H369.664ZM319.104 26.68V51.64C319.104 54.5413 318.89 57.4427 318.464 60.344C318.037 63.16 317.354 65.9333 316.416 68.664C317.098 71.3093 317.696 74.04 318.208 76.856C318.805 79.5867 319.104 82.1467 319.104 84.536V115H299.648V26.68H319.104ZM329.088 62.264V75.832H313.216V62.264H329.088Z" fill="#7F3E98"/>
</svg>
