<svg width="351" height="128" viewBox="0 0 351 128" fill="none" xmlns="http://www.w3.org/2000/svg">
<path fill-rule="evenodd" clip-rule="evenodd" d="M68.1447 0C60.6202 0.369771 53.8222 0.304585 46.7131 2.61524C21.4623 9.05379 2.17201 32.8554 0.379123 58.7617C-0.841735 67.3762 0.987512 77.9496 4.40842 86.7812C11.7312 106.206 29.4348 121.788 49.2717 126.08C55.1509 127.216 62.0728 128.164 68.3322 127.738C86.8957 125.92 105.261 116.184 115.639 100.06C132.049 77.0231 129.998 43.2124 111.151 21.9745C100.663 9.70854 85.3311 1.8747 69.4455 0.417969L68.1447 0ZM120.123 2.7207C107.315 3.52295 116.308 23.9578 125.559 14.8183C130.048 10.6323 126.463 1.91892 120.123 2.7207ZM60.8498 13.709C87.4707 11.9174 112.952 34.6032 113.278 61.6231C115.65 89.3764 90.6002 115.531 62.8562 114.206C38.0954 114.305 15.543 93.6835 13.6202 68.7896C11.0912 45.8904 26.4748 22.82 48.1351 16.2892C52.1599 14.7344 56.5582 14.0114 60.8498 13.709ZM63.4084 20.7051C54.5473 21.2169 46.3768 23.682 39.0686 29.2852C16.0359 45.1255 16.7477 82.7864 38.7756 99.168C52.1142 109.417 72.3975 110.034 86.1584 100.426C91.0355 97.5138 97.6261 90.9867 100.331 84.4397C108.575 67.8877 105.847 46.5442 92.5139 33.3636C84.8678 25.3177 74.1765 21.0915 63.4084 20.7051ZM57.6526 33.9219C60.1402 35.5397 61.4895 50.1289 54.675 48.5104C48.4224 53.0556 67.0629 55.8744 57.065 59.8534C44.8359 61.2169 63.2414 65.141 59.0725 72.0802C59.5298 78.7986 59.507 86.7372 53.7932 78.1699C46.018 72.1332 43.2443 87.1979 39.9403 84.5682C33.0505 79.5794 48.3674 70.7524 36.2339 73.3829C26.8858 67.0811 42.1233 51.0078 40.4256 66.9137C42.9158 76.3762 61.4887 67.8779 47.0815 66.2223C41.6947 63.2322 47.1422 53.3159 37.6026 54.7244C39.3382 46.4184 47.0053 40.5699 53.1565 34.9121C54.5377 34.2512 56.1648 34.1833 57.6526 33.9219ZM69.2229 33.9219C77.1897 33.5365 79.5445 41.8992 84.1623 45.6465C92.9568 49.3178 84.42 59.5129 92.8166 63.2734C95.3065 69.0178 91.0535 76.0662 89.0644 66.3511C82.6168 59.682 76.0637 69.0097 68.5509 66.3979C63.2874 57.8391 77.8362 62.0395 81.2167 56.6056C90.5792 49.555 69.7472 34.2173 76.2346 47.1269C85.5348 54.8683 63.3157 60.2622 67.8031 49.9365C77.4602 48.2341 60.3204 40.0426 69.2229 33.9219ZM50.2522 40.832C40.9069 42.7026 47.4196 60.4285 50.3508 47.3331C52.6119 45.3042 55.685 41.1024 50.2522 40.832ZM83.0237 68.7852C92.2399 70.2658 87.4953 95.632 82.6391 79.373C76.1105 71.9066 72.2761 80.1524 79.6705 83.8387C82.4703 90.8824 71.9522 96.6033 67.4944 93.5848C66.0238 88.6037 79.483 86.4121 68.8626 84.4281C66.8453 82.8699 65.3822 70.6364 71.2378 71.4879C75.9338 72.1961 79.2859 70.9903 83.0237 68.7852ZM51.0197 82.1953C52.8358 86.6958 63.9483 90.0687 57.7968 94.332C51.2687 95.5923 40.7362 85.7689 51.0197 82.1953ZM6.63889 110.291C-4.65413 110.936 0.60926 129.526 10.5725 123.791C16.7267 120.529 14.0694 109.319 6.63889 110.291ZM153.244 18.9824C141.848 17.9429 132.576 28.6807 134.471 39.7643C134.667 57.8591 134.068 75.9967 134.79 94.0633C136.619 107.126 151.476 109.38 162.233 108.021C173.21 107.955 184.196 107.828 195.133 106.791C194.835 102.055 194.537 97.3184 194.238 92.582C182.03 92.3283 169.745 93.1049 157.587 92.166C151.638 88.3604 154.828 80.1233 154.01 74.0991C151.889 67.4207 157.464 68.4386 162.229 68.6465C171.324 68.6465 180.419 68.6465 189.514 68.6465C189.514 64.0384 189.514 59.4303 189.514 54.8223C177.679 54.8223 165.845 54.8223 154.01 54.8223C154.507 48.6042 152.739 41.8544 155.543 36.1348C162.773 32.9656 171.258 35.089 179.077 34.4707C184.131 34.4707 189.185 34.4707 194.238 34.4707C194.537 29.7344 194.835 24.998 195.133 20.2617C181.22 18.8482 167.207 19.1575 153.244 18.9824ZM203.071 18.9824C203.071 48.4225 203.071 77.8626 203.071 107.303C209.584 107.303 216.097 107.303 222.61 107.303C222.61 94.0762 222.61 80.8496 222.61 67.623C233.039 67.623 243.469 67.623 253.899 67.623C253.899 80.8496 253.899 94.0762 253.899 107.303C260.412 107.303 266.925 107.303 273.438 107.303C273.438 77.8626 273.438 48.4225 273.438 18.9824C266.925 18.9824 260.412 18.9824 253.899 18.9824C253.899 30.2891 253.899 41.5957 253.899 52.9023C243.469 52.9023 233.039 52.9023 222.61 52.9023C222.61 41.5957 222.61 30.2891 222.61 18.9824C216.097 18.9824 209.584 18.9824 203.071 18.9824ZM279.369 18.9824C279.369 48.4225 279.369 77.8626 279.369 107.303C285.84 107.303 292.311 107.303 298.781 107.303C298.362 94.2535 299.793 81.0506 297.684 68.1348C302.651 67.7017 307.469 67.5282 308.896 73.2861C315.571 84.625 322.247 95.9639 328.922 107.303C336.201 107.303 343.481 107.303 350.76 107.303C341.64 93.2069 333.488 78.4046 323.686 64.8066C315.164 60.2898 329.539 53.8151 331.106 47.0347C337.147 37.684 343.188 28.3332 349.229 18.9824C342.204 18.9824 335.179 18.9824 328.155 18.9824C320.709 30.8438 313.263 42.7051 305.817 54.5664C295.601 57.287 298.418 49.2838 298.781 41.7017C298.781 34.1286 298.781 26.5555 298.781 18.9824C292.311 18.9824 285.84 18.9824 279.369 18.9824Z" fill="#7F3E98"/>
</svg>
