<svg id="svg" xmlns="http://www.w3.org/2000/svg" xmlns:xlink="http://www.w3.org/1999/xlink" width="400" height="400" viewBox="0, 0, 400,400" version="1.1"><g id="svgg"><path id="path0" d="M189.600 72.000 C 189.781 72.293,189.615 72.568,189.231 72.611 C 187.699 72.781,184.192 73.036,182.933 73.069 C 182.200 73.088,181.021 73.396,180.313 73.752 C 179.301 74.262,178.979 74.260,178.806 73.747 C 178.642 73.259,178.267 73.304,177.320 73.925 C 176.581 74.409,175.596 74.610,174.959 74.408 C 174.316 74.204,173.867 74.300,173.867 74.641 C 173.867 74.993,173.343 75.089,172.533 74.886 C 171.659 74.666,171.200 74.774,171.200 75.199 C 171.200 75.556,170.869 75.721,170.465 75.565 C 170.061 75.410,169.521 75.479,169.265 75.718 C 169.009 75.957,167.591 76.405,166.114 76.713 C 164.636 77.021,162.716 77.565,161.847 77.922 C 160.978 78.279,159.967 78.522,159.600 78.462 C 159.233 78.402,158.933 78.604,158.933 78.910 C 158.933 79.216,158.213 79.467,157.333 79.467 C 156.453 79.467,155.733 79.732,155.733 80.057 C 155.733 80.382,155.373 80.509,154.933 80.340 C 154.493 80.172,154.133 80.280,154.133 80.582 C 154.133 80.883,153.891 80.980,153.596 80.797 C 153.300 80.615,152.672 80.851,152.201 81.323 C 151.729 81.795,151.073 82.091,150.743 81.981 C 150.413 81.871,149.810 82.114,149.403 82.521 C 148.996 82.928,148.333 83.135,147.931 82.981 C 147.529 82.826,147.200 82.928,147.200 83.207 C 147.200 83.485,146.600 83.864,145.867 84.048 C 145.133 84.232,144.533 84.622,144.533 84.915 C 144.533 85.208,144.200 85.319,143.792 85.163 C 143.384 85.006,142.595 85.281,142.038 85.773 C 141.481 86.264,140.677 86.746,140.251 86.843 C 139.825 86.940,139.354 87.207,139.205 87.438 C 139.056 87.668,137.853 88.396,136.533 89.056 C 135.213 89.716,133.339 90.851,132.367 91.580 C 131.396 92.308,130.303 92.948,129.938 93.001 C 129.573 93.055,128.702 93.632,128.003 94.283 C 127.304 94.934,126.475 95.467,126.161 95.467 C 125.847 95.467,125.284 95.956,124.911 96.554 C 124.537 97.152,124.012 97.505,123.743 97.339 C 123.474 97.173,122.993 97.524,122.675 98.118 C 122.356 98.713,121.877 99.200,121.609 99.200 C 121.341 99.200,120.479 99.796,119.694 100.523 C 118.908 101.251,118.056 101.717,117.800 101.559 C 117.543 101.400,117.333 101.632,117.333 102.075 C 117.333 102.517,116.433 103.550,115.333 104.370 C 114.233 105.190,113.162 106.102,112.953 106.397 C 112.743 106.692,112.383 106.943,112.153 106.955 C 111.531 106.988,107.733 110.520,107.733 111.065 C 107.733 111.324,107.073 112.258,106.267 113.141 C 105.460 114.025,104.283 115.318,103.651 116.014 C 94.271 126.348,83.377 145.570,78.949 159.600 C 78.601 160.700,78.118 161.600,77.875 161.600 C 77.632 161.600,77.559 162.080,77.712 162.667 C 77.874 163.287,77.728 163.733,77.364 163.733 C 77.019 163.733,76.856 163.926,77.002 164.162 C 77.270 164.596,76.520 168.664,75.901 170.133 C 75.716 170.573,75.611 171.139,75.667 171.389 C 75.724 171.640,75.502 172.170,75.173 172.566 C 74.844 172.962,74.730 173.537,74.919 173.843 C 75.108 174.149,75.075 174.700,74.844 175.067 C 74.614 175.433,74.354 176.813,74.266 178.133 C 74.178 179.453,73.871 181.373,73.583 182.400 C 73.295 183.427,72.904 186.727,72.715 189.733 C 72.526 192.740,72.168 195.200,71.919 195.200 C 71.670 195.200,71.467 195.454,71.467 195.765 C 71.467 196.075,71.707 196.181,72.000 196.000 C 72.293 195.819,72.533 195.925,72.533 196.235 C 72.533 196.546,72.293 196.800,72.000 196.800 C 71.695 196.800,71.467 198.400,71.467 200.533 C 71.467 202.587,71.657 204.267,71.890 204.267 C 72.123 204.267,72.372 205.845,72.443 207.775 C 72.571 211.220,73.131 215.787,74.073 221.067 C 74.335 222.533,74.435 223.924,74.295 224.157 C 74.156 224.390,74.329 224.926,74.680 225.350 C 75.032 225.773,75.183 226.475,75.016 226.909 C 74.850 227.344,74.949 227.845,75.237 228.023 C 75.526 228.201,75.717 228.629,75.663 228.974 C 75.609 229.318,75.711 229.960,75.890 230.400 C 76.628 232.220,77.361 235.791,77.087 236.233 C 76.926 236.495,77.067 236.800,77.401 236.911 C 77.735 237.023,78.037 237.860,78.071 238.771 C 78.105 239.683,78.283 240.336,78.467 240.224 C 78.650 240.111,79.112 241.155,79.493 242.543 C 79.874 243.931,80.479 245.547,80.838 246.133 C 81.196 246.720,81.667 247.800,81.884 248.533 C 84.051 255.855,92.044 269.310,101.992 282.388 C 103.427 284.273,116.566 297.288,118.966 299.200 C 119.886 299.933,121.029 300.953,121.505 301.467 C 121.981 301.980,122.651 302.400,122.995 302.400 C 123.338 302.400,123.757 302.760,123.926 303.200 C 124.095 303.640,124.543 304.000,124.922 304.000 C 125.301 304.000,126.323 304.660,127.193 305.467 C 128.063 306.273,128.941 306.933,129.144 306.933 C 129.348 306.933,130.134 307.472,130.891 308.130 C 131.647 308.788,132.274 309.148,132.284 308.930 C 132.293 308.712,132.653 308.999,133.084 309.569 C 133.514 310.138,133.867 310.432,133.867 310.222 C 133.867 309.544,136.926 311.398,137.265 312.281 C 137.445 312.750,137.827 312.989,138.114 312.812 C 138.593 312.516,141.780 313.851,142.400 314.608 C 142.711 314.987,147.755 317.568,148.378 317.667 C 148.610 317.703,149.143 317.763,149.562 317.800 C 149.981 317.837,150.699 318.242,151.158 318.701 C 151.617 319.159,152.234 319.385,152.529 319.203 C 152.825 319.020,153.067 319.165,153.067 319.524 C 153.067 319.884,153.225 320.020,153.418 319.827 C 153.611 319.634,154.031 319.680,154.351 319.930 C 154.671 320.179,155.758 320.540,156.765 320.731 C 157.772 320.923,159.058 321.496,159.621 322.006 C 160.184 322.516,160.680 322.849,160.723 322.747 C 160.884 322.358,167.467 323.893,167.467 324.319 C 167.467 324.565,167.820 324.631,168.253 324.465 C 168.685 324.299,169.440 324.564,169.930 325.054 C 170.649 325.773,170.908 325.809,171.269 325.239 C 171.616 324.692,171.719 324.686,171.725 325.210 C 171.731 325.657,172.167 325.778,173.008 325.567 C 173.710 325.391,174.430 325.484,174.609 325.773 C 174.788 326.063,175.415 326.174,176.003 326.020 C 176.591 325.867,177.420 326.029,177.844 326.381 C 178.270 326.734,179.116 326.862,179.733 326.667 C 180.349 326.471,181.196 326.598,181.619 326.949 C 182.042 327.300,182.972 327.439,183.694 327.258 C 184.415 327.076,185.161 327.187,185.357 327.505 C 185.553 327.822,186.587 328.029,187.656 327.966 C 190.783 327.781,192.086 327.962,191.733 328.533 C 191.532 328.859,192.340 329.067,193.804 329.067 C 195.124 329.067,196.352 328.827,196.533 328.533 C 196.715 328.240,198.649 328.000,200.831 328.000 C 203.122 328.000,204.800 328.226,204.800 328.533 C 204.800 329.205,209.448 329.243,209.689 328.573 C 209.946 327.858,212.800 327.233,212.800 327.892 C 212.800 328.485,214.834 328.131,215.816 327.367 C 216.154 327.103,217.028 327.037,217.757 327.220 C 218.517 327.411,219.242 327.297,219.453 326.955 C 219.657 326.626,220.294 326.506,220.870 326.689 C 221.447 326.872,222.263 326.735,222.685 326.385 C 223.118 326.026,224.038 325.894,224.793 326.084 C 225.635 326.295,226.133 326.195,226.133 325.815 C 226.133 325.456,226.678 325.313,227.467 325.464 C 228.200 325.604,228.800 325.496,228.800 325.223 C 228.800 324.951,229.280 324.880,229.867 325.067 C 230.520 325.274,230.933 325.163,230.933 324.779 C 230.933 324.413,231.304 324.295,231.824 324.494 C 232.314 324.682,232.877 324.574,233.075 324.253 C 233.274 323.932,234.312 323.623,235.382 323.568 C 236.453 323.512,237.330 323.276,237.331 323.043 C 237.332 322.810,237.633 322.669,238.000 322.729 C 238.367 322.789,239.387 322.520,240.267 322.133 C 241.147 321.745,242.047 321.467,242.267 321.514 C 242.487 321.561,242.667 321.334,242.667 321.010 C 242.667 320.685,243.019 320.554,243.450 320.720 C 243.880 320.885,244.377 320.787,244.553 320.501 C 244.729 320.216,245.097 320.121,245.370 320.289 C 245.643 320.458,245.867 320.328,245.867 320.000 C 245.867 319.672,246.109 319.553,246.404 319.736 C 246.700 319.919,247.331 319.679,247.806 319.203 C 248.282 318.728,248.984 318.459,249.368 318.606 C 249.751 318.753,250.140 318.700,250.232 318.487 C 250.324 318.275,252.200 317.303,254.400 316.328 C 256.600 315.353,258.520 314.372,258.667 314.149 C 259.016 313.618,263.467 311.363,263.467 311.717 C 263.467 311.867,263.954 311.572,264.551 311.061 C 265.147 310.551,265.807 310.133,266.017 310.132 C 266.228 310.131,267.290 309.450,268.377 308.619 C 269.464 307.788,270.577 307.246,270.850 307.415 C 271.122 307.583,271.455 307.304,271.589 306.794 C 271.722 306.284,272.530 305.514,273.383 305.083 C 274.236 304.652,275.368 303.867,275.898 303.338 C 276.429 302.809,277.089 302.516,277.365 302.686 C 277.641 302.857,277.867 302.622,277.867 302.165 C 277.867 301.707,278.073 301.333,278.325 301.333 C 278.577 301.333,279.874 300.373,281.207 299.200 C 282.540 298.027,283.739 297.067,283.872 297.067 C 284.234 297.067,296.000 285.204,296.000 284.839 C 296.000 284.665,297.200 283.231,298.667 281.653 C 300.133 280.074,301.333 278.594,301.333 278.363 C 301.333 278.132,301.636 277.626,302.006 277.238 C 302.377 276.850,303.745 274.882,305.048 272.863 C 306.351 270.844,307.668 268.912,307.975 268.568 C 309.350 267.030,315.288 255.255,317.865 248.957 C 318.550 247.283,319.348 246.060,319.638 246.239 C 319.929 246.419,319.998 246.295,319.791 245.960 C 319.334 245.220,320.515 241.067,321.183 241.067 C 321.447 241.067,321.515 240.827,321.333 240.533 C 321.152 240.240,321.187 239.704,321.410 239.343 C 321.633 238.981,321.846 238.321,321.883 237.876 C 322.012 236.301,323.346 231.192,323.769 230.654 C 324.004 230.353,324.316 229.153,324.462 227.987 C 325.016 223.543,325.479 221.361,325.822 221.572 C 326.017 221.693,326.081 220.969,325.964 219.963 C 325.829 218.812,325.978 218.133,326.366 218.133 C 326.779 218.133,326.868 217.529,326.638 216.301 C 326.449 215.294,326.492 214.154,326.733 213.768 C 327.785 212.088,327.758 187.833,326.702 185.465 C 326.473 184.951,326.435 183.931,326.619 183.199 C 326.828 182.368,326.727 181.867,326.352 181.867 C 325.978 181.867,325.833 181.159,325.968 180.000 C 326.088 178.973,326.021 178.133,325.819 178.133 C 325.436 178.133,324.905 175.764,324.459 172.064 C 324.315 170.870,324.001 169.647,323.760 169.346 C 323.520 169.046,323.147 167.960,322.931 166.933 C 321.543 160.325,315.818 145.697,311.931 138.832 C 309.373 134.313,304.568 126.531,303.733 125.555 C 303.440 125.211,302.840 124.388,302.400 123.724 C 301.349 122.139,299.297 119.589,297.472 117.600 C 296.665 116.720,296.004 115.858,296.002 115.685 C 295.999 115.280,283.666 102.937,283.248 102.921 C 283.075 102.914,282.007 102.074,280.874 101.054 C 279.742 100.034,278.630 99.200,278.403 99.200 C 278.177 99.200,277.865 98.719,277.712 98.131 C 277.549 97.509,277.131 97.178,276.710 97.339 C 276.313 97.492,275.196 96.892,274.228 96.008 C 273.260 95.124,272.242 94.400,271.967 94.400 C 271.692 94.400,271.467 94.160,271.467 93.867 C 271.467 93.573,271.115 93.333,270.685 93.333 C 270.255 93.333,269.084 92.613,268.081 91.733 C 267.079 90.853,265.991 90.133,265.663 90.133 C 265.335 90.133,265.067 89.879,265.067 89.569 C 265.067 89.258,264.827 89.152,264.533 89.333 C 264.240 89.515,264.000 89.395,264.000 89.067 C 264.000 88.739,263.758 88.620,263.463 88.802 C 263.167 88.985,262.782 88.760,262.607 88.304 C 262.432 87.847,262.073 87.606,261.811 87.768 C 261.548 87.930,261.333 87.835,261.333 87.556 C 261.333 87.277,260.733 86.898,260.000 86.714 C 259.267 86.530,258.667 86.130,258.667 85.825 C 258.667 85.520,258.427 85.419,258.133 85.600 C 257.840 85.781,257.600 85.665,257.600 85.341 C 257.600 85.018,257.300 84.815,256.933 84.891 C 256.172 85.049,251.733 83.159,251.733 82.678 C 251.733 82.503,251.197 82.320,250.541 82.271 C 249.886 82.221,249.265 81.929,249.162 81.620 C 249.060 81.312,248.740 81.206,248.452 81.383 C 248.164 81.561,247.620 81.284,247.242 80.767 C 246.827 80.200,246.206 79.960,245.677 80.163 C 245.195 80.348,244.800 80.275,244.800 80.000 C 244.800 79.725,244.440 79.638,244.000 79.807 C 243.560 79.976,243.200 79.834,243.200 79.492 C 243.200 79.150,242.980 79.006,242.711 79.172 C 242.443 79.338,241.543 79.193,240.711 78.849 C 239.880 78.504,239.011 78.203,238.781 78.178 C 238.550 78.153,238.190 77.893,237.981 77.600 C 237.771 77.307,237.360 77.061,237.067 77.054 C 235.088 77.007,231.467 76.109,231.467 75.665 C 231.467 75.370,230.987 75.280,230.400 75.467 C 229.743 75.675,229.333 75.563,229.333 75.174 C 229.333 74.805,228.890 74.658,228.267 74.821 C 227.680 74.975,227.200 74.892,227.200 74.638 C 227.200 74.384,226.420 74.178,225.467 74.181 C 221.758 74.191,221.154 74.115,220.481 73.556 C 220.098 73.239,219.281 73.138,218.667 73.333 C 218.051 73.529,217.204 73.402,216.780 73.050 C 216.301 72.652,215.305 72.545,214.132 72.765 C 212.699 73.034,212.178 72.922,211.936 72.292 C 211.609 71.440,206.933 71.044,206.933 71.868 C 206.933 72.089,204.053 72.282,200.533 72.296 C 197.013 72.311,194.133 72.130,194.133 71.895 C 194.133 71.659,193.039 71.467,191.702 71.467 C 190.217 71.467,189.399 71.674,189.600 72.000 M310.972 77.197 C 309.276 77.505,307.235 78.845,305.686 80.667 C 305.000 81.473,304.100 82.133,303.686 82.133 C 303.272 82.133,302.933 82.599,302.933 83.169 C 302.933 83.738,302.712 84.341,302.441 84.508 C 302.170 84.675,301.791 85.529,301.599 86.406 C 301.406 87.283,301.088 88.001,300.891 88.001 C 300.694 88.002,300.533 89.562,300.533 91.468 C 300.533 93.374,300.665 94.934,300.826 94.934 C 300.987 94.933,301.425 95.780,301.800 96.815 C 302.401 98.478,307.733 104.839,307.733 103.894 C 307.733 103.690,309.091 103.991,310.750 104.562 C 314.532 105.863,315.833 105.862,319.420 104.551 C 320.999 103.973,322.495 103.627,322.745 103.782 C 322.995 103.937,323.200 103.801,323.200 103.482 C 323.200 103.162,324.030 102.172,325.045 101.280 C 326.060 100.389,327.189 98.837,327.552 97.830 C 327.916 96.824,328.375 96.000,328.573 96.000 C 328.770 96.000,328.915 93.960,328.897 91.467 C 328.878 88.973,328.717 86.933,328.539 86.933 C 328.360 86.933,327.902 86.069,327.520 85.013 C 327.138 83.956,326.430 82.675,325.946 82.166 C 325.462 81.656,324.789 80.781,324.450 80.220 C 324.110 79.659,323.546 79.268,323.195 79.352 C 322.844 79.435,322.162 79.075,321.678 78.552 C 320.443 77.213,314.805 76.499,310.972 77.197 M213.200 99.770 C 215.913 100.119,218.133 100.639,218.133 100.926 C 218.133 101.213,218.515 101.301,218.981 101.122 C 219.448 100.943,220.075 100.948,220.374 101.133 C 220.674 101.318,221.907 101.543,223.114 101.633 C 224.322 101.723,225.387 102.027,225.481 102.309 C 225.574 102.590,226.120 102.698,226.692 102.548 C 227.306 102.387,227.733 102.544,227.733 102.928 C 227.733 103.289,228.091 103.444,228.533 103.274 C 228.973 103.105,229.333 103.185,229.333 103.451 C 229.333 103.717,230.406 104.095,231.716 104.292 C 233.027 104.488,234.374 104.981,234.710 105.385 C 235.046 105.790,235.534 105.990,235.794 105.829 C 236.054 105.669,236.267 105.831,236.267 106.191 C 236.267 106.550,236.407 106.704,236.579 106.532 C 237.004 106.107,240.000 107.189,240.000 107.769 C 240.000 108.024,240.329 108.107,240.731 107.953 C 241.133 107.798,241.853 108.063,242.331 108.541 C 242.809 109.019,243.200 109.257,243.200 109.071 C 243.200 108.884,244.160 109.271,245.333 109.931 C 246.507 110.590,247.467 111.318,247.467 111.548 C 247.467 111.778,247.782 111.845,248.168 111.697 C 248.554 111.549,249.574 112.091,250.435 112.901 C 251.296 113.711,252.209 114.310,252.464 114.232 C 253.058 114.051,258.667 117.899,258.667 118.489 C 258.667 118.733,259.034 118.933,259.483 118.933 C 259.933 118.933,260.438 119.293,260.607 119.733 C 260.776 120.173,261.232 120.533,261.621 120.533 C 262.010 120.533,263.912 122.093,265.847 124.000 C 267.782 125.907,269.570 127.467,269.821 127.467 C 270.072 127.467,270.640 128.007,271.084 128.667 C 271.527 129.327,273.137 131.187,274.662 132.800 C 279.044 137.438,279.175 137.599,282.897 142.891 C 288.796 151.278,297.110 169.544,297.182 174.276 C 297.192 174.942,297.414 175.618,297.675 175.780 C 297.937 175.941,298.006 176.308,297.829 176.594 C 297.653 176.879,297.741 177.403,298.026 177.757 C 298.985 178.946,299.880 185.803,299.812 191.435 C 299.790 193.324,300.004 195.150,300.289 195.493 C 300.920 196.254,300.872 204.311,300.231 205.098 C 299.978 205.409,299.791 207.209,299.814 209.098 C 299.880 214.431,299.798 215.997,299.419 216.610 C 299.227 216.922,298.984 218.261,298.879 219.587 C 298.775 220.912,298.488 222.268,298.241 222.598 C 297.995 222.929,297.754 223.839,297.707 224.619 C 297.211 232.724,285.160 256.487,276.923 265.605 C 270.303 272.932,267.545 275.680,267.090 275.399 C 266.818 275.230,266.472 275.537,266.321 276.080 C 266.029 277.133,261.292 281.067,260.316 281.067 C 259.996 281.067,259.733 281.277,259.733 281.533 C 259.733 282.506,249.532 288.890,248.400 288.626 C 248.180 288.575,248.000 288.735,248.000 288.981 C 248.000 289.472,245.308 290.909,244.667 290.760 C 244.447 290.709,244.267 290.921,244.267 291.231 C 244.267 291.542,244.027 291.648,243.733 291.467 C 243.440 291.285,243.200 291.405,243.200 291.733 C 243.200 292.061,242.960 292.181,242.667 292.000 C 242.373 291.819,242.133 291.950,242.133 292.292 C 242.133 292.634,241.773 292.776,241.333 292.607 C 240.893 292.438,240.533 292.496,240.533 292.736 C 240.533 293.164,236.828 294.894,235.139 295.254 C 234.666 295.355,233.586 295.724,232.739 296.074 C 231.893 296.424,231.040 296.731,230.844 296.755 C 230.649 296.780,230.325 296.963,230.126 297.163 C 229.926 297.363,229.426 297.397,229.015 297.240 C 228.603 297.082,228.267 297.246,228.267 297.605 C 228.267 297.995,227.837 298.146,227.200 297.979 C 226.613 297.825,226.133 297.934,226.133 298.219 C 226.133 298.505,225.653 298.586,225.067 298.400 C 224.447 298.203,224.000 298.304,224.000 298.641 C 224.000 298.993,223.476 299.089,222.667 298.886 C 221.792 298.666,221.333 298.774,221.333 299.199 C 221.333 299.556,221.003 299.721,220.598 299.565 C 220.194 299.410,219.654 299.491,219.398 299.744 C 218.234 300.897,199.341 301.786,190.667 301.096 C 185.966 300.722,182.370 300.116,182.081 299.649 C 181.914 299.378,181.317 299.303,180.755 299.481 C 180.158 299.670,179.733 299.554,179.733 299.200 C 179.733 298.846,179.309 298.730,178.712 298.919 C 178.150 299.097,177.549 299.016,177.378 298.738 C 177.206 298.461,176.586 298.359,175.999 298.512 C 175.377 298.675,174.933 298.528,174.933 298.160 C 174.933 297.780,174.526 297.658,173.912 297.852 C 173.350 298.031,172.742 297.937,172.561 297.645 C 172.380 297.353,171.880 297.248,171.450 297.414 C 171.019 297.579,170.667 297.423,170.667 297.067 C 170.667 296.710,170.307 296.557,169.867 296.726 C 169.427 296.895,169.067 296.775,169.067 296.460 C 169.067 296.144,168.714 296.021,168.284 296.186 C 167.853 296.352,167.359 296.257,167.186 295.977 C 167.012 295.696,166.382 295.467,165.784 295.467 C 165.187 295.467,164.034 294.994,163.222 294.416 C 162.410 293.838,161.593 293.518,161.406 293.705 C 161.220 293.892,161.067 293.750,161.067 293.391 C 161.067 293.031,160.832 292.882,160.544 293.060 C 159.961 293.420,157.806 292.424,157.222 291.525 C 157.015 291.205,156.535 290.917,156.156 290.886 C 155.777 290.855,155.064 290.793,154.571 290.748 C 154.079 290.703,153.256 290.247,152.743 289.733 C 152.230 289.220,151.620 288.800,151.389 288.800 C 151.157 288.800,150.523 288.440,149.979 288.000 C 149.436 287.560,148.648 287.127,148.229 287.037 C 147.810 286.948,147.153 286.468,146.770 285.971 C 146.387 285.473,145.727 285.137,145.304 285.223 C 144.880 285.310,144.533 285.017,144.533 284.573 C 144.533 284.099,144.224 283.885,143.782 284.055 C 143.329 284.229,142.889 283.901,142.676 283.231 C 142.482 282.619,142.096 282.258,141.819 282.430 C 141.359 282.714,138.399 280.715,135.733 278.320 C 135.147 277.793,133.767 276.611,132.667 275.692 C 131.567 274.774,130.667 273.688,130.667 273.278 C 130.667 272.868,130.424 272.533,130.127 272.533 C 129.032 272.533,119.870 262.731,118.787 260.400 C 118.480 259.740,118.027 259.200,117.781 259.200 C 117.535 259.200,117.333 258.860,117.333 258.444 C 117.333 258.029,117.118 257.609,116.855 257.511 C 115.521 257.015,106.667 240.688,106.667 238.723 C 106.667 238.287,106.445 237.793,106.175 237.626 C 105.441 237.172,103.335 230.511,103.726 229.879 C 103.911 229.579,103.844 229.333,103.577 229.333 C 102.949 229.333,101.312 223.220,100.507 217.867 C 100.375 216.987,100.139 215.547,99.983 214.667 C 99.042 209.352,98.769 199.332,99.372 192.267 C 99.597 189.627,99.792 186.867,99.805 186.133 C 99.817 185.400,100.035 184.549,100.289 184.242 C 100.543 183.935,100.739 183.215,100.725 182.642 C 100.711 182.069,100.850 181.000,101.034 180.267 C 101.217 179.533,101.600 177.759,101.884 176.324 C 103.813 166.588,112.752 147.251,118.345 140.716 C 118.682 140.322,119.825 138.860,120.884 137.467 C 121.943 136.073,123.017 134.933,123.271 134.933 C 123.525 134.933,123.738 134.633,123.743 134.267 C 123.749 133.900,126.089 131.365,128.943 128.632 C 131.798 125.900,134.742 123.080,135.487 122.366 C 136.231 121.651,137.105 121.067,137.430 121.067 C 137.754 121.067,138.167 120.682,138.347 120.211 C 138.535 119.723,139.017 119.487,139.471 119.661 C 139.948 119.844,140.267 119.661,140.267 119.202 C 140.267 118.345,142.074 117.186,142.597 117.708 C 142.782 117.893,142.933 117.619,142.933 117.098 C 142.933 116.477,143.208 116.258,143.733 116.460 C 144.201 116.639,144.533 116.467,144.533 116.045 C 144.533 115.433,145.770 114.742,147.353 114.472 C 147.583 114.432,147.943 114.136,148.153 113.813 C 148.547 113.205,150.910 111.785,151.583 111.752 C 151.793 111.742,152.433 111.333,153.004 110.844 C 153.576 110.355,154.183 110.095,154.355 110.266 C 154.526 110.437,154.667 110.284,154.667 109.924 C 154.667 109.565,154.907 109.419,155.200 109.600 C 155.493 109.781,155.733 109.661,155.733 109.333 C 155.733 109.005,155.973 108.885,156.267 109.067 C 156.560 109.248,156.800 109.128,156.800 108.800 C 156.800 108.472,157.023 108.342,157.296 108.511 C 157.570 108.679,157.946 108.570,158.133 108.267 C 158.321 107.964,158.697 107.854,158.970 108.023 C 159.243 108.192,159.467 108.092,159.467 107.801 C 159.467 107.324,160.726 106.730,162.333 106.447 C 162.663 106.389,163.735 105.918,164.715 105.399 C 165.695 104.880,166.811 104.577,167.196 104.725 C 167.581 104.872,168.059 104.830,168.259 104.630 C 168.459 104.430,168.782 104.255,168.978 104.240 C 169.173 104.225,170.503 103.666,171.932 102.997 C 173.362 102.328,175.582 101.740,176.866 101.690 C 178.150 101.641,179.200 101.404,179.200 101.164 C 179.200 100.924,179.710 100.890,180.333 101.088 C 180.987 101.295,181.626 101.189,181.844 100.837 C 182.052 100.501,183.522 100.105,185.111 99.958 C 186.700 99.811,189.073 99.520,190.384 99.312 C 193.857 98.760,207.476 99.034,213.200 99.770 M196.267 113.670 C 195.533 113.965,193.935 114.059,192.714 113.878 C 191.314 113.670,190.358 113.769,190.126 114.145 C 189.889 114.528,188.989 114.612,187.611 114.379 C 186.252 114.150,185.584 114.209,185.789 114.541 C 185.976 114.844,184.942 115.221,183.337 115.434 C 181.809 115.636,180.254 116.056,179.880 116.366 C 179.385 116.777,179.195 116.731,179.183 116.199 C 179.171 115.671,178.970 115.725,178.464 116.392 C 178.077 116.900,177.611 117.166,177.427 116.982 C 177.243 116.798,176.737 116.943,176.303 117.303 C 175.869 117.664,175.283 117.816,175.002 117.643 C 174.721 117.469,174.407 117.579,174.304 117.887 C 174.202 118.195,173.521 118.488,172.792 118.538 C 172.063 118.587,171.136 118.951,170.731 119.345 C 170.327 119.739,169.682 119.941,169.299 119.794 C 168.916 119.647,168.523 119.764,168.427 120.054 C 168.330 120.344,167.714 120.621,167.059 120.671 C 166.403 120.720,165.867 120.963,165.867 121.212 C 165.867 121.460,165.627 121.515,165.333 121.333 C 165.040 121.152,164.800 121.229,164.800 121.504 C 164.800 121.779,164.020 122.319,163.067 122.705 C 162.113 123.091,161.213 123.552,161.067 123.731 C 160.417 124.524,156.712 126.490,156.420 126.198 C 156.242 126.019,155.758 126.356,155.345 126.946 C 154.932 127.535,154.370 127.880,154.097 127.711 C 153.824 127.542,153.600 127.658,153.600 127.969 C 153.600 128.279,153.394 128.533,153.141 128.533 C 152.889 128.533,151.792 129.373,150.703 130.400 C 149.615 131.427,148.516 132.267,148.262 132.267 C 148.008 132.267,147.077 132.927,146.192 133.733 C 142.986 136.657,136.533 143.057,136.533 143.314 C 136.533 143.459,135.303 145.049,133.800 146.849 C 128.872 152.747,122.148 165.577,120.828 171.600 C 120.619 172.553,120.202 173.333,119.901 173.333 C 119.599 173.333,119.488 173.686,119.653 174.116 C 119.818 174.547,119.720 175.043,119.435 175.220 C 119.149 175.396,119.061 175.774,119.237 176.060 C 119.414 176.346,119.331 176.870,119.052 177.223 C 118.773 177.577,118.544 178.227,118.542 178.667 C 118.540 179.107,118.148 181.317,117.669 183.578 C 117.191 185.838,116.800 188.378,116.800 189.222 C 116.800 190.065,116.654 190.901,116.476 191.080 C 116.298 191.258,116.165 194.718,116.180 198.768 C 116.205 205.433,116.719 210.169,118.601 221.067 C 118.702 221.653,118.931 222.493,119.109 222.933 C 119.287 223.373,119.919 225.533,120.515 227.733 C 121.714 232.164,124.429 239.187,126.110 242.205 C 129.065 247.512,130.947 250.575,132.338 252.343 C 133.179 253.412,133.867 254.432,133.867 254.610 C 133.867 255.408,147.931 269.867,148.707 269.867 C 149.018 269.867,149.651 270.407,150.113 271.067 C 150.576 271.727,151.068 272.209,151.207 272.138 C 151.674 271.901,157.333 275.759,157.333 276.315 C 157.333 276.616,157.575 276.714,157.870 276.531 C 158.315 276.256,161.163 277.844,162.133 278.908 C 162.280 279.068,162.640 279.213,162.933 279.230 C 164.260 279.304,166.400 280.164,166.400 280.623 C 166.400 280.901,166.640 280.981,166.933 280.800 C 167.227 280.619,167.467 280.673,167.467 280.922 C 167.467 281.170,167.923 281.407,168.481 281.449 C 169.039 281.491,170.539 282.001,171.815 282.581 C 173.090 283.162,175.036 283.806,176.139 284.012 C 177.242 284.219,178.257 284.568,178.393 284.789 C 178.530 285.010,179.283 285.068,180.067 284.918 C 181.042 284.731,181.374 284.836,181.119 285.248 C 180.859 285.670,181.236 285.753,182.373 285.525 C 183.485 285.303,184.000 285.409,184.000 285.859 C 184.000 286.324,184.551 286.415,185.867 286.169 C 186.987 285.958,187.733 286.031,187.733 286.351 C 187.733 286.676,188.770 286.760,190.400 286.567 C 192.224 286.351,193.067 286.443,193.067 286.859 C 193.067 287.694,206.188 287.708,206.704 286.874 C 206.941 286.489,207.985 286.402,209.668 286.625 C 211.386 286.853,212.267 286.775,212.267 286.394 C 212.267 286.025,212.936 285.944,214.133 286.169 C 215.449 286.415,216.000 286.324,216.000 285.859 C 216.000 285.409,216.515 285.303,217.627 285.525 C 218.521 285.704,219.126 285.645,218.970 285.393 C 218.712 284.975,223.276 284.087,224.077 284.399 C 224.267 284.473,224.913 284.089,225.513 283.546 C 226.113 283.002,227.218 282.522,227.968 282.479 C 228.719 282.435,229.333 282.194,229.333 281.943 C 229.333 281.692,229.693 281.624,230.133 281.793 C 230.573 281.962,230.933 281.853,230.933 281.552 C 230.933 281.250,231.173 281.152,231.467 281.333 C 231.760 281.515,232.000 281.409,232.000 281.098 C 232.000 280.787,232.180 280.583,232.400 280.643 C 232.620 280.703,233.568 280.343,234.507 279.843 C 235.446 279.343,236.586 278.933,237.040 278.933 C 237.495 278.933,237.867 278.679,237.867 278.369 C 237.867 278.058,238.086 277.939,238.354 278.105 C 238.623 278.271,238.923 278.225,239.021 278.003 C 239.222 277.551,245.146 273.600,245.623 273.600 C 245.792 273.600,245.758 273.877,245.549 274.216 C 245.313 274.597,245.403 274.687,245.784 274.451 C 246.123 274.242,246.400 273.776,246.400 273.417 C 246.400 273.057,247.180 272.307,248.133 271.749 C 249.087 271.190,250.130 270.382,250.452 269.952 C 250.775 269.522,251.315 269.341,251.652 269.550 C 252.011 269.772,252.267 269.599,252.267 269.134 C 252.267 268.268,255.135 265.980,255.617 266.461 C 255.780 266.625,256.202 266.197,256.554 265.512 C 257.473 263.726,260.350 260.800,261.188 260.800 C 261.580 260.800,262.073 260.355,262.284 259.811 C 262.925 258.154,266.357 253.901,267.067 253.883 C 267.433 253.874,267.733 253.514,267.733 253.083 C 267.733 252.652,268.783 250.672,270.065 248.683 C 273.337 243.609,275.363 239.420,277.372 233.576 C 278.326 230.802,279.283 228.293,279.499 228.000 C 279.716 227.707,280.318 225.247,280.837 222.533 C 281.356 219.820,281.975 217.600,282.211 217.600 C 282.447 217.600,282.496 216.880,282.320 216.000 C 282.120 214.998,282.219 214.400,282.587 214.400 C 282.953 214.400,283.054 213.805,282.857 212.816 C 282.682 211.946,282.698 210.821,282.892 210.317 C 283.432 208.908,283.530 189.333,282.997 189.333 C 282.739 189.333,282.663 188.498,282.828 187.476 C 282.995 186.452,282.887 185.470,282.588 185.285 C 282.291 185.101,282.191 184.376,282.367 183.675 C 282.564 182.891,282.454 182.400,282.081 182.400 C 281.723 182.400,281.580 181.856,281.731 181.067 C 281.871 180.333,281.814 179.733,281.605 179.733 C 281.396 179.733,280.810 178.113,280.302 176.133 C 279.795 174.153,279.176 172.053,278.927 171.467 C 275.154 162.575,273.615 159.428,270.798 154.841 C 267.825 149.998,261.216 141.323,258.433 138.608 C 257.864 138.054,257.624 137.599,257.899 137.598 C 258.175 137.597,257.679 137.156,256.797 136.618 C 255.915 136.081,254.262 134.762,253.122 133.687 C 251.983 132.613,250.904 131.732,250.725 131.731 C 250.546 131.729,249.514 130.915,248.432 129.921 C 247.350 128.927,246.336 128.242,246.178 128.400 C 246.021 128.557,245.741 128.293,245.557 127.813 C 245.372 127.332,245.005 127.073,244.740 127.237 C 244.476 127.400,244.115 127.159,243.939 126.700 C 243.763 126.242,243.167 125.867,242.614 125.867 C 242.061 125.867,241.324 125.411,240.976 124.853 C 240.628 124.296,240.026 123.961,239.638 124.110 C 239.251 124.259,238.933 124.115,238.933 123.790 C 238.933 123.466,238.633 123.260,238.267 123.333 C 237.900 123.407,237.666 123.149,237.747 122.760 C 237.827 122.372,237.663 122.196,237.381 122.370 C 236.844 122.702,231.863 120.559,231.554 119.863 C 231.456 119.642,231.129 119.612,230.828 119.798 C 230.527 119.984,230.096 119.838,229.870 119.472 C 229.644 119.107,228.677 118.717,227.720 118.606 C 226.763 118.494,225.654 118.133,225.256 117.803 C 224.859 117.473,224.533 117.381,224.533 117.600 C 224.533 117.819,224.211 117.730,223.818 117.403 C 223.424 117.077,222.945 116.966,222.754 117.157 C 222.563 117.348,221.900 117.046,221.281 116.486 C 220.661 115.925,220.060 115.527,219.944 115.600 C 219.828 115.673,219.553 115.709,219.333 115.680 C 218.854 115.617,216.217 115.400,214.502 115.284 C 213.812 115.237,213.419 114.960,213.608 114.654 C 213.829 114.296,213.200 114.227,211.773 114.456 C 210.435 114.670,209.600 114.596,209.600 114.264 C 209.600 113.507,207.014 113.093,206.774 113.811 C 206.633 114.234,205.874 114.212,204.081 113.733 C 201.138 112.947,198.125 112.923,196.267 113.670 M191.200 153.840 C 191.200 169.884,191.658 168.512,186.301 168.526 C 182.955 168.535,180.931 169.236,179.333 170.940 C 178.209 172.140,177.650 174.931,178.533 174.935 C 178.753 174.936,179.399 175.631,179.967 176.480 C 180.536 177.328,181.316 177.902,181.701 177.754 C 182.085 177.607,182.400 177.768,182.400 178.112 C 182.400 178.548,183.581 178.695,186.276 178.595 C 188.407 178.515,190.422 178.618,190.753 178.822 C 191.273 179.143,191.335 192.950,190.816 192.739 C 189.678 192.277,184.454 191.467,182.616 191.467 C 175.793 191.467,175.725 200.109,182.539 201.341 C 187.203 202.184,188.267 202.585,188.267 203.503 C 188.267 203.923,188.569 204.267,188.938 204.267 C 190.848 204.267,191.085 206.253,191.019 221.740 C 190.951 237.791,190.663 239.634,188.504 237.842 C 187.490 237.001,184.533 232.641,184.533 231.987 C 184.533 231.716,183.813 231.122,182.933 230.667 C 182.053 230.212,181.333 229.605,181.333 229.320 C 181.333 229.034,180.907 228.800,180.385 228.800 C 179.864 228.800,178.904 228.426,178.251 227.969 C 177.599 227.512,176.842 227.276,176.569 227.444 C 176.297 227.613,175.923 227.507,175.739 227.209 C 175.293 226.488,170.826 226.511,170.378 227.236 C 170.184 227.550,169.649 227.662,169.189 227.485 C 168.728 227.308,168.191 227.424,167.995 227.742 C 167.798 228.060,167.119 228.359,166.485 228.407 C 165.852 228.455,165.333 228.683,165.333 228.913 C 165.333 229.144,165.093 229.333,164.799 229.333 C 163.407 229.333,156.928 238.350,157.738 239.160 C 157.892 239.314,157.752 239.762,157.427 240.154 C 157.084 240.567,156.969 241.695,157.154 242.834 C 157.819 246.933,153.065 243.686,149.897 237.878 C 148.519 235.350,147.896 227.517,149.067 227.439 C 154.906 227.050,156.938 224.822,155.951 219.890 C 155.368 216.971,149.798 216.020,147.391 218.427 C 145.920 219.898,143.890 219.325,143.079 217.210 C 142.897 216.736,142.319 215.919,141.795 215.395 C 138.326 211.926,138.616 197.809,142.185 196.440 C 142.597 196.282,142.933 195.818,142.933 195.410 C 142.933 195.001,143.164 194.667,143.445 194.667 C 143.727 194.667,144.507 194.080,145.178 193.363 C 146.461 191.995,149.333 190.642,149.333 191.406 C 149.333 191.651,149.964 191.732,150.734 191.584 C 152.096 191.324,152.124 191.373,151.775 193.392 C 151.266 196.330,151.127 201.188,151.525 202.133 C 153.905 207.792,157.184 212.510,158.747 212.526 C 159.162 212.530,159.701 212.854,159.944 213.246 C 160.187 213.637,160.599 213.944,160.860 213.927 C 162.145 213.844,165.285 214.581,165.077 214.916 C 164.947 215.127,167.369 215.315,170.460 215.334 C 173.551 215.353,175.971 215.260,175.838 215.127 C 175.705 214.994,176.287 214.195,177.132 213.350 C 178.850 211.632,179.055 210.010,177.857 207.608 C 176.904 205.697,176.455 205.547,171.200 205.383 C 164.961 205.189,160.127 202.152,161.278 199.152 C 161.437 198.738,161.334 198.400,161.050 198.400 C 160.766 198.400,160.533 197.920,160.533 197.333 C 160.533 196.747,160.787 196.267,161.098 196.267 C 161.409 196.267,161.518 196.032,161.340 195.744 C 160.988 195.174,162.036 191.044,162.786 190.047 C 163.062 189.681,163.023 189.287,162.693 189.083 C 162.385 188.893,162.133 188.263,162.133 187.684 C 162.133 186.050,158.937 183.190,157.182 183.254 C 156.366 183.284,155.572 183.104,155.418 182.854 C 155.033 182.231,151.604 182.279,151.213 182.913 C 151.017 183.229,150.411 183.242,149.636 182.947 C 148.943 182.684,148.284 182.560,148.172 182.672 C 147.071 183.774,148.312 173.083,149.526 171.012 C 151.425 167.771,153.538 165.333,154.447 165.333 C 154.861 165.333,155.200 165.081,155.200 164.773 C 155.200 164.271,156.546 163.579,159.733 162.444 C 160.320 162.235,160.859 162.079,160.932 162.097 C 161.548 162.249,163.733 159.557,163.733 158.646 C 163.733 156.762,166.843 151.352,169.105 149.300 C 170.257 148.255,171.200 147.124,171.200 146.786 C 171.200 146.447,171.680 145.914,172.267 145.600 C 172.853 145.286,173.333 145.190,173.333 145.387 C 173.333 145.584,173.962 145.116,174.731 144.348 C 175.500 143.579,176.325 143.071,176.565 143.220 C 176.805 143.368,177.212 143.112,177.470 142.652 C 177.727 142.192,178.462 141.776,179.102 141.727 C 179.743 141.679,180.267 141.423,180.267 141.158 C 180.267 140.893,180.747 140.801,181.333 140.955 C 181.920 141.108,182.400 140.988,182.400 140.688 C 182.400 140.388,182.880 140.268,183.466 140.421 C 184.053 140.574,184.667 140.482,184.831 140.217 C 184.995 139.951,186.495 139.733,188.165 139.734 L 191.200 139.734 191.200 153.840 M213.867 140.253 C 213.867 140.542,214.550 140.637,215.402 140.466 C 216.248 140.297,217.094 140.412,217.286 140.723 C 217.477 141.033,217.986 141.152,218.417 140.986 C 218.848 140.821,219.200 140.944,219.200 141.260 C 219.200 141.575,219.545 141.701,219.967 141.539 C 220.389 141.377,221.152 141.732,221.662 142.328 C 222.173 142.924,222.783 143.293,223.020 143.147 C 224.271 142.373,233.067 150.074,233.067 151.943 C 233.067 152.268,233.281 152.533,233.542 152.533 C 234.293 152.533,235.804 156.804,235.449 157.923 C 235.271 158.484,235.381 158.933,235.697 158.933 C 236.010 158.933,236.267 159.413,236.267 160.000 C 236.267 160.587,236.546 161.067,236.887 161.067 C 237.918 161.067,241.600 162.838,241.600 163.334 C 241.600 163.588,241.808 163.668,242.061 163.511 C 242.758 163.081,247.369 166.318,247.744 167.500 C 247.924 168.068,248.266 168.533,248.504 168.533 C 249.270 168.533,251.166 173.656,251.522 176.690 C 251.946 180.297,251.375 184.705,250.550 184.195 C 250.187 183.970,250.123 184.084,250.378 184.497 C 250.603 184.861,250.345 186.140,249.804 187.339 C 249.063 188.982,248.985 189.573,249.487 189.740 C 249.853 189.862,250.551 190.360,251.038 190.848 C 251.525 191.335,252.121 191.763,252.362 191.800 C 252.603 191.837,253.040 191.897,253.333 191.933 C 253.627 191.970,253.867 192.374,253.867 192.831 C 253.867 193.289,254.073 193.535,254.325 193.380 C 254.944 192.997,257.329 195.744,259.043 198.813 C 261.061 202.428,261.268 208.644,259.500 212.511 C 258.139 215.485,256.047 217.841,256.759 215.596 C 256.990 214.867,256.916 214.400,256.569 214.400 C 256.256 214.400,256.000 213.949,256.000 213.398 C 256.000 209.403,247.595 199.370,245.061 200.342 C 244.624 200.510,243.847 200.467,243.333 200.247 C 241.980 199.667,236.633 199.532,235.958 200.061 C 235.642 200.309,234.922 200.601,234.358 200.709 C 232.688 201.031,231.348 201.719,230.244 202.822 C 229.401 203.666,229.121 203.723,228.745 203.130 C 228.380 202.553,228.281 202.591,228.275 203.313 C 228.261 204.816,224.703 205.374,216.156 205.214 L 208.267 205.067 208.273 200.179 C 208.279 195.500,210.008 191.519,211.421 192.932 C 211.579 193.090,212.063 192.924,212.498 192.563 C 213.052 192.103,215.123 191.961,219.445 192.087 C 222.831 192.186,225.601 192.059,225.601 191.804 C 225.600 191.550,226.068 191.465,226.641 191.615 C 227.214 191.764,227.754 191.732,227.841 191.543 C 227.928 191.355,228.954 190.720,230.120 190.133 C 233.947 188.208,238.192 182.971,238.766 179.467 C 239.723 173.618,239.259 169.886,237.043 165.600 C 234.692 161.053,231.135 156.800,229.682 156.800 C 229.197 156.800,228.800 156.546,228.800 156.235 C 228.800 155.925,228.570 155.813,228.288 155.987 C 228.007 156.161,227.319 156.017,226.759 155.667 C 226.199 155.318,225.347 155.183,224.865 155.368 C 224.383 155.553,223.850 155.692,223.680 155.676 C 222.966 155.611,220.267 159.215,220.267 160.232 C 220.267 161.453,223.559 165.193,225.620 166.314 C 229.866 168.623,231.152 175.381,228.106 179.375 C 227.285 180.452,226.285 181.333,225.884 181.333 C 225.483 181.333,225.076 181.542,224.978 181.796 C 224.721 182.466,222.400 183.100,222.400 182.501 C 222.400 182.199,221.018 182.256,218.953 182.644 C 217.057 183.001,215.317 183.105,215.086 182.875 C 214.855 182.646,213.227 182.385,211.468 182.296 L 208.268 182.133 208.264 177.154 C 208.260 171.149,208.161 171.335,211.468 171.138 C 214.253 170.972,215.452 170.082,216.229 167.602 C 216.750 165.938,215.488 162.667,214.324 162.667 C 213.814 162.667,213.232 162.400,213.030 162.075 C 212.822 161.738,211.931 161.601,210.963 161.759 C 208.261 162.197,208.000 161.240,208.000 150.906 C 208.000 140.236,208.157 139.733,211.485 139.733 C 212.795 139.733,213.867 139.967,213.867 140.253 M171.823 153.968 C 170.939 154.321,166.895 158.648,166.010 160.190 C 161.736 167.628,161.373 173.228,164.963 176.341 C 166.181 177.397,168.533 177.877,168.533 177.069 C 168.533 176.814,168.953 176.472,169.467 176.309 C 170.614 175.945,171.549 173.837,171.956 170.697 C 172.266 168.314,174.192 164.969,176.234 163.272 C 176.839 162.769,177.611 161.887,177.950 161.312 C 178.290 160.737,178.770 160.307,179.017 160.356 C 179.264 160.404,179.467 159.404,179.467 158.133 C 179.467 156.862,179.373 155.916,179.259 156.030 C 179.145 156.144,178.347 155.644,177.485 154.918 C 175.991 153.661,173.597 153.259,171.823 153.968 M242.164 210.083 C 244.767 210.520,247.274 215.605,246.665 219.212 C 246.252 221.652,247.368 224.146,249.787 226.195 C 252.075 228.132,251.428 238.933,249.024 238.933 C 248.754 238.933,248.533 239.256,248.533 239.651 C 248.533 240.560,243.803 244.906,243.211 244.540 C 242.970 244.391,242.604 242.768,242.399 240.934 C 241.825 235.801,235.474 224.971,233.938 226.506 C 233.802 226.642,233.131 226.445,232.446 226.069 C 230.391 224.940,226.625 224.230,225.330 224.727 C 224.886 224.898,224.383 225.025,224.213 225.009 C 223.714 224.964,220.799 228.406,220.809 229.029 C 220.837 230.891,223.304 233.874,224.947 234.034 C 225.893 234.126,226.667 234.440,226.667 234.732 C 226.667 235.024,226.902 235.118,227.189 234.940 C 227.901 234.500,229.973 235.663,229.587 236.287 C 229.417 236.563,229.622 236.656,230.042 236.494 C 232.029 235.732,233.820 243.300,232.787 248.095 C 232.056 251.486,227.067 258.133,225.252 258.133 C 224.906 258.133,224.538 258.386,224.435 258.696 C 224.332 259.005,223.892 259.312,223.457 259.377 C 223.022 259.443,222.367 259.684,222.000 259.913 C 221.633 260.142,221.093 260.181,220.800 260.000 C 220.507 259.819,220.267 259.919,220.267 260.222 C 220.267 260.550,219.619 260.644,218.667 260.453 C 217.647 260.249,217.067 260.351,217.067 260.733 C 217.067 261.131,215.536 261.333,212.533 261.333 L 208.000 261.333 208.000 257.354 C 208.000 252.233,208.728 251.416,213.381 251.321 C 217.333 251.239,219.200 249.721,219.200 246.588 C 219.200 244.622,217.777 241.623,216.818 241.569 C 216.515 241.552,214.467 241.492,212.267 241.436 L 208.267 241.333 208.110 231.467 C 207.931 220.193,208.069 218.985,209.784 216.844 L 211.029 215.287 220.181 215.414 C 226.911 215.507,229.333 215.374,229.333 214.913 C 229.333 214.568,229.693 214.424,230.133 214.593 C 230.573 214.762,230.933 214.653,230.933 214.352 C 230.933 214.050,231.148 213.937,231.411 214.099 C 231.673 214.261,232.026 214.035,232.194 213.597 C 232.362 213.159,232.867 212.800,233.317 212.800 C 233.766 212.800,234.133 212.496,234.133 212.124 C 234.133 210.519,238.360 209.445,242.164 210.083 M176.000 238.189 C 176.000 238.599,176.316 238.933,176.702 238.933 C 177.088 238.933,177.935 240.216,178.585 241.784 C 180.614 246.679,182.869 248.485,186.512 248.135 C 191.176 247.687,191.467 248.103,191.467 255.219 L 191.467 261.333 187.498 261.333 C 185.229 261.333,183.377 261.086,183.173 260.757 C 182.977 260.440,182.243 260.324,181.542 260.500 C 180.783 260.691,180.267 260.586,180.267 260.241 C 180.267 259.904,179.820 259.803,179.200 260.000 C 178.564 260.202,178.133 260.096,178.133 259.738 C 178.133 259.407,177.911 259.274,177.640 259.442 C 176.894 259.903,174.400 258.600,174.400 257.750 C 174.400 257.339,174.157 257.154,173.860 257.337 C 173.267 257.704,168.533 253.235,168.533 252.309 C 168.533 251.992,168.305 251.733,168.025 251.733 C 166.744 251.733,165.938 245.018,166.912 242.456 C 168.436 238.448,176.000 234.897,176.000 238.189 M83.067 293.846 C 82.260 294.100,81.600 294.191,81.600 294.048 C 81.600 293.906,80.968 294.287,80.195 294.895 C 79.422 295.503,78.558 296.000,78.275 296.000 C 77.396 296.000,74.931 298.974,73.569 301.680 C 72.853 303.103,72.147 304.387,72.000 304.533 C 71.853 304.680,71.733 306.240,71.733 308.000 C 71.733 309.760,71.853 311.320,72.000 311.467 C 72.147 311.613,72.698 312.666,73.226 313.806 C 74.516 316.593,77.912 320.494,79.067 320.516 C 79.580 320.525,80.002 320.713,80.004 320.933 C 80.022 322.688,88.849 323.042,91.333 321.388 C 92.140 320.850,92.804 320.618,92.808 320.872 C 92.813 321.126,93.017 321.017,93.262 320.631 C 93.506 320.245,94.091 319.873,94.560 319.804 C 96.205 319.562,98.992 314.920,100.223 310.370 C 101.208 306.729,97.174 296.000,94.820 296.000 C 94.577 296.000,93.484 295.454,92.389 294.786 C 90.236 293.473,85.702 293.015,83.067 293.846 " stroke="none" fill="#000000" fill-rule="evenodd"></path></g></svg>