<?xml version="1.0" encoding="UTF-8" standalone="no"?>
<svg
   width="366"
   height="128"
   viewBox="0 0 366 128"
   fill="none"
   version="1.1"
   id="svg4"
   sodipodi:docname="logo_grey.svg"
   inkscape:version="1.4 (e7c3feb1, 2024-10-09)"
   xmlns:inkscape="http://www.inkscape.org/namespaces/inkscape"
   xmlns:sodipodi="http://sodipodi.sourceforge.net/DTD/sodipodi-0.dtd"
   xmlns="http://www.w3.org/2000/svg"
   xmlns:svg="http://www.w3.org/2000/svg">
  <defs
     id="defs4" />
  <sodipodi:namedview
     id="namedview4"
     pagecolor="#ffffff"
     bordercolor="#000000"
     borderopacity="0.25"
     inkscape:showpageshadow="2"
     inkscape:pageopacity="0.0"
     inkscape:pagecheckerboard="0"
     inkscape:deskcolor="#d1d1d1"
     inkscape:zoom="0.52279747"
     inkscape:cx="104.24687"
     inkscape:cy="170.23801"
     inkscape:window-width="1512"
     inkscape:window-height="945"
     inkscape:window-x="0"
     inkscape:window-y="37"
     inkscape:window-maximized="0"
     inkscape:current-layer="svg4" />
  <path
     id="path5"
     style="baseline-shift:baseline;clip-rule:evenodd;display:inline;overflow:visible;vector-effect:none;fill:#eaeaea;fill-rule:evenodd;enable-background:accumulate;stop-color:#000000;stop-opacity:1"
     d="M 68.384766,0.01757813 C 60.860172,0.38734886 54.062216,0.32216313 46.953125,2.6328162 21.702339,9.0713662 2.4120331,32.872976 0.61914122,58.779297 -0.60171691,67.393796 1.22753,77.967151 4.6484375,86.798828 11.971185,106.22364 29.674826,121.80546 49.511719,126.09762 c 5.879163,1.13636 12.801115,2.08376 19.060547,1.6582 18.563494,-1.81824 36.928624,-11.55437 47.306644,-27.6778 16.41035,-23.037293 14.3589,-56.84808 -4.48817,-78.085943 C 100.90342,9.7261152 85.5711,1.8922795 69.685547,0.43554678 Z M 120.36328,2.7382813 c -12.80792,0.8022465 -3.81488,21.2370507 5.43555,12.0976167 4.48899,-4.186029 0.90423,-12.8994014 -5.43555,-12.0976167 z M 61.089844,13.726563 C 87.710716,11.935023 113.19174,34.620791 113.51765,61.640672 115.88995,89.393977 90.840217,115.54866 63.09621,114.22403 38.335447,114.32257 15.783032,93.701034 13.860201,68.807188 11.33119,45.907977 26.714786,22.837583 48.375068,16.306736 c 4.024838,-1.554765 8.423127,-2.27777 12.714776,-2.580173 z m 2.558593,6.996093 C 54.787309,21.234491 46.616771,23.699563 39.308594,29.302742 16.275913,45.143086 16.987683,82.804018 39.015618,99.185555 52.354266,109.43473 72.637563,110.0511 86.39843,100.44372 91.275543,97.531399 97.866114,91.004268 100.57079,84.457272 108.81471,67.905226 106.08739,46.56181 92.753878,33.381217 85.107836,25.335234 74.416549,21.109048 63.648437,20.722656 Z m -5.755859,13.216797 c 2.487631,1.617853 3.836938,16.207016 -2.977581,14.588547 -6.25262,4.545194 12.387888,7.363946 2.390045,11.342969 -12.229156,1.363474 6.176347,5.287642 2.007523,12.226801 0.457296,6.718423 0.434426,14.657041 -5.279359,6.08973 -7.775212,-6.036726 -10.548889,9.027942 -13.852845,6.39824 -6.889816,-4.988808 8.427104,-13.815714 -3.706453,-11.185255 -9.3481,-6.301758 5.889384,-22.375088 4.191694,-6.469213 2.490199,9.462497 21.063066,0.964232 6.655878,-0.691384 -5.386754,-2.990129 0.06069,-12.906363 -9.478871,-11.497941 1.735646,-8.305999 9.402745,-14.154515 15.553883,-19.812255 1.381234,-0.660908 3.008291,-0.728843 4.496086,-0.990239 z m 11.570313,0 c 7.966792,-0.385422 10.321624,7.977279 14.939453,11.724609 8.794522,3.671289 0.257687,13.866383 8.654302,17.626957 2.489894,5.744352 -1.763137,12.792715 -3.752221,3.077616 -6.44759,-6.66909 -13.000752,2.65864 -20.513501,0.04688 -5.263517,-8.558836 9.285327,-4.35841 12.665812,-9.792318 9.362466,-7.050579 -11.469511,-22.388335 -4.982129,-9.478683 9.30021,7.741391 -12.918856,13.135305 -8.431452,2.809538 9.657047,-1.70238 -7.482703,-9.89389 1.419736,-16.014603 z m -18.970704,6.910156 c -9.345309,1.870549 -2.832549,19.596484 0.09866,6.50107 2.261093,-2.028885 5.33418,-6.230683 -0.09866,-6.50107 z m 32.771485,27.953125 c 9.21626,1.480657 4.47166,26.84685 -0.384527,10.587855 -6.52862,-7.46644 -10.362994,0.779347 -2.968649,4.465714 2.799839,7.043694 -7.718247,12.764561 -12.176121,9.746087 -1.470522,-4.981106 11.988694,-7.172661 1.368257,-9.156662 -2.017274,-1.558217 -3.480378,-13.791712 2.375144,-12.940268 4.696003,0.708228 8.048129,-0.497617 11.785896,-2.702726 z M 51.259766,82.212891 c 1.816002,4.500448 12.928601,7.873431 6.77704,12.136718 -6.528104,1.260235 -17.060638,-8.563084 -6.77704,-12.136718 z M 6.8789062,110.30859 c -11.2930225,0.64474 -6.02962826,19.23508 3.9335938,13.5 6.15423,-3.26247 3.496869,-14.47204 -3.9335938,-13.5 z M 153.48437,19 c -11.39613,-1.039501 -20.66876,9.698276 -18.77343,20.781856 0.19592,18.094801 -0.40262,36.232391 0.31921,54.298992 1.82843,13.062502 16.68577,15.317102 27.44279,13.957632 10.97671,-0.0663 21.96318,-0.19328 32.90011,-1.22989 -0.29818,-4.73633 -0.59635,-9.472654 -0.89453,-14.208981 -12.2088,-0.253732 -24.49346,0.52283 -36.65181,-0.416043 -5.94853,-3.80555 -2.75833,-12.042636 -3.57671,-18.066849 -2.12112,-6.678486 3.45417,-5.660555 8.21944,-5.452655 9.09482,0 18.18965,0 27.28447,0 0,-4.608073 0,-9.216145 0,-13.824218 -11.83464,0 -23.66927,0 -35.50391,0 0.49727,-6.218059 -1.27067,-12.967838 1.5332,-18.6875 7.22957,-3.169134 15.71471,-1.045717 23.53407,-1.664063 5.05375,0 10.1075,0 15.16125,0 0.29818,-4.736328 0.59635,-9.472656 0.89453,-14.208984 C 181.46015,18.86579 167.44743,19.17503 153.48437,19 Z m 49.82618,0 c 0,29.440103 0,58.880207 0,88.32031 6.51302,0 13.02604,0 19.53906,0 0,-13.226562 0,-26.453123 0,-39.679685 10.42969,0 20.85937,0 31.28906,0 0,13.226562 0,26.453123 0,39.679685 6.51302,0 13.02604,0 19.53906,0 0,-29.440103 0,-58.880207 0,-88.32031 -6.51302,0 -13.02604,0 -19.53906,0 0,11.306641 0,22.613281 0,33.919922 -10.42969,0 -20.85937,0 -31.28906,0 0,-11.306641 0,-22.613281 0,-33.919922 -6.51302,0 -13.02604,0 -19.53906,0 z m 76.29882,0 c 0,29.440103 0,58.880207 0,88.32031 6.4707,0 12.94141,0 19.41211,0 -0.41961,-13.049282 1.01177,-26.252174 -1.09765,-39.167966 4.96676,-0.433102 9.78511,-0.606599 11.21236,5.151378 6.67531,11.338863 13.35061,22.677725 20.02592,34.016588 7.2793,0 14.55859,0 21.83789,0 -9.11984,-14.095822 -17.27166,-28.898162 -27.07422,-42.496091 -8.52157,-4.516841 5.85303,-10.991592 7.42037,-17.771913 6.04087,-9.350769 12.08173,-18.701537 18.1226,-28.052306 -7.02474,0 -14.04948,0 -21.07422,0 -7.44596,11.861328 -14.89193,23.722656 -22.33789,35.583984 -10.21576,2.720588 -7.39827,-5.282596 -7.03516,-12.864712 0,-7.573091 0,-15.146181 0,-22.719272 -6.4707,0 -12.94141,0 -19.41211,0 z" />
</svg>
