<svg width="512" height="512" viewBox="0 0 512 512" fill="none" xmlns="http://www.w3.org/2000/svg">
<g opacity="1">
<path d="M246.675 154.872C243.164 177.842 239.653 199.814 238.65 202.81C237.145 207.304 242.161 209.302 253.195 209.302H269.747L262.725 165.358C258.712 141.389 255.202 119.917 254.7 117.42C253.697 114.923 250.186 131.902 246.675 154.872Z" fill="#0059B3"/>
<path d="M213.572 134.398C208.557 139.891 199.529 144.385 194.012 144.885C186.488 144.885 185.987 145.883 191.002 147.881C195.015 149.379 202.036 153.873 206.55 157.369C213.071 163.361 214.575 161.363 219.591 144.385C222.099 133.4 224.105 124.411 223.604 124.411C223.102 124.411 218.588 128.905 213.572 134.398Z" fill="#0059B3"/>
<path d="M285.797 132.9C288.806 138.893 291.314 148.88 291.314 155.371C291.314 162.362 292.819 164.859 295.327 160.864C297.333 157.369 304.856 152.875 311.377 149.878C321.909 145.884 322.411 144.885 314.386 144.885C308.869 144.385 298.838 139.392 292.317 132.9L279.778 121.914L285.797 132.9Z" fill="#0059B3"/>
<path d="M225.108 158.867L221.096 175.345L202.538 164.36L183.479 153.374L206.049 176.844C228.118 199.315 228.619 199.315 230.124 187.33C231.127 180.339 231.127 167.356 230.124 158.367L228.619 141.889L225.108 158.867Z" fill="#0059B3"/>
<path d="M276.769 171.85L276.267 201.312L298.837 179.34C311.376 167.356 321.408 156.869 321.408 155.871C321.408 155.371 313.383 159.366 303.853 164.859L286.8 174.846L281.784 158.367C277.772 143.387 277.27 144.385 276.769 171.85Z" fill="#0059B3"/>
<path d="M168.432 179.34C179.466 194.82 193.009 213.297 198.526 220.787L209.058 234.769L220.093 222.784L231.127 211.299L217.083 201.312C209.56 195.819 191.002 182.336 175.956 171.85L148.37 151.876L168.432 179.34Z" fill="#0059B3"/>
<path d="M315.389 183.335L276.769 211.299L287.803 223.284L298.336 234.769L308.868 220.787C336.454 183.335 357.018 154.373 355.513 154.373C354.51 154.872 336.454 167.356 315.389 183.335Z" fill="#0059B3"/>
<path d="M160.407 205.307L170.94 223.284L157.398 228.277C144.859 232.771 145.862 233.271 169.937 233.77C183.98 234.269 196.018 233.77 196.018 232.771C196.018 231.773 185.485 221.286 172.444 209.302L149.373 186.831L160.407 205.307Z" fill="#0059B3"/>
<path d="M331.439 211.798L309.37 234.269L338.962 233.77C366.548 233.271 367.551 232.771 352.504 228.777L335.953 223.783L346.485 206.805C352.504 197.317 356.517 189.327 355.514 189.327C354.51 189.327 343.476 199.315 331.439 211.798Z" fill="#0059B3"/>
<path d="M140.846 199.315C140.846 203.309 135.831 211.798 129.812 218.29C119.279 229.775 118.778 230.774 128.307 226.779C133.825 224.782 142.351 221.786 147.367 220.787C157.899 217.791 157.899 214.795 148.37 202.311C143.354 195.819 140.846 194.82 140.846 199.315Z" fill="#0059B3"/>
<path d="M357.018 207.804C353.507 214.795 355.012 217.791 367.551 222.784C376.077 226.779 383.601 228.777 384.604 228.277C385.105 227.278 380.591 220.787 374.071 213.297C363.037 200.813 361.532 200.313 357.018 207.804Z" fill="#0059B3"/>
<path d="M231.127 234.27C214.575 250.748 219.089 254.244 253.697 254.244C272.255 254.244 286.298 252.246 286.298 249.25C286.298 239.762 266.236 224.282 253.697 224.282C246.675 224.282 236.644 228.777 231.127 234.27Z" fill="#0059B3"/>
<path d="M173.448 246.753L143.354 253.245L173.949 253.744C197.523 254.244 205.547 252.246 208.055 246.753C209.56 242.759 209.058 239.762 207.052 239.762C205.046 240.262 189.999 243.258 173.448 246.753Z" fill="#0059B3"/>
<path d="M301.345 247.253C301.345 252.746 308.869 254.244 332.943 253.744C349.996 253.245 358.523 251.747 351.501 250.748C344.479 249.25 330.436 246.753 320.404 244.257C305.358 241.261 301.345 241.76 301.345 247.253Z" fill="#0059B3"/>
<path d="M331.439 287.701C316.392 293.193 306.361 306.177 306.361 319.16C306.361 334.64 315.389 343.628 344.479 358.11C369.056 370.594 375.074 385.574 361.031 399.556C344.981 415.536 324.919 410.043 312.38 386.573C307.364 377.585 306.862 378.583 306.361 394.563C306.361 412.04 307.364 413.039 325.922 416.035C350.498 420.03 368.554 413.538 379.588 396.56C392.629 376.586 384.604 360.107 351.501 341.631C330.436 329.646 323.915 323.654 323.915 314.666C323.915 290.697 359.526 287.701 370.56 310.172C375.576 321.157 376.078 321.157 376.078 306.177C376.579 293.693 374.071 289.698 365.545 287.201C352.003 283.706 341.972 283.706 331.439 287.701Z" fill="#0059B3"/>
<path d="M2.91752 292.694C18.4659 296.689 20.4721 303.181 20.4721 351.618C20.4721 398.058 18.4659 405.549 5.42532 410.542C1.41285 412.04 9.43779 413.039 22.9799 413.039C37.0235 413.039 44.5469 412.04 40.0329 410.542C35.5189 409.543 30.5033 401.554 28.497 393.065C23.983 369.096 24.9861 319.16 30.5033 319.16C33.0111 319.16 52.5719 340.632 74.1389 366.599C95.2044 392.565 114.765 414.038 116.771 414.038C118.778 414.038 120.784 388.071 120.784 356.612C120.784 301.183 121.285 298.686 132.32 294.192C140.846 290.697 137.335 289.698 115.768 289.698C94.2013 289.698 90.6904 290.697 99.7184 294.192C109.75 298.686 110.753 301.683 110.753 342.13C110.753 366.099 109.75 384.576 108.746 383.577C107.743 382.578 89.6872 360.607 68.6218 335.139C32.5095 291.695 29.5002 289.199 11.444 289.698C0.409729 290.197 -3.10118 291.196 2.91752 292.694Z" fill="#0059B3"/>
<path d="M153.385 292.694C168.933 296.689 170.94 303.68 169.937 350.12C168.933 385.574 170.438 395.062 177.961 403.052C189.999 416.534 215.578 420.529 239.152 413.039C263.227 405.049 270.75 387.572 270.75 335.139C271.251 302.182 272.255 298.187 282.787 294.192C291.314 290.697 287.803 289.698 266.236 289.698C244.167 289.698 241.158 290.697 250.186 294.692C261.722 299.186 262.223 300.684 260.217 344.128C258.211 395.062 252.694 404.55 224.105 405.549C198.024 406.048 185.986 392.565 182.476 358.11C178.463 318.161 183.479 295.191 197.522 292.694C203.541 291.695 194.011 290.697 175.955 290.697C157.899 290.197 147.868 291.695 153.385 292.694Z" fill="#0059B3"/>
<path d="M402.159 305.178C402.159 320.159 402.66 320.658 407.676 310.671C412.19 301.183 425.23 294.192 439.775 294.192C448.804 294.192 452.816 326.151 448.804 369.096C445.794 404.051 444.29 408.545 434.76 410.542C429.243 411.541 438.772 412.54 456.828 412.54C474.885 412.54 484.414 411.541 478.396 410.542C469.869 409.044 466.86 403.551 464.352 383.078C459.838 351.119 465.857 294.192 473.38 294.192C488.427 294.192 501.467 301.183 505.981 310.671C510.997 320.658 511.498 320.159 511.498 305.178L512 289.199H456.828H401.657L402.159 305.178Z" fill="#0059B3"/>
</g>
</svg>
