<svg width="104" height="104" viewBox="0 0 104 104" fill="none" xmlns="http://www.w3.org/2000/svg">
<path d="M52 0C23.3286 0 0 23.3286 0 52C0 80.6714 23.3286 104 52 104C80.6714 104 104 80.6714 104 52C104 23.3286 80.6714 0 52 0ZM52 8C76.3479 8 96 27.6521 96 52C96 76.3479 76.3479 96 52 96C27.6521 96 8 76.3479 8 52C8 27.6521 27.6521 8 52 8ZM32 20C30.9391 20 29.9217 20.4214 29.1716 21.1716C28.4214 21.9217 28 22.9391 28 24C28 25.0609 28.4214 26.0783 29.1716 26.8284C29.9217 27.5786 30.9391 28 32 28C33.0609 28 34.0783 27.5786 34.8284 26.8284C35.5786 26.0783 36 25.0609 36 24C36 22.9391 35.5786 21.9217 34.8284 21.1716C34.0783 20.4214 33.0609 20 32 20ZM28 32V76H36V32H28ZM44 32V36V76H62C74.1023 76 84 66.1023 84 54C84 41.8977 74.1023 32 62 32H44ZM52 40H62C69.7777 40 76 46.2223 76 54C76 61.7777 69.7777 68 62 68H52V40Z" fill="currentColor"/>
</svg>
