<?xml version="1.0" encoding="UTF-8" standalone="no"?>
<svg
   xmlns:dc="http://purl.org/dc/elements/1.1/"
   xmlns:cc="http://creativecommons.org/ns#"
   xmlns:rdf="http://www.w3.org/1999/02/22-rdf-syntax-ns#"
   xmlns:svg="http://www.w3.org/2000/svg"
   xmlns="http://www.w3.org/2000/svg"
   viewBox="0 0 666.66669 666.66669"
   height="666.66669"
   width="666.66669"
   xml:space="preserve"
   id="svg2"
   version="1.1"><metadata
     id="metadata8"><rdf:RDF><cc:Work
         rdf:about=""><dc:format>image/svg+xml</dc:format><dc:type
           rdf:resource="http://purl.org/dc/dcmitype/StillImage" /></cc:Work></rdf:RDF></metadata><defs
     id="defs6"><clipPath
       id="clipPath18"
       clipPathUnits="userSpaceOnUse"><path
         id="path16"
         d="M 0,500 H 500 V 0 H 0 Z" /></clipPath></defs><g
     transform="matrix(1.3333333,0,0,-1.3333333,0,666.66667)"
     id="g10"><g
       id="g12"><g
         clip-path="url(#clipPath18)"
         id="g14"><g
           transform="translate(134.5243,268.3705)"
           id="g20"><path
             id="path22"
             style="fill:#171617;fill-opacity:1;fill-rule:nonzero;stroke:none"
             d="m 0,0 h -4.018 v 47.714 h 2.334 c 18.527,0 27.911,-7.555 27.911,-22.449 C 26.227,8.734 17.156,0 0,0 M -2.165,63.667 H -23.436 V -79.186 h 19.418 v 63.233 h 4.981 c 27.983,0 44.682,15.087 44.682,40.351 0,24.206 -18.335,39.269 -47.81,39.269" /></g><g
           transform="translate(279.0377,205.1367)"
           id="g24"><path
             id="path26"
             style="fill:#171617;fill-opacity:1;fill-rule:nonzero;stroke:none"
             d="M 0,0 V 50.529 H 35.467 V 66.458 H 0 v 44.49 h 38.787 v 15.953 H -20.645 V -15.953 h 61.477 l 0,15.953 z" /></g><g
           transform="translate(358.9942,205.1367)"
           id="g28"><path
             id="path30"
             style="fill:#171617;fill-opacity:1;fill-rule:nonzero;stroke:none"
             d="m 0,0 h -3.97 v 49.88 h 4.475 c 17.108,0 27.719,-9.769 27.719,-25.482 C 28.224,8.879 17.95,0 0,0 m -3.97,110.948 h 2.43 c 16.242,0 25.938,-7.748 25.938,-20.741 0,-15.279 -9.6,-24.399 -25.673,-24.399 H -3.97 Z m 27.213,-50.698 -1.395,0.553 1.347,0.65 c 15.303,7.459 21.848,16.579 21.848,30.486 0,21.222 -17.276,34.962 -44.008,34.962 h -25.65 V -15.953 h 22.329 c 31.063,0 51.155,16.097 51.155,41.001 0,16.602 -8.614,28.441 -25.626,35.202" /></g><g
           transform="translate(259.669,380.6684)"
           id="g32"><path
             id="path34"
             style="fill:#412774;fill-opacity:1;fill-rule:nonzero;stroke:none"
             d="m 0,0 c -22.396,-19.925 -50.044,-49.917 -46.517,-81.882 1.352,-11.774 8.125,-21.675 15.509,-30.505 8.307,-10.42 13.95,-23.329 15.034,-36.689 1.863,-22.512 -9.696,-44.18 -24.344,-59.83 -7.85,-8.856 -17.017,-16.111 -26.109,-23.151 l 5.412,6.737 c 15.416,19.667 33.608,47.081 25.07,72.586 -2.369,6.633 -6.256,12.805 -10.43,18.452 -3.277,4.194 -7.094,8.632 -10.357,12.967 C -91.522,-73.887 -39.969,-22.703 0,0" /></g><g
           transform="translate(74.51,407.1026)"
           id="g36"><path
             id="path38"
             style="fill:#050502;fill-opacity:1;fill-rule:nonzero;stroke:none"
             d="m 0,0 c 0.643,0.592 0.965,1.431 0.965,2.517 0,2.291 -1.296,3.435 -3.888,3.435 h -3.796 v -6.84 h 3.796 c 1.306,0 2.28,0.296 2.923,0.888 M 3.737,-0.496 C 3.234,-1.44 2.431,-2.209 1.326,-2.803 0.221,-3.395 -1.195,-3.691 -2.923,-3.691 h -3.796 v -8.497 h -3.435 V 8.755 h 7.231 c 1.607,0 2.969,-0.277 4.084,-0.829 C 2.276,7.374 3.109,6.624 3.661,5.682 4.214,4.737 4.49,3.682 4.49,2.517 4.49,1.452 4.239,0.446 3.737,-0.496" /></g><g
           transform="translate(127.6662,401.9942)"
           id="g40"><path
             id="path42"
             style="fill:#050502;fill-opacity:1;fill-rule:nonzero;stroke:none"
             d="M 0,0 -3.406,9.735 -6.841,0 Z M 0.963,-2.801 H -7.805 L -9.312,-7.08 h -3.586 l 7.504,20.972 h 3.977 L 6.087,-7.08 H 2.471 Z" /></g><g
           transform="translate(182.2687,394.9144)"
           id="g44"><path
             id="path46"
             style="fill:#050502;fill-opacity:1;fill-rule:nonzero;stroke:none"
             d="M 0,0 -8.105,9.371 V 0 h -3.436 v 20.943 h 3.436 v -9.554 l 8.136,9.554 H 4.339 L -4.761,10.456 4.49,0 Z" /></g><path
           id="path48"
           style="fill:#050502;fill-opacity:1;fill-rule:nonzero;stroke:none"
           d="m 226.958,394.914 h -3.435 v 20.943 h 3.435 z" /><g
           transform="translate(268.3015,395.4407)"
           id="g50"><path
             id="path52"
             style="fill:#050502;fill-opacity:1;fill-rule:nonzero;stroke:none"
             d="M 0,0 C -1.126,0.493 -2.009,1.191 -2.653,2.094 -3.297,2.998 -3.616,4.053 -3.616,5.259 H 0.059 C 0.139,4.354 0.496,3.612 1.13,3.029 1.762,2.446 2.651,2.155 3.797,2.155 c 1.185,0 2.108,0.286 2.771,0.86 0.665,0.571 0.996,1.309 0.996,2.213 0,0.703 -0.207,1.276 -0.618,1.718 C 6.532,7.388 6.02,7.731 5.409,7.97 4.796,8.212 3.948,8.473 2.862,8.755 c -1.365,0.362 -2.477,0.726 -3.33,1.1 -0.855,0.371 -1.581,0.949 -2.185,1.732 -0.601,0.784 -0.905,1.828 -0.905,3.134 0,1.206 0.304,2.261 0.905,3.163 0.604,0.905 1.448,1.598 2.531,2.08 1.085,0.481 2.34,0.723 3.767,0.723 2.03,0 3.691,-0.507 4.988,-1.522 1.295,-1.013 2.014,-2.407 2.155,-4.174 H 6.991 c -0.062,0.764 -0.423,1.417 -1.086,1.96 -0.663,0.543 -1.537,0.813 -2.62,0.813 -0.985,0 -1.788,-0.251 -2.411,-0.754 -0.623,-0.501 -0.935,-1.224 -0.935,-2.169 0,-0.644 0.195,-1.17 0.587,-1.581 C 0.919,12.848 1.415,12.522 2.018,12.28 2.62,12.038 3.445,11.777 4.49,11.497 5.874,11.114 7.005,10.734 7.879,10.351 8.753,9.97 9.495,9.383 10.109,8.588 10.722,7.794 11.027,6.734 11.027,5.409 11.027,4.345 10.743,3.339 10.17,2.397 9.596,1.452 8.762,0.693 7.667,0.12 6.572,-0.451 5.282,-0.738 3.797,-0.738 2.39,-0.738 1.123,-0.491 0,0" /></g><g
           transform="translate(330.6476,415.8578)"
           id="g54"><path
             id="path56"
             style="fill:#050502;fill-opacity:1;fill-rule:nonzero;stroke:none"
             d="m 0,0 v -2.803 h -5.576 v -18.14 h -3.435 v 18.14 h -5.604 V 0 Z" /></g><g
           transform="translate(379.4943,401.9942)"
           id="g58"><path
             id="path60"
             style="fill:#050502;fill-opacity:1;fill-rule:nonzero;stroke:none"
             d="M 0,0 -3.405,9.735 -6.84,0 Z M 0.963,-2.801 H -7.806 L -9.312,-7.08 h -3.586 l 7.503,20.972 h 3.978 L 6.086,-7.08 H 2.47 Z" /></g><g
           transform="translate(439.7609,394.9144)"
           id="g62"><path
             id="path64"
             style="fill:#050502;fill-opacity:1;fill-rule:nonzero;stroke:none"
             d="M 0,0 H -3.435 L -13.77,15.64 V 0 h -3.435 v 20.972 h 3.435 L -3.435,5.362 v 15.61 H 0 Z" /></g><g
           transform="translate(67.9769,111.0108)"
           id="g66"><path
             id="path68"
             style="fill:#050502;fill-opacity:1;fill-rule:nonzero;stroke:none"
             d="M 0,0 C -1.126,0.492 -2.013,1.191 -2.656,2.097 -3.3,3.003 -3.621,4.06 -3.621,5.268 H 0.061 C 0.141,4.362 0.499,3.615 1.132,3.034 1.767,2.448 2.656,2.158 3.804,2.158 c 1.187,0 2.113,0.285 2.777,0.86 0.664,0.574 0.996,1.313 0.996,2.219 0,0.704 -0.206,1.278 -0.619,1.721 C 6.546,7.4 6.033,7.742 5.418,7.984 4.805,8.224 3.954,8.485 2.868,8.768 1.499,9.13 0.387,9.498 -0.467,9.87 c -0.856,0.371 -1.586,0.95 -2.189,1.737 -0.604,0.783 -0.905,1.829 -0.905,3.137 0,1.208 0.301,2.265 0.905,3.171 0.603,0.906 1.448,1.6 2.536,2.083 1.086,0.482 2.344,0.725 3.773,0.725 2.033,0 3.698,-0.508 4.996,-1.525 1.298,-1.017 2.017,-2.411 2.159,-4.181 H 7.004 c -0.06,0.765 -0.423,1.417 -1.087,1.961 -0.664,0.544 -1.54,0.817 -2.626,0.817 -0.987,0 -1.792,-0.252 -2.415,-0.756 C 0.252,16.536 -0.06,15.811 -0.06,14.867 -0.06,14.222 0.137,13.692 0.528,13.28 0.922,12.868 1.419,12.541 2.023,12.301 2.627,12.059 3.452,11.797 4.498,11.515 5.887,11.134 7.019,10.75 7.893,10.369 8.769,9.985 9.514,9.396 10.127,8.603 10.742,7.808 11.049,6.746 11.049,5.418 11.049,4.35 10.762,3.345 10.188,2.399 9.614,1.452 8.78,0.694 7.683,0.12 6.586,-0.454 5.293,-0.741 3.804,-0.741 2.395,-0.741 1.127,-0.494 0,0" /></g><g
           transform="translate(126.5079,114.2096)"
           id="g70"><path
             id="path72"
             style="fill:#050502;fill-opacity:1;fill-rule:nonzero;stroke:none"
             d="m 0,0 c 1.086,0.633 1.936,1.539 2.55,2.716 0.615,1.177 0.922,2.54 0.922,4.091 0,1.549 -0.307,2.907 -0.922,4.075 -0.614,1.167 -1.464,2.062 -2.55,2.688 -1.086,0.621 -2.324,0.934 -3.713,0.934 -1.389,0 -2.626,-0.313 -3.713,-0.934 -1.087,-0.626 -1.936,-1.521 -2.551,-2.688 -0.614,-1.168 -0.92,-2.526 -0.92,-4.075 0,-1.551 0.306,-2.914 0.92,-4.091 0.615,-1.177 1.464,-2.083 2.551,-2.716 1.087,-0.633 2.324,-0.951 3.713,-0.951 1.389,0 2.627,0.318 3.713,0.951 m -9.101,-2.566 c -1.641,0.916 -2.939,2.194 -3.894,3.835 -0.956,1.638 -1.434,3.486 -1.434,5.538 0,2.053 0.478,3.893 1.434,5.525 0.955,1.628 2.253,2.902 3.894,3.817 1.639,0.916 3.435,1.375 5.388,1.375 1.972,0 3.778,-0.459 5.418,-1.375 C 3.346,15.234 4.638,13.96 5.584,12.332 6.529,10.7 7.003,8.86 7.003,6.807 7.003,4.755 6.529,2.907 5.584,1.269 4.638,-0.372 3.346,-1.65 1.705,-2.566 0.065,-3.481 -1.741,-3.94 -3.713,-3.94 c -1.953,0 -3.749,0.459 -5.388,1.374" /></g><g
           transform="translate(179.3627,131.4607)"
           id="g74"><path
             id="path76"
             style="fill:#050502;fill-opacity:1;fill-rule:nonzero;stroke:none"
             d="m 0,0 v -2.808 h -8.904 v -6.188 h 6.942 v -2.806 h -6.942 v -9.178 h -3.442 V 0 Z" /></g><g
           transform="translate(226.2412,131.4607)"
           id="g78"><path
             id="path80"
             style="fill:#050502;fill-opacity:1;fill-rule:nonzero;stroke:none"
             d="M 0,0 V -2.808 H -5.583 V -20.98 h -3.442 v 18.172 h -5.616 V 0 Z" /></g><g
           transform="translate(287.1555,131.4607)"
           id="g82"><path
             id="path84"
             style="fill:#050502;fill-opacity:1;fill-rule:nonzero;stroke:none"
             d="m 0,0 -6.219,-20.98 h -3.893 l -4.409,15.879 -4.677,-15.879 -3.865,-0.03 L -29.008,0 h 3.65 L -21.01,-17.084 -16.3,0 h 3.862 L -8.059,-16.995 -3.684,0 Z" /></g><g
           transform="translate(331.8002,117.5756)"
           id="g86"><path
             id="path88"
             style="fill:#050502;fill-opacity:1;fill-rule:nonzero;stroke:none"
             d="M 0,0 -3.411,9.749 -6.852,0 Z m 0.965,-2.808 h -8.784 l -1.509,-4.286 h -3.592 l 7.516,21.01 h 3.985 L 6.096,-7.094 H 2.474 Z" /></g><g
           transform="translate(374.7242,121.6194)"
           id="g90"><path
             id="path92"
             style="fill:#050502;fill-opacity:1;fill-rule:nonzero;stroke:none"
             d="M 0,0 H 3.804 C 5.091,0 6.061,0.322 6.715,0.967 7.37,1.61 7.697,2.476 7.697,3.564 7.697,4.649 7.374,5.499 6.732,6.113 6.087,6.727 5.11,7.033 3.804,7.033 H 0 Z m 7.455,-11.138 -4.83,8.391 H 0 v -8.391 H -3.441 V 9.841 h 7.245 c 1.61,0 2.973,-0.282 4.088,-0.845 C 9.01,8.434 9.844,7.678 10.399,6.732 10.952,5.786 11.228,4.729 11.228,3.564 11.228,2.194 10.83,0.951 10.037,-0.165 9.241,-1.283 8.019,-2.041 6.369,-2.443 l 5.191,-8.695 z" /></g><g
           transform="translate(423.9283,128.6832)"
           id="g94"><path
             id="path96"
             style="fill:#050502;fill-opacity:1;fill-rule:nonzero;stroke:none"
             d="M 0,0 V -6.158 H 7.245 V -8.966 H 0 v -6.428 h 8.149 v -2.808 H -3.441 V 2.808 H 8.149 V 0 Z" /></g><g
           transform="translate(67.7404,99.572)"
           id="g98"><path
             id="path100"
             style="fill:#050502;fill-opacity:1;fill-rule:nonzero;stroke:none"
             d="M 0,0 V -6.057 H 7.125 V -8.819 H 0 v -6.325 h 8.016 v -2.76 H -3.385 V 2.76 H 8.016 V 0 Z" /></g><g
           transform="translate(102.9527,91.9711)"
           id="g102"><path
             id="path104"
             style="fill:#050502;fill-opacity:1;fill-rule:nonzero;stroke:none"
             d="m 0,0 6.414,-10.303 h -3.8 l -4.662,7.481 -4.365,-7.481 h -3.771 L -3.77,0 -10.214,10.333 h 3.801 l 4.692,-7.543 4.394,7.543 h 3.77 z" /></g><g
           transform="translate(136.652,93.6775)"
           id="g106"><path
             id="path108"
             style="fill:#050502;fill-opacity:1;fill-rule:nonzero;stroke:none"
             d="m 0,0 c 0.633,0.583 0.95,1.41 0.95,2.48 0,2.257 -1.276,3.384 -3.83,3.384 h -3.74 v -6.739 h 3.74 c 1.287,0 2.247,0.292 2.88,0.875 M 3.682,-0.489 C 3.187,-1.419 2.395,-2.176 1.307,-2.762 0.218,-3.346 -1.177,-3.637 -2.88,-3.637 h -3.74 v -8.372 h -3.385 V 8.627 h 7.125 c 1.583,0 2.925,-0.274 4.024,-0.818 C 2.242,7.265 3.063,6.527 3.607,5.598 4.152,4.667 4.424,3.628 4.424,2.48 4.424,1.431 4.177,0.44 3.682,-0.489" /></g><g
           transform="translate(170.9463,85.3357)"
           id="g110"><path
             id="path112"
             style="fill:#050502;fill-opacity:1;fill-rule:nonzero;stroke:none"
             d="m 0,0 c 1.068,0.623 1.904,1.514 2.509,2.672 0.604,1.157 0.906,2.498 0.906,4.021 0,1.526 -0.302,2.862 -0.906,4.01 -0.605,1.146 -1.441,2.028 -2.509,2.642 -1.068,0.614 -2.286,0.921 -3.652,0.921 -1.366,0 -2.583,-0.307 -3.653,-0.921 -1.068,-0.614 -1.904,-1.496 -2.508,-2.642 -0.604,-1.148 -0.905,-2.484 -0.905,-4.01 0,-1.523 0.301,-2.864 0.905,-4.021 0.604,-1.158 1.44,-2.049 2.508,-2.672 1.07,-0.625 2.287,-0.935 3.653,-0.935 1.366,0 2.584,0.31 3.652,0.935 m -8.952,-2.526 c -1.614,0.901 -2.89,2.158 -3.83,3.772 -0.94,1.613 -1.41,3.428 -1.41,5.447 0,2.019 0.47,3.832 1.41,5.434 0.94,1.605 2.216,2.855 3.83,3.758 1.613,0.898 3.379,1.35 5.3,1.35 1.94,0 3.716,-0.452 5.329,-1.35 C 3.291,14.982 4.562,13.732 5.493,12.127 6.422,10.525 6.888,8.712 6.888,6.693 6.888,4.674 6.422,2.859 5.493,1.246 4.562,-0.368 3.291,-1.625 1.677,-2.526 c -1.613,-0.901 -3.389,-1.35 -5.329,-1.35 -1.921,0 -3.687,0.449 -5.3,1.35" /></g><g
           transform="translate(198.1131,92.624)"
           id="g114"><path
             id="path116"
             style="fill:#050502;fill-opacity:1;fill-rule:nonzero;stroke:none"
             d="m 0,0 h 3.74 c 1.267,0 2.222,0.317 2.865,0.949 0.644,0.635 0.966,1.484 0.966,2.554 0,1.07 -0.317,1.905 -0.951,2.51 C 5.987,6.615 5.028,6.918 3.74,6.918 H 0 Z m 7.333,-10.956 -4.75,8.254 H 0 v -8.254 H -3.385 V 9.68 H 3.74 C 5.324,9.68 6.666,9.402 7.764,8.849 8.863,8.293 9.683,7.55 10.228,6.622 10.772,5.691 11.045,4.651 11.045,3.503 11.045,2.158 10.654,0.935 9.871,-0.164 9.09,-1.262 7.887,-2.01 6.264,-2.406 l 5.107,-8.55 z" /></g><g
           transform="translate(240.3926,102.304)"
           id="g118"><path
             id="path120"
             style="fill:#050502;fill-opacity:1;fill-rule:nonzero;stroke:none"
             d="m 0,0 v -2.762 h -5.492 v -17.874 h -3.385 v 17.874 h -5.524 V 0 Z" /></g><g
           transform="translate(289.325,85.2593)"
           id="g122"><path
             id="path124"
             style="fill:#050502;fill-opacity:1;fill-rule:nonzero;stroke:none"
             d="m 0,0 c 0.653,0.556 0.979,1.327 0.979,2.318 0,1.009 -0.347,1.81 -1.039,2.405 -0.692,0.593 -1.614,0.889 -2.762,0.889 h -4.452 v -6.443 h 4.572 c 1.146,0 2.049,0.278 2.702,0.831 m -7.274,8.374 h 4.185 c 1.109,0 1.975,0.253 2.598,0.757 0.623,0.505 0.936,1.232 0.936,2.184 0,0.928 -0.313,1.655 -0.936,2.18 -0.623,0.526 -1.489,0.788 -2.598,0.788 H -7.274 Z M 3.207,5.256 C 3.978,4.285 4.364,3.188 4.364,1.961 4.364,0.912 4.091,-0.035 3.547,-0.875 3.003,-1.716 2.216,-2.38 1.188,-2.864 0.157,-3.35 -1.04,-3.591 -2.406,-3.591 h -8.253 v 20.636 h 7.867 c 1.405,0 2.614,-0.239 3.623,-0.713 1.01,-0.475 1.771,-1.114 2.285,-1.915 C 3.63,13.614 3.89,12.718 3.89,11.729 3.89,10.541 3.572,9.55 2.938,8.761 2.306,7.969 1.454,7.383 0.384,7.008 1.493,6.809 2.433,6.226 3.207,5.256" /></g><g
           transform="translate(324.0024,85.3357)"
           id="g126"><path
             id="path128"
             style="fill:#050502;fill-opacity:1;fill-rule:nonzero;stroke:none"
             d="m 0,0 c 1.07,0.623 1.905,1.514 2.51,2.672 0.604,1.157 0.905,2.498 0.905,4.021 0,1.526 -0.301,2.862 -0.905,4.01 -0.605,1.146 -1.44,2.028 -2.51,2.642 -1.067,0.614 -2.285,0.921 -3.651,0.921 -1.366,0 -2.584,-0.307 -3.651,-0.921 -1.07,-0.614 -1.906,-1.496 -2.51,-2.642 -0.604,-1.148 -0.905,-2.484 -0.905,-4.01 0,-1.523 0.301,-2.864 0.905,-4.021 0.604,-1.158 1.44,-2.049 2.51,-2.672 1.067,-0.625 2.285,-0.935 3.651,-0.935 1.366,0 2.584,0.31 3.651,0.935 m -8.951,-2.526 c -1.613,0.901 -2.889,2.158 -3.829,3.772 -0.942,1.613 -1.412,3.428 -1.412,5.447 0,2.019 0.47,3.832 1.412,5.434 0.94,1.605 2.216,2.855 3.829,3.758 1.614,0.898 3.381,1.35 5.3,1.35 1.94,0 3.716,-0.452 5.33,-1.35 C 3.292,14.982 4.563,13.732 5.494,12.127 6.425,10.525 6.89,8.712 6.89,6.693 6.89,4.674 6.425,2.859 5.494,1.246 4.563,-0.368 3.292,-1.625 1.679,-2.526 c -1.614,-0.901 -3.39,-1.35 -5.33,-1.35 -1.919,0 -3.686,0.449 -5.3,1.35" /></g><g
           transform="translate(359.2772,88.6441)"
           id="g130"><path
             id="path132"
             style="fill:#050502;fill-opacity:1;fill-rule:nonzero;stroke:none"
             d="M 0,0 -3.355,9.592 -6.74,0 Z m 0.949,-2.76 h -8.64 l -1.484,-4.216 h -3.533 l 7.392,20.664 h 3.92 L 5.996,-6.976 H 2.433 Z" /></g><g
           transform="translate(385.4346,92.624)"
           id="g134"><path
             id="path136"
             style="fill:#050502;fill-opacity:1;fill-rule:nonzero;stroke:none"
             d="m 0,0 h 3.741 c 1.267,0 2.221,0.317 2.864,0.949 0.644,0.635 0.966,1.484 0.966,2.554 0,1.07 -0.317,1.905 -0.949,2.51 C 5.987,6.615 5.026,6.918 3.741,6.918 H 0 Z M 7.332,-10.956 2.581,-2.702 H 0 v -8.254 H -3.385 V 9.68 H 3.741 C 5.325,9.68 6.666,9.402 7.763,8.849 8.863,8.293 9.682,7.55 10.229,6.622 10.773,5.691 11.044,4.651 11.044,3.503 11.044,2.158 10.652,0.935 9.872,-0.164 9.09,-1.262 7.888,-2.01 6.265,-2.406 l 5.105,-8.55 z" /></g><g
           transform="translate(426.6734,86.3891)"
           id="g138"><path
             id="path140"
             style="fill:#050502;fill-opacity:1;fill-rule:nonzero;stroke:none"
             d="m 0,0 c 1.287,1.306 1.931,3.146 1.931,5.522 0,2.394 -0.644,4.264 -1.931,5.612 -1.287,1.345 -3.137,2.019 -5.552,2.019 H -8.907 V -1.961 h 3.355 C -3.137,-1.961 -1.287,-1.306 0,0 M 0.222,14.653 C 1.875,13.81 3.151,12.604 4.054,11.03 4.952,9.455 5.404,7.619 5.404,5.522 5.404,3.424 4.952,1.602 4.054,0.058 3.151,-1.484 1.875,-2.667 0.222,-3.489 -1.431,-4.311 -3.355,-4.721 -5.552,-4.721 h -6.74 v 20.636 h 6.74 c 2.197,0 4.121,-0.422 5.774,-1.262" /></g><path
           id="path142"
           style="fill:#412774;fill-opacity:1;fill-rule:nonzero;stroke:none"
           d="M 446.822,427.103 H 53.178 v 4.696 h 393.644 z" /><path
           id="path144"
           style="fill:#412774;fill-opacity:1;fill-rule:nonzero;stroke:none"
           d="M 244.867,380.067 H 53.178 v 4.696 h 191.689 z" /><path
           id="path146"
           style="fill:#412774;fill-opacity:1;fill-rule:nonzero;stroke:none"
           d="M 446.822,380.067 H 268.97 v 4.696 h 177.852 z" /><path
           id="path148"
           style="fill:#412774;fill-opacity:1;fill-rule:nonzero;stroke:none"
           d="m 201.993,147.245 h 244.829 v -4.696 H 201.993 Z" /><path
           id="path150"
           style="fill:#412774;fill-opacity:1;fill-rule:nonzero;stroke:none"
           d="M 53.178,72.897 H 446.822 V 68.201 H 53.178 Z" /><path
           id="path152"
           style="fill:#412774;fill-opacity:1;fill-rule:nonzero;stroke:none"
           d="m 53.178,147.245 h 132.035 v -4.696 H 53.178 Z" /></g></g></g></svg>