<svg viewBox="0 0 128 128" xmlns="http://www.w3.org/2000/svg">
<path fill="#2496ED" d="M124.8 52.1c-4.3-2.5-10-2.8-14.8-1.4-.6-5.2-4-9.7-8-12.9l-1.6-1.3-1.4 1.6c-2.7 3.1-3.5 8.3-3.1 12.3.3 2.9 1.2 5.9 3 8.3-1.4.8-2.9 1.5-4.3 2.1-2.7 1-5.6 1.6-8.4 1.6H2.1l-.2 1.5c-.7 7.1.3 14.3 3.3 20.7 2.6 5.6 6.5 9.9 11.8 12.6 6.3 3.2 16.5 5.1 27.8 5.1 10.2 0 20.1-1.5 28.7-4.7 7-2.6 13.2-6.4 18.3-11.3 6.8-6.5 10.8-14.1 13.6-21.6 4.6 0 9.5.1 13.4-2.6 2.3-1.6 4.3-4.3 4.9-7.5l.3-1.7-1.2-.8zM30 56H21v9h9v-9zm0-10.5H21v9h9v-9zm10.5 10.5h-9v9h9v-9zm0-10.5h-9v9h9v-9zM51 56h-9v9h9v-9zm0-10.5h-9v9h9v-9zm10.5 10.5h-9v9h9v-9zm0-10.5h-9v9h9v-9zM72 56h-9v9h9v-9z"/>
</svg>