<svg viewBox="0 0 128 128" xmlns="http://www.w3.org/2000/svg">
<path fill="#E535AB" d="M64 0L6.51 33v62L64 128l57.49-33V33L64 0zM21.43 87.89V40.11l42.5-24.5 42.5 24.5v47.78l-42.5 24.5-42.5-24.5z"/>
<circle fill="#E535AB" cx="64" cy="12.31" r="8.31"/>
<circle fill="#E535AB" cx="64" cy="115.69" r="8.31"/>
<circle fill="#E535AB" cx="14.94" cy="35.65" r="8.31"/>
<circle fill="#E535AB" cx="14.94" cy="92.35" r="8.31"/>
<circle fill="#E535AB" cx="113.06" cy="35.65" r="8.31"/>
<circle fill="#E535AB" cx="113.06" cy="92.35" r="8.31"/>
<path fill="#E535AB" d="M28.25 88.62L24.5 82.1l58.81-34 3.75 6.52zM40.94 108.75L37.19 102.23l58.81-34 3.75 6.52zM21.06 40.19h67.5v7.5h-67.5zM39.44 80.31h67.5v7.5h-67.5z"/>
</svg>