<svg viewBox="0 0 128 128" xmlns="http://www.w3.org/2000/svg">
<path fill="#FF9900" d="M38.08 52.86c0 2.18.23 3.94.63 5.22.45 1.28 1.03 2.67 1.8 4.16.29.45.4.9.4 1.35 0 .58-.35 1.17-1.1 1.76l-3.66 2.44c-.52.35-1.04.52-1.52.52-.58 0-1.16-.29-1.75-.81-1.04-1.1-1.92-2.26-2.61-3.48-.69-1.22-1.39-2.61-2.09-4.22-5.23 6.16-11.81 9.25-19.74 9.25-5.64 0-10.14-1.61-13.43-4.83-3.29-3.22-4.97-7.52-4.97-12.9 0-5.7 2.01-10.33 6.1-13.85 4.08-3.52 9.51-5.28 16.39-5.28 2.27 0 4.6.17 7.05.46 2.44.29 4.97.75 7.63 1.34v-4.91c0-5.11-1.07-8.68-3.17-10.77-2.15-2.09-5.81-3.11-11.04-3.11-2.38 0-4.83.29-7.34.86-2.52.58-4.97 1.34-7.35 2.27-.98.4-1.7.63-2.15.75-.46.11-.8.17-1.04.17-.92 0-1.39-.64-1.39-1.98V12.8c0-1.04.12-1.81.4-2.26.29-.46.81-.92 1.63-1.39 2.38-1.22 5.23-2.26 8.56-3.11 3.34-.9 6.85-1.34 10.57-1.34 8.05 0 13.93 1.81 17.71 5.46 3.72 3.64 5.58 9.19 5.58 16.65v21.93l.01.12zM20.57 59.42c2.21 0 4.48-.4 6.91-1.22 2.44-.81 4.6-2.32 6.45-4.42.98-1.22 1.69-2.55 2.04-4.05.35-1.52.58-3.34.58-5.52v-2.67c-1.93-.46-3.98-.81-6.1-1.04-2.15-.23-4.25-.35-6.33-.35-4.48 0-7.75.86-9.89 2.67-2.15 1.81-3.17 4.36-3.17 7.69 0 3.11.75 5.46 2.32 7.05 1.52 1.63 3.72 2.44 6.56 2.44l.63-.58z"/>
<path fill="#FF9900" d="M69.32 68.18c-1.17 0-1.98-.17-2.5-.58-.52-.35-.98-1.16-1.39-2.32L51.69 18.18c-.4-1.22-.63-2.03-.63-2.44 0-.98.46-1.52 1.39-1.52h5.7c1.22 0 2.03.17 2.5.58.52.35.92 1.16 1.28 2.32l9.77 38.5 9.08-38.5c.29-1.22.69-1.98 1.22-2.32.52-.35 1.39-.58 2.55-.58h4.66c1.22 0 2.03.17 2.55.58.52.35.98 1.16 1.22 2.32l9.19 38.96 10.06-38.96c.35-1.22.81-1.98 1.28-2.32.52-.35 1.34-.58 2.5-.58h5.4c.92 0 1.45.52 1.45 1.52 0 .29-.06.63-.12.98-.06.35-.17.81-.46 1.45l-14.03 47.1c-.4 1.22-.86 1.98-1.39 2.32-.52.35-1.34.58-2.44.58h-5.01c-1.22 0-2.03-.17-2.55-.58-.52-.4-.98-1.16-1.22-2.38l-9.02-37.46-8.96 37.4c-.29 1.22-.69 1.98-1.22 2.38-.52.4-1.39.58-2.55.58h-5.01z"/>
<path fill="#FF9900" d="M115.33 70.3c-3.46 0-6.91-.4-10.23-1.22-3.34-.81-5.93-1.7-7.69-2.73-1.1-.63-1.81-1.34-2.04-1.98-.23-.63-.35-1.34-.35-1.98v-3.23c0-1.34.52-1.98 1.52-1.98.4 0 .81.06 1.22.17.4.12.98.35 1.63.63 2.21.98 4.6 1.76 7.17 2.32 2.61.58 5.16.86 7.75.86 4.08 0 7.28-.69 9.48-2.09 2.21-1.39 3.34-3.4 3.34-5.99 0-1.76-.58-3.22-1.69-4.42-1.16-1.22-3.34-2.32-6.51-3.34l-9.31-2.9c-4.71-1.52-8.21-3.75-10.35-6.74-2.15-2.95-3.23-6.28-3.23-9.83 0-2.84.63-5.35 1.87-7.52 1.22-2.15 2.9-4.05 5.01-5.58 2.09-1.57 4.48-2.73 7.28-3.52 2.78-.81 5.7-1.16 8.8-1.16 1.52 0 3.11.06 4.65.23 1.57.17 3.05.4 4.48.69 1.39.35 2.73.69 3.98 1.1 1.28.4 2.27.81 2.95 1.22.92.52 1.57 1.04 1.92 1.63.35.52.52 1.28.52 2.21v2.95c0 1.34-.52 2.03-1.52 2.03-.58 0-1.45-.29-2.67-.81-4.02-1.81-8.56-2.73-13.59-2.73-3.72 0-6.62.52-8.65 1.63-2.03 1.1-3.05 2.84-3.05 5.28 0 1.76.63 3.28 1.87 4.48 1.22 1.22 3.58 2.38 7.05 3.46l9.14 2.9c4.65 1.52 8.02 3.64 10.06 6.39 2.03 2.73 3.05 5.87 3.05 9.31 0 2.9-.63 5.52-1.81 7.86-1.22 2.32-2.9 4.36-5.05 6.04-2.15 1.69-4.71 2.95-7.69 3.87-3.05.98-6.33 1.52-9.83 1.52z"/>
<path fill="#FF9900" d="M109.47 99.58c-15.18 11.21-37.17 17.19-56.12 17.19-26.56 0-50.47-9.83-68.57-26.14-1.39-1.28-.17-3.05 1.57-2.03 19.52 11.39 43.67 18.24 68.63 18.24 16.83 0 35.36-3.52 52.38-10.75 2.55-1.1 4.71 1.69 2.11 3.49z"/>
<path fill="#FF9900" d="M115.39 92.6c-1.93-2.44-12.68-1.17-17.54-.58-1.45.17-1.69-1.1-.35-2.03 8.56-6.04 22.65-4.3 24.29-2.27 1.63 2.03-.46 16.18-8.5 22.94-1.22 1.04-2.44.52-1.87-.86 1.81-4.54 5.93-14.73 3.97-17.2z"/>
</svg>