<svg viewBox="0 0 128 128" xmlns="http://www.w3.org/2000/svg">
<path fill="#326CE5" d="M64.1 5.3c-1.6 0-3 .8-3.8 2.2L9.6 93.1c-.7 1.3-.7 2.8 0 4.1l16.3 26.3c.8 1.4 2.2 2.2 3.8 2.2h68.6c1.6 0 3-.8 3.8-2.2l16.3-26.3c.7-1.3.7-2.8 0-4.1L67.9 7.5c-.8-1.4-2.2-2.2-3.8-2.2z"/>
<path fill="#fff" d="M64 23.8c-1.1 0-2 .9-2 2v.1l-.1 3c-.1 1.8-.5 3.1-1.1 4.5-.5 1.3-1.3 2.5-2.4 3.5-1 1-2.1 1.8-3.4 2.4-1.1.5-2.3.8-3.6.9l-3.2.3h-.1c-1.1 0-2 .9-2 2s.9 2 2 2h.1l3.2.3c1.3.1 2.5.4 3.6.9 1.3.6 2.4 1.4 3.4 2.4 1.1 1 1.9 2.2 2.4 3.5.6 1.4 1 2.7 1.1 4.5l.1 3v.1c0 1.1.9 2 2 2s2-.9 2-2v-.1l.1-3c.1-1.8.5-3.1 1.1-4.5.5-1.3 1.3-2.5 2.4-3.5 1-1 2.1-1.8 3.4-2.4 1.1-.5 2.3-.8 3.6-.9l3.2-.3h.1c1.1 0 2-.9 2-2s-.9-2-2-2h-.1l-3.2-.3c-1.3-.1-2.5-.4-3.6-.9-1.3-.6-2.4-1.4-3.4-2.4-1.1-1-1.9-2.2-2.4-3.5-.6-1.4-1-2.7-1.1-4.5l-.1-3v-.1c0-1.1-.9-2-2-2z"/>
<path fill="#fff" d="M64 63.5L47.3 74.1 52 92.9l24 .1 4.7-18.8-16.7-10.7z" opacity=".2"/>
<path fill="#fff" d="M64 56.8L44.8 69.1l7.4 28.5h23.6l7.4-28.5L64 56.8zm0 8.3l11.5 8.4-4.4 17.6H56.9l-4.4-17.6 11.5-8.4z"/>
</svg>