<svg viewBox="0 0 128 128" xmlns="http://www.w3.org/2000/svg">
<path fill="#5C3EE8" d="M64.14 90.46c-14.53 0-26.32-11.8-26.32-26.32 0-14.53 11.8-26.32 26.32-26.32 14.53 0 26.32 11.8 26.32 26.32 0 14.52-11.8 26.32-26.32 26.32zm0-44.18c-9.86 0-17.86 8-17.86 17.86s8 17.86 17.86 17.86 17.86-8 17.86-17.86-8-17.86-17.86-17.86z"/>
<path fill="#FF0000" d="M25.85 108.5c-12.9-7.46-17.32-23.97-9.87-36.87 7.45-12.9 23.97-17.32 36.87-9.87l-4.23 7.33c-9.03-5.21-20.58-2.12-25.79 6.9-5.21 9.03-2.12 20.58 6.9 25.79 9.03 5.21 20.58 2.12 25.79-6.9l7.33 4.23c-7.45 12.9-23.97 17.32-36.87 9.87z"/>
<path fill="#00FF00" d="M102.15 108.5c-12.9 7.45-29.42 3.03-36.87-9.87l7.33-4.23c5.21 9.02 16.76 12.11 25.79 6.9 9.02-5.21 12.11-16.76 6.9-25.79-5.21-9.02-16.76-12.11-25.79-6.9l-4.23-7.33c12.9-7.45 29.42-3.03 36.87 9.87s3.03 29.42-9.87 36.87z"/>
<path fill="#5C3EE8" d="M64 19.5c14.92 0 27.01 12.1 27.01 27.01h-8.46c0-10.24-8.31-18.55-18.55-18.55s-18.55 8.31-18.55 18.55H37c0-14.91 12.1-27.01 27-27.01z"/>
</svg>