<svg viewBox="0 0 128 128" xmlns="http://www.w3.org/2000/svg">
<path fill="#336791" d="M90.05 51.16c-2.65.01-5.83.47-9.39 1.3-1.13-2.14-2.21-4.54-3.09-7.49-.49-1.64-.88-3.6-1.23-5.65-.21-1.26-.4-2.6-.55-4.01 9.3-14.17 13.12-26.51 9.73-32.4-2.08-3.61-7.17-4.72-14.78-3.77-3.91.49-8.22 1.48-12.79 2.86-.75-.16-1.51-.27-2.29-.33-3.5-.28-7.25.42-10.63 1.9-.58-.22-1.15-.42-1.73-.61-5.63-1.88-10.67-2.65-15-2.29-6.03.5-10.24 3.1-11.38 7.2-1.33 4.79.45 11.03 4.7 17.72.67 1.06 1.4 2.14 2.19 3.21-.52 2.16-.94 4.26-1.23 6.27-.63 4.29-.66 8.12.04 11.6.13.63.28 1.24.46 1.84-2.72 4.51-4.7 8.61-5.88 12.14-1.83 5.46-1.83 9.52-.15 12.64.87 1.61 2.23 3.24 4.24 4.24 1.78.89 3.89 1.34 6.23 1.34 1.7 0 3.52-.24 5.42-.72 5.41-1.36 11.28-4.26 17.17-8.15 2.32.32 4.6.55 6.76.72 2.49.2 4.82.3 7.01.3 10.55 0 18.1-2.46 22.96-6.9 2.3-2.1 3.98-4.71 4.99-7.73 1.18-3.56 1.31-7.35.86-11.27 4.7-3.32 8.06-6.95 9.84-10.7 2.08-4.39 2-8.15-.3-10.55-1.49-1.55-3.85-2.57-7.18-2.56zm3.37 10.8c-1.31 2.76-3.74 5.54-7.11 8.19.04-1.92-.04-3.85-.27-5.77-.36-3.02-1.06-6.06-2.08-9.09 3.95-.74 7.25-.95 9.71-.52 1.49.26 2.26.67 2.53.95.83.87.49 3.15-2.78 6.24z"/>
<path fill="#fff" d="M56.63 73.04c-4.05-.33-8.32-.93-12.61-1.77-6.15 4.35-12.41 7.57-18.08 9.05-4.4 1.15-7.67.7-9.17-1.13-1.66-2.02-1.1-5.46.96-9.62 1.13-2.28 2.69-4.78 4.62-7.46-.96-2.35-1.59-4.94-1.87-7.73-.56-5.43.15-11.5 2.2-17.75-.91-1.02-1.75-2.04-2.51-3.05-3.87-5.11-5.72-9.91-4.87-13.02.77-2.79 3.74-4.34 8.66-4.75 3.85-.32 8.42.32 13.54 1.85.57.17 1.13.35 1.69.54 3.38-1.51 7.09-2.24 10.54-1.97 2.14.17 4.15.69 5.98 1.51 4.57-1.42 8.88-2.45 12.78-2.94 5.77-.73 9.86.03 11.29 2.52 2.55 4.43-.99 14.94-9.06 27.23.14 1.15.3 2.27.49 3.35.34 2 .73 3.86 1.18 5.55.79 2.97 1.77 5.54 2.84 7.74 4.49-1.16 8.59-1.6 12.04-1.36 2.23.16 4.02.58 5.33 1.27 1.95 1.03 2.81 2.56 2.41 4.42-.34 1.61-1.4 3.13-3.07 4.52-2.14 1.79-5.15 3.37-8.71 4.7.37 3.15.28 6.36-.5 9.52-.71 2.91-2.01 5.47-3.86 7.62-3.73 4.33-9.78 6.93-18.84 6.93-2.07 0-4.29-.09-6.65-.28-2.29-.18-4.64-.44-7.03-.78z"/>
<path fill="#336791" d="M50.78 46.28c-1.89.02-3.67.37-5.11 1.08-1.41.69-2.4 1.63-2.76 2.73-.56 1.67.45 3.58 2.6 5 1.28.85 2.88 1.5 4.68 1.93.74.18 1.52.32 2.33.41 1.19.14 2.43.14 3.65.02.17-.02.35-.04.52-.06.89-.13 1.76-.32 2.58-.57 1.64-.49 3.08-1.17 4.14-2.01 1.23-.97 1.92-2.1 1.83-3.31-.09-1.22-.96-2.35-2.4-3.23-.98-.6-2.15-1.08-3.47-1.42-1.55-.4-3.28-.6-5.06-.6-.51 0-1.02.01-1.53.03-.67.02-1.34.06-2 .11zm-.73 5.85c-.77-.17-1.47-.4-2.05-.68-.8-.39-1.32-.85-1.49-1.32-.15-.41.01-.83.46-1.19.42-.33 1.04-.6 1.8-.79.85-.22 1.83-.34 2.86-.35.78-.01 1.58.05 2.38.17.76.11 1.49.28 2.16.5.71.23 1.32.51 1.79.82.49.33.79.68.87 1.04.09.41-.13.83-.59 1.21-.47.38-1.13.71-1.94.98-.68.23-1.47.41-2.32.54-.75.11-1.55.17-2.37.17-.58 0-1.14-.03-1.68-.08-.63-.05-1.24-.15-1.82-.28-.02 0-.04-.01-.06-.02zm29.1-5.6c-1.73.12-3.43.39-4.99.8-1.21.31-2.3.71-3.23 1.2-1.26.67-2.17 1.49-2.59 2.43-.57 1.26-.29 2.67.76 3.94.75.9 1.85 1.69 3.23 2.32 1.6.73 3.5 1.25 5.57 1.5 1.12.14 2.29.2 3.48.18 1.02-.02 2.02-.1 3-.23 1.77-.24 3.43-.63 4.84-1.17 1.56-.59 2.81-1.34 3.6-2.2.79-.86 1.11-1.8.88-2.71-.26-1.04-1.17-1.98-2.63-2.73-1.08-.55-2.39-.99-3.87-1.29-1.75-.36-3.72-.53-5.77-.53-.76 0-1.52.02-2.28.06zm-1.18 5.61c-.96-.12-1.86-.31-2.67-.57-.77-.25-1.4-.55-1.87-.9-.39-.29-.59-.6-.58-.9.01-.35.27-.67.74-.95.52-.31 1.23-.56 2.08-.74.97-.2 2.08-.31 3.25-.31.97 0 1.91.07 2.79.21.81.13 1.54.31 2.17.55.58.22 1.02.48 1.3.76.24.24.35.49.31.74-.05.3-.31.59-.74.85-.46.28-1.08.52-1.82.72-.83.22-1.79.39-2.82.49-.74.07-1.51.1-2.29.1-.62 0-1.23-.02-1.84-.05z"/>
</svg>