<svg viewBox="0 0 128 128" xmlns="http://www.w3.org/2000/svg">
<path fill="#539E43" d="M114.26 77.95c0-1.97-.99-3.8-2.64-4.87l-49.5-28.67c-.76-.44-1.6-.69-2.46-.76-.08 0-.16-.01-.24-.01h-.23c-.09 0-.17 0-.25.01-.86.07-1.71.32-2.46.76L6.98 73.08c-1.65 1.07-2.64 2.9-2.64 4.87v57.34c0 1.44.76 2.78 2 3.53l13.14 7.59c.34.2.72.3 1.1.3.26 0 .52-.05.77-.14 1.16-.43 1.88-1.55 1.77-2.78V87.83c0-.36.16-.71.44-.94l38.48-22.25a1.12 1.12 0 011.12 0L101.64 86.9c.28.17.45.48.45.82v44.24c0 .35-.17.67-.44.87l-13.15 7.59c-.66.38-.9 1.22-.55 1.9.24.46.71.76 1.22.76h.01c.26 0 .51-.07.73-.2l13.16-7.59c1.24-.72 2-2.05 2-3.5V77.95zM62.15 91.22l-10.32 5.97c-1.23.72-2 2.05-2 3.5v11.93c0 1.45.77 2.79 2 3.51l10.32 5.96c1.23.71 2.75.71 3.99 0l10.33-5.96c1.23-.72 2-2.06 2-3.51v-11.93c0-1.45-.77-2.78-2-3.5l-10.33-5.97a4.04 4.04 0 00-3.99 0z"/>
<path fill="#333" d="M62.03 0c-.87.05-1.73.3-2.5.76L6.98 30.32c-1.65 1.07-2.64 2.9-2.64 4.87l.03 32.04c0 1 .53 1.93 1.4 2.44.87.51 1.94.51 2.81 0l13.07-7.53c1.31-.76 2.11-2.15 2.11-3.65V38.42c0-.36.16-.71.44-.94L62.68 15.2a1.12 1.12 0 011.12 0l38.48 22.27c.28.18.44.49.44.85v44.54c0 .36-.16.67-.44.85L63.8 106c-.34.2-.78.2-1.12 0l-12.92-7.65c-.26-.15-.56-.22-.86-.2-.44.03-.84.23-1.13.55-.75.83-.49 2.05.54 2.65l13.19 7.6c1.23.71 2.75.71 3.99 0l38.47-22.3c1.65-1.07 2.64-2.9 2.64-4.87V35.19c0-1.97-.99-3.8-2.64-4.87L55.47.75a4.3 4.3 0 00-2.5-.76c-.32-.01-.63.01-.94.01z"/>
</svg>