<svg width="24" height="24" viewBox="0 0 24 24" fill="none" xmlns="http://www.w3.org/2000/svg">
<path d="M15.8273 12.6805C15.1844 12.6805 14.5818 12.4061 14.0341 11.9594L14.1671 11.3271L14.1717 11.3024C14.2925 10.6307 14.667 9.50411 15.8278 9.50411C16.6982 9.50411 17.4046 10.2164 17.4046 11.0926C17.404 11.9677 16.6976 12.6805 15.8273 12.6805ZM15.8273 7.8968C14.3462 7.8968 13.1964 8.86589 12.7297 10.4626C12.0181 9.38481 11.4767 8.09074 11.1623 7H9.56633V11.1796C9.56517 12.0059 8.90075 12.6758 8.08058 12.677C7.261 12.6758 6.59717 12.0053 6.596 11.1796V7H5V11.1796C5 12.8921 6.3825 14.2961 8.08058 14.2961C9.77983 14.2961 11.1623 12.8921 11.1623 11.1796V10.4803C11.4709 11.1308 11.8518 11.7902 12.3138 12.3732L11.3379 17H12.9695L13.6771 13.6443C14.2972 14.0434 15.01 14.2961 15.8273 14.2961C17.5773 14.2961 19 12.8551 19 11.0932C19 9.33016 17.5773 7.8968 15.8273 7.8968Z" fill="currentColor"/>
<rect x="3" y="3" width="18" height="18" rx="3" stroke="currentColor" stroke-width="2"/>
</svg>
